<?xml version="1.0" standalone="no"?>
<!DOCTYPE svg PUBLIC "-//W3C//DTD SVG 20010904//EN"
 "http://www.w3.org/TR/2001/REC-SVG-20010904/DTD/svg10.dtd">
<svg version="1.0" xmlns="http://www.w3.org/2000/svg"
 width="2560.000000pt" height="1440.000000pt" viewBox="0 0 2560.000000 1440.000000"
 preserveAspectRatio="xMidYMid meet">

<g transform="translate(0.000000,1440.000000) scale(0.100000,-0.100000)"
fill="#000000" stroke="none">
<path d="M5265 10570 l-78 -160 -159 -52 -159 -53 152 -75 152 -76 42 -149
c48 -173 32 -175 135 15 34 63 67 120 73 126 7 6 78 35 160 64 81 29 147 56
147 59 0 3 -64 35 -141 71 -77 35 -144 69 -148 75 -4 5 -25 79 -47 163 -21 83
-41 152 -44 152 -4 0 -41 -72 -85 -160z m100 -22 c10 -40 24 -94 32 -119 l13
-46 115 -53 c63 -30 112 -57 108 -60 -5 -4 -60 -26 -123 -49 l-115 -42 -58
-104 c-32 -58 -62 -107 -66 -109 -4 -3 -20 45 -37 106 l-29 111 -120 57 -120
56 125 42 126 42 59 120 c33 66 62 120 65 120 3 0 14 -33 25 -72z"/>
<path d="M3375 10464 c-11 -3 -47 -10 -80 -16 -71 -13 -125 -34 -125 -48 0 -5
-6 -7 -14 -4 -42 16 -156 -99 -210 -213 -43 -88 -92 -256 -101 -340 -8 -82 3
-183 20 -177 6 3 17 -2 24 -10 10 -12 8 -17 -8 -26 -12 -6 -21 -18 -21 -28 1
-15 2 -15 15 2 14 18 15 18 25 -8 5 -14 12 -37 14 -49 9 -47 18 -77 25 -77 18
1 42 86 47 171 4 54 15 115 26 144 10 28 25 85 33 129 26 141 80 198 229 238
39 11 99 27 134 36 48 13 67 24 82 46 10 17 17 33 14 38 -3 4 0 16 5 25 8 15
10 12 7 -14 -2 -18 1 -33 6 -33 5 0 6 -4 3 -10 -3 -5 1 -10 9 -10 9 0 16 -4
16 -9 0 -5 7 -12 16 -15 10 -4 13 -2 8 6 -4 6 3 4 17 -5 13 -9 31 -17 41 -17
10 0 18 -4 18 -10 0 -5 7 -7 15 -4 13 5 41 -18 75 -63 8 -11 33 -31 55 -45 58
-37 69 -54 95 -143 12 -44 28 -91 35 -105 13 -26 69 -323 70 -372 1 -63 33 -9
43 72 8 67 7 111 -1 146 -6 24 -4 36 8 48 37 36 29 120 -27 296 -77 239 -188
371 -368 435 -52 19 -125 22 -144 6 -10 -8 -21 -7 -42 4 -28 15 -49 17 -89 9z
m-101 -52 c3 -5 -1 -9 -9 -9 -8 0 -12 4 -9 9 3 4 7 8 9 8 2 0 6 -4 9 -8z m-79
-38 c-16 -12 -16 -15 -1 -45 19 -37 19 -39 7 -39 -4 0 -13 15 -18 33 -5 17
-15 31 -21 30 -7 -2 -12 1 -12 7 0 11 26 27 47 27 13 0 13 -2 -2 -13z m-55
-29 c0 -2 -10 -10 -22 -16 -21 -11 -22 -11 -9 4 13 16 31 23 31 12z"/>
<path d="M9796 10158 c-30 -50 -267 -504 -272 -523 -8 -33 31 -75 70 -75 41 0
51 11 118 140 31 58 84 159 118 225 35 66 69 129 77 140 17 26 17 65 -3 93
-22 31 -88 31 -108 0z"/>
<path d="M10058 10163 c-8 -10 -31 -49 -51 -88 -20 -38 -61 -117 -91 -175
-146 -277 -149 -285 -110 -325 19 -18 78 -20 92 -2 15 17 268 499 276 525 4
12 0 34 -9 52 -13 25 -21 30 -54 30 -24 0 -43 -6 -53 -17z"/>
<path d="M10740 10081 c-5 -11 -10 -24 -10 -30 0 -16 30 -41 50 -41 22 0 50
25 50 45 0 41 -71 61 -90 26z"/>
<path d="M10910 9880 l0 -220 40 0 39 0 3 67 3 68 49 -68 c48 -65 51 -67 94
-67 l43 0 -22 33 c-13 17 -40 55 -62 84 l-38 52 50 64 c28 36 51 67 51 71 0 3
-17 6 -38 6 -34 0 -42 -6 -82 -57 l-45 -58 -3 123 -3 122 -39 0 -40 0 0 -220z"/>
<path d="M11560 9906 c0 -191 1 -195 24 -222 17 -21 33 -28 59 -28 20 0 39 3
42 6 12 11 -7 56 -26 61 -18 5 -19 16 -19 191 l0 186 -40 0 -40 0 0 -194z"/>
<path d="M11746 10084 c-9 -8 -16 -22 -16 -29 0 -21 29 -45 54 -45 28 0 46 18
46 45 0 43 -53 61 -84 29z"/>
<path d="M12277 10093 c-4 -3 -7 -102 -7 -220 l0 -213 40 0 40 0 0 65 c0 36 3
65 8 65 4 -1 28 -30 55 -65 45 -61 50 -65 87 -65 22 0 40 3 40 7 0 3 -25 39
-55 79 -30 40 -55 77 -55 81 0 4 23 37 50 72 28 36 50 66 50 68 0 2 -18 3 -40
3 -36 0 -43 -5 -81 -52 -23 -29 -45 -54 -50 -56 -5 -2 -9 51 -9 117 l0 121
-33 0 c-19 0 -37 -3 -40 -7z"/>
<path d="M10384 10061 c-78 -35 -109 -102 -102 -216 6 -96 32 -139 103 -171
31 -15 56 -34 63 -49 17 -37 69 -65 123 -65 25 0 48 2 51 5 2 3 3 18 0 35 -4
28 -7 30 -47 30 -23 0 -48 6 -54 13 -13 16 -5 27 20 27 26 0 89 59 105 97 32
76 9 219 -42 265 -55 48 -150 61 -220 29z m163 -85 c43 -50 42 -173 -2 -220
-20 -21 -33 -26 -75 -26 -60 0 -84 19 -101 82 -21 78 5 167 54 188 37 16 100
4 124 -24z"/>
<path d="M11290 9962 c-55 -27 -80 -74 -80 -147 0 -105 54 -159 157 -158 55 0
95 19 112 52 9 15 6 22 -15 35 -23 16 -26 16 -51 -4 -14 -11 -39 -20 -54 -20
-34 0 -69 31 -69 60 0 19 7 20 100 20 l100 0 0 46 c0 59 -24 100 -72 119 -50
20 -85 19 -128 -3z m102 -54 c9 -7 19 -23 23 -35 6 -22 4 -23 -59 -23 -74 0
-85 13 -40 49 30 24 53 26 76 9z"/>
<path d="M12050 9973 c-8 -3 -25 -15 -37 -26 l-23 -20 0 21 c0 19 -6 22 -40
22 l-40 0 0 -155 0 -155 40 0 40 0 0 105 c0 117 13 145 68 145 47 0 52 -14 52
-137 l0 -113 40 0 40 0 0 120 c0 71 -5 130 -12 145 -19 43 -80 65 -128 48z"/>
<path d="M10740 9815 l0 -155 40 0 40 0 0 155 0 155 -40 0 -40 0 0 -155z"/>
<path d="M11740 9815 l0 -155 40 0 40 0 0 155 0 155 -40 0 -40 0 0 -155z"/>
<path d="M14030 9854 c0 -45 0 -45 -22 -30 -32 22 -55 20 -83 -9 -27 -26 -33
-73 -15 -119 11 -31 52 -43 92 -28 16 6 28 6 28 1 0 -5 7 -9 15 -9 13 0 15 20
15 120 0 100 -2 120 -15 120 -11 0 -15 -12 -15 -46z m-10 -63 c26 -50 2 -111
-44 -111 -33 0 -46 19 -46 65 0 23 5 46 12 53 19 19 66 15 78 -7z"/>
<path d="M12720 9775 c0 -70 4 -115 10 -115 6 0 10 23 10 50 l0 50 50 0 c64 0
66 18 3 22 l-48 3 0 40 0 40 53 3 c75 4 65 22 -13 22 l-65 0 0 -115z"/>
<path d="M13270 9855 c0 -9 -7 -18 -15 -21 -8 -4 -15 -10 -15 -15 0 -5 7 -9
15 -9 12 0 15 -14 15 -63 0 -36 5 -68 12 -75 17 -17 68 -15 68 2 0 9 -7 12
-21 9 -29 -8 -39 12 -39 75 0 51 0 52 30 52 17 0 30 5 30 10 0 6 -12 10 -26
10 -17 0 -28 6 -31 20 -6 23 -23 27 -23 5z"/>
<path d="M3680 9839 c-63 -18 -91 -31 -100 -50 -18 -33 -5 -33 145 -1 98 21
114 19 152 -26 12 -14 25 -23 29 -19 11 10 -28 59 -62 79 -37 21 -119 30 -164
17z"/>
<path d="M12915 9818 c-24 -21 -28 -33 -28 -73 0 -57 25 -85 77 -85 40 0 76
24 60 40 -8 8 -14 7 -24 -5 -18 -22 -56 -18 -74 7 -9 12 -16 26 -16 30 0 5 27
8 60 8 l60 0 0 34 c0 38 -14 53 -57 62 -23 4 -36 0 -58 -18z m93 -42 c3 -13
-6 -16 -47 -16 -28 0 -51 4 -51 8 0 13 24 39 40 45 19 6 54 -16 58 -37z"/>
<path d="M13101 9827 c-23 -12 -30 -36 -7 -28 6 2 26 6 44 9 27 3 32 1 32 -15
0 -15 -12 -23 -47 -34 -41 -12 -48 -18 -51 -42 -2 -16 2 -35 9 -43 13 -16 75
-19 84 -4 4 6 13 5 25 -2 11 -7 23 -8 27 -4 4 5 2 11 -4 13 -9 3 -13 26 -13
68 0 55 -3 66 -22 79 -27 19 -45 20 -77 3z m69 -100 c0 -29 -18 -47 -46 -47
-25 0 -39 27 -23 46 9 11 20 15 62 23 4 0 7 -9 7 -22z"/>
<path d="M13636 9825 c-14 -8 -26 -10 -26 -4 0 5 -4 9 -10 9 -6 0 -10 -35 -10
-85 0 -69 3 -85 15 -85 12 0 15 14 15 63 0 68 10 87 47 87 13 0 23 4 23 9 0
17 -27 20 -54 6z"/>
<path d="M13745 9818 c-24 -21 -28 -33 -28 -73 0 -57 25 -85 77 -85 40 0 76
24 60 40 -8 8 -14 7 -24 -5 -18 -22 -56 -18 -74 7 -9 12 -16 26 -16 30 0 5 27
8 60 8 l60 0 0 34 c0 38 -14 53 -57 62 -23 4 -36 0 -58 -18z m93 -42 c3 -13
-6 -16 -47 -16 -28 0 -51 4 -51 8 0 13 24 39 40 45 19 6 54 -16 58 -37z"/>
<path d="M13390 9764 c0 -83 11 -104 53 -104 18 0 39 6 46 13 11 10 14 10 18
0 13 -36 23 -4 23 72 0 69 -3 85 -15 85 -12 0 -15 -14 -15 -64 0 -70 -12 -90
-52 -84 -21 3 -23 8 -26 76 -2 55 -6 72 -17 72 -12 0 -15 -15 -15 -66z"/>
<path d="M3147 9805 c-44 -15 -87 -51 -87 -73 0 -9 10 -6 31 12 26 22 40 26
98 26 37 0 91 -7 119 -15 40 -12 57 -13 73 -4 21 11 21 11 3 29 -11 11 -46 23
-84 29 -83 14 -106 13 -153 -4z"/>
<path d="M3643 9691 c-25 -18 -43 -39 -43 -50 0 -19 8 -21 142 -35 45 -5 162
29 136 39 -9 4 -15 12 -12 19 11 28 -36 51 -109 54 -67 4 -75 2 -114 -27z
m117 12 c0 -5 -16 -8 -35 -9 -22 0 -31 3 -23 8 16 10 58 10 58 1z m-85 -63 c3
-5 1 -10 -4 -10 -6 0 -11 5 -11 10 0 6 2 10 4 10 3 0 8 -4 11 -10z"/>
<path d="M3208 9703 c7 -3 16 -2 19 1 4 3 -2 6 -13 5 -11 0 -14 -3 -6 -6z"/>
<path d="M3270 9705 c0 -3 10 -10 23 -14 17 -8 14 -9 -18 -7 -22 1 -57 -3 -79
-11 -51 -17 -56 -16 -26 7 31 24 6 28 -28 4 -23 -16 -31 -40 -9 -28 6 3 -1 -5
-18 -19 l-30 -25 30 -7 c17 -4 44 -10 60 -14 17 -4 36 -6 43 -5 6 1 24 2 40 3
21 1 24 3 12 11 -12 8 -11 10 8 10 13 0 22 6 22 15 0 8 5 15 10 15 6 0 10 -4
10 -10 0 -5 13 -10 29 -10 25 0 28 3 24 25 -3 14 -19 33 -40 45 -32 19 -63 26
-63 15z"/>
<path d="M3560 9676 c0 -8 4 -17 9 -21 6 -3 9 4 8 15 -1 23 -17 28 -17 6z"/>
<path d="M4050 9674 c0 -8 7 -22 15 -30 13 -14 15 -13 15 9 0 14 -7 27 -15 31
-9 3 -15 0 -15 -10z"/>
<path d="M4060 9561 c0 -5 5 -13 10 -16 6 -3 10 -2 10 4 0 5 -4 13 -10 16 -5
3 -10 2 -10 -4z"/>
<path d="M6330 9477 c-3 -3 -41 -13 -85 -22 -315 -65 -600 -254 -782 -517
-114 -165 -193 -343 -249 -563 -25 -100 -27 -126 -27 -290 0 -197 9 -260 63
-424 35 -107 74 -187 136 -283 l44 -68 -217 0 c-200 0 -220 -2 -260 -21 -68
-33 -93 -85 -93 -192 l0 -86 51 2 c66 3 73 -14 20 -45 -33 -19 -38 -25 -29
-41 5 -10 28 -27 51 -38 41 -18 88 -19 1328 -19 1421 0 1327 -4 1387 64 37 43
45 80 41 184 -3 63 -9 86 -29 115 -35 51 -91 77 -169 77 l-63 0 84 89 c157
165 239 321 289 551 18 87 22 135 22 275 -1 182 -10 242 -58 375 -40 113 -40
110 2 186 36 66 38 73 38 159 -1 104 -20 157 -80 223 -58 65 -113 87 -221 87
-75 0 -100 -4 -142 -24 l-50 -24 -79 45 c-155 90 -358 162 -449 161 -174 -4
-537 -136 -713 -260 -184 -130 -348 -342 -420 -539 -37 -101 -91 -355 -91
-424 l0 -23 23 21 c29 28 41 28 34 1 -3 -12 3 -49 13 -83 l19 -61 -28 32 c-25
30 -28 31 -43 17 -15 -15 -12 -20 33 -60 l49 -44 -32 6 c-30 6 -78 47 -78 68
0 10 -30 35 -42 36 -5 0 -8 -34 -8 -75 0 -53 4 -75 12 -75 19 0 118 -52 118
-62 0 -9 -12 -11 -50 -9 l-25 2 25 -20 c14 -11 40 -23 58 -27 17 -3 32 -7 32
-9 0 -18 -36 -65 -50 -65 -10 0 -21 -4 -25 -9 -3 -6 -23 -4 -49 5 l-44 15 -11
90 c-8 66 -9 126 -1 227 16 200 35 318 79 487 37 141 195 397 311 503 149 138
290 223 490 299 83 32 219 72 245 73 l20 1 -20 12 c-20 11 -295 24 -305 14z
m1276 -329 c58 -21 100 -60 88 -80 -5 -7 -9 -17 -9 -23 -1 -5 -6 -9 -13 -7 -7
1 -12 -5 -12 -13 0 -8 -6 -15 -14 -15 -8 0 -22 -20 -32 -45 -9 -25 -19 -45
-21 -45 -2 0 -23 13 -46 29 -70 47 -140 81 -172 82 l-30 1 28 11 c27 11 35 31
18 42 -15 9 28 75 53 80 53 11 63 12 86 7 14 -3 48 -13 76 -24z m-173 -172 c4
-10 0 -12 -14 -9 -27 7 -34 23 -11 23 11 0 22 -6 25 -14z m-124 -36 c-8 -5 2
-18 32 -40 41 -30 47 -31 116 -26 83 5 82 6 55 -69 -22 -60 -39 -66 -89 -29
-58 42 -58 43 -32 53 20 8 13 10 -36 10 -69 1 -105 20 -105 55 0 31 29 64 53
58 13 -3 15 -7 6 -12z m-198 -78 c-7 -2 -18 1 -23 6 -8 8 -4 9 13 5 13 -4 18
-8 10 -11z m249 -89 c0 -15 10 -37 23 -51 l22 -24 -30 7 -30 7 25 -21 c28 -23
21 -27 -13 -10 -27 15 -73 59 -61 59 5 0 2 5 -6 10 -10 6 -11 10 -2 10 6 0 12
6 12 14 0 15 15 24 43 25 12 1 17 -7 17 -26z m170 -43 c0 -5 -4 -10 -10 -10
-5 0 -10 5 -10 10 0 6 5 10 10 10 6 0 10 -4 10 -10z m-1243 -51 c-33 -18 -37
-22 -25 -36 11 -14 13 -14 16 -1 4 20 124 42 222 40 41 0 126 -12 189 -26 65
-15 149 -26 195 -27 45 -1 74 -3 66 -6 -20 -6 -75 -80 -89 -122 -17 -52 -13
-92 14 -147 50 -101 136 -163 240 -173 l60 -6 -22 -22 c-15 -15 -36 -23 -60
-24 -31 0 -34 -2 -18 -9 17 -7 18 -9 2 -9 -9 -1 -31 -13 -47 -28 -17 -16 -37
-34 -45 -41 -10 -9 -12 -19 -5 -36 9 -24 8 -24 -81 -31 -50 -4 -93 -5 -96 -2
-3 3 2 25 12 49 15 40 21 105 17 168 -1 14 -1 34 -1 45 2 42 -4 129 -8 117 -3
-6 -9 -10 -14 -6 -5 3 -9 0 -9 -6 0 -6 -4 -8 -10 -5 -5 3 -10 1 -10 -4 0 -6
-4 -11 -8 -11 -11 0 -3 61 10 77 11 14 -11 25 -72 37 -59 12 -93 28 -78 37 10
6 8 12 -7 24 -19 14 -19 16 -2 29 16 12 16 14 1 20 -9 3 -21 3 -27 -1 -12 -8
-79 -11 -72 -4 2 2 -6 12 -18 21 -12 10 -22 26 -22 37 0 19 -18 23 -100 22
-60 0 -99 -9 -104 -22 -2 -6 -17 -24 -32 -39 l-27 -28 24 0 c14 0 27 7 30 15
4 8 10 15 16 15 5 0 7 -4 4 -9 -3 -5 4 -12 17 -15 20 -6 20 -7 5 -17 -22 -12
-24 -33 -3 -25 11 4 15 -1 15 -18 0 -34 28 -41 58 -14 l24 23 -7 -24 c-5 -15
-3 -26 5 -31 10 -6 8 -14 -8 -34 -19 -25 -21 -25 -31 -9 -6 10 -11 13 -11 6 0
-7 -12 -18 -27 -25 -25 -12 -30 -11 -50 10 -21 23 -22 23 -32 4 -6 -11 -24
-22 -41 -25 -41 -9 -46 -7 -42 15 2 10 -2 18 -8 18 -7 0 -9 8 -5 19 3 11 1 22
-5 26 -13 8 -13 51 2 78 10 19 7 19 -28 -7 -21 -16 -44 -36 -51 -44 -11 -13
-15 -12 -32 9 -11 13 -20 29 -21 35 0 26 149 137 229 170 69 29 89 30 38 3z
m1016 10 c33 -17 128 -91 123 -96 -9 -9 -76 27 -102 56 -30 35 -46 40 -38 14
5 -15 3 -15 -10 1 -29 35 -16 47 27 25z m-58 -9 c3 -5 1 -10 -4 -10 -6 0 -11
5 -11 10 0 6 2 10 4 10 3 0 8 -4 11 -10z m26 -120 c13 -10 21 -19 18 -20 -16
-1 -69 23 -69 31 0 15 27 10 51 -11z m-783 -91 c-7 -4 -18 -3 -25 3 -22 18
-14 28 12 16 18 -8 22 -14 13 -19z m-131 -11 c-3 -8 -6 -5 -6 6 -1 11 2 17 5
13 3 -3 4 -12 1 -19z m-388 -37 c27 -37 26 -44 -4 -77 -26 -28 -50 -65 -61
-97 -4 -12 -13 -17 -25 -14 -10 3 -20 -2 -24 -11 -3 -8 -8 -12 -11 -9 -3 3 0
14 7 25 10 17 10 23 0 36 -19 23 -30 20 -24 -6 4 -21 3 -22 -10 -5 -15 18 -43
23 -49 8 -1 -5 -11 -4 -21 4 -16 12 -9 20 85 94 57 44 106 81 110 81 4 0 16
-13 27 -29z m606 2 c19 -9 35 -22 35 -29 0 -7 6 -14 13 -17 10 -3 10 -9 0 -26
-17 -28 -16 -50 1 -57 8 -3 17 -11 20 -19 3 -9 -4 -12 -25 -11 -16 1 -29 -1
-29 -6 0 -4 6 -8 14 -8 7 0 16 -9 19 -20 5 -20 5 -20 -21 -2 -49 34 -82 36
-50 4 9 -9 9 -12 1 -12 -7 0 -14 4 -18 10 -3 5 -12 7 -20 3 -9 -3 -22 0 -30 7
-10 8 -15 9 -15 2 0 -15 -37 -13 -87 5 -42 14 -58 33 -28 33 8 0 12 6 9 14 -3
7 2 16 10 19 9 4 16 12 16 19 1 20 46 71 57 65 5 -4 25 5 44 18 41 29 40 29
84 8z m-441 -38 c3 -8 1 -15 -4 -15 -6 0 -10 7 -10 15 0 8 2 15 4 15 2 0 6 -7
10 -15z m-115 -174 c-15 -5 -22 6 -14 19 6 9 10 9 16 -1 5 -8 4 -15 -2 -18z
m709 -8 c-3 -21 -1 -48 3 -61 6 -15 5 -21 -1 -17 -6 3 -10 -5 -10 -19 0 -14 7
-29 16 -34 11 -6 14 -16 9 -31 -8 -25 -25 -28 -25 -3 0 9 -7 30 -15 46 -8 15
-15 36 -16 45 0 10 -2 11 -6 4 -10 -26 -24 -13 -18 16 5 22 2 32 -11 39 -17 9
-12 32 7 32 6 0 8 -4 4 -9 -13 -22 13 -18 29 5 27 35 39 30 34 -13z m541 -40
c-4 -32 -8 -71 -8 -88 -1 -20 -4 -26 -10 -17 -4 8 -12 13 -17 13 -11 -1 -11 4
5 58 15 53 29 91 34 91 2 0 0 -26 -4 -57z m-1285 32 c-4 -8 -11 -15 -16 -15
-6 0 -5 6 2 15 7 8 14 15 16 15 2 0 1 -7 -2 -15z m1390 -175 c5 -17 4 -21 -2
-11 -14 20 -30 5 -25 -23 6 -28 -10 -41 -26 -22 -19 22 -37 188 -24 209 6 10
64 -105 77 -153z m-1424 110 c-16 -31 -23 -18 -8 15 7 15 14 23 16 17 2 -6 -2
-21 -8 -32z m203 -14 c-4 -6 -8 -5 -11 2 -2 7 -9 9 -15 5 -7 -4 -6 1 2 11 11
13 16 14 22 4 4 -6 5 -17 2 -22z m211 22 c-5 -8 -2 -9 9 -5 18 7 33 -8 17 -18
-16 -10 -12 -23 10 -30 17 -5 18 -10 9 -26 -12 -24 -5 -31 79 -80 42 -25 56
-28 67 -19 11 9 18 9 30 -4 9 -9 23 -16 32 -16 9 0 13 -6 10 -14 -4 -11 1 -13
19 -10 l24 4 -19 -36 c-11 -20 -17 -42 -14 -50 8 -21 -4 -17 -43 12 -19 15
-34 23 -34 19 0 -4 -7 -2 -15 5 -8 7 -13 16 -10 20 3 4 -2 13 -9 19 -19 16
-93 4 -77 -12 6 -6 11 -15 11 -19 0 -4 -10 2 -22 15 l-23 22 -3 -26 c-3 -30
-23 -39 -89 -43 -28 -2 -44 2 -47 11 -6 15 -26 18 -26 4 0 -5 8 -17 17 -27 17
-17 16 -17 -12 -10 -38 10 -102 61 -120 97 -20 37 -19 42 6 28 16 -8 23 -8 29
0 4 7 15 9 25 5 15 -6 17 -4 11 19 -5 22 -3 27 13 27 13 0 20 9 23 29 4 26 0
32 -34 47 -50 22 -57 34 -18 29 16 -2 62 7 102 20 40 13 74 24 76 24 2 1 0 -4
-4 -11z m806 -158 c0 -5 -2 -10 -4 -10 -3 0 -8 5 -11 10 -3 6 -1 10 4 10 6 0
11 -4 11 -10z m-514 -31 c4 -8 1 -8 -14 0 -12 6 -24 16 -28 22 -4 8 -1 8 14 0
12 -6 24 -16 28 -22z m759 -19 c3 -5 1 -10 -4 -10 -6 0 -11 5 -11 10 0 6 2 10
4 10 3 0 8 -4 11 -10z m-890 -30 c3 -5 1 -10 -4 -10 -6 0 -11 5 -11 10 0 6 2
10 4 10 3 0 8 -4 11 -10z m638 -37 c16 6 29 -31 32 -88 1 -32 -18 -60 -35 -50
-5 3 -10 -1 -10 -9 0 -9 -4 -16 -10 -16 -9 0 -14 18 -13 48 1 8 -7 22 -18 33
-19 19 -18 35 9 77 11 16 17 20 23 11 4 -6 14 -9 22 -6z m-1201 -15 c-7 -7
-12 -8 -12 -2 0 14 12 26 19 19 2 -3 -1 -11 -7 -17z m592 -4 c4 -11 1 -14 -11
-12 -9 2 -18 9 -21 16 -6 18 25 15 32 -4z m-210 -15 c-4 -8 1 -9 17 -4 19 5
21 4 9 -4 -20 -14 -80 -14 -80 0 0 5 4 7 10 4 5 -3 18 -1 27 4 23 13 26 13 17
0z m401 -1 c5 4 5 2 2 -5 -4 -6 7 -22 25 -36 28 -22 30 -28 18 -42 -7 -9 -9
-15 -4 -14 20 3 35 -2 29 -10 -3 -5 4 -12 15 -16 11 -4 18 -11 14 -16 -3 -6 1
-18 10 -28 9 -10 14 -25 11 -33 -4 -10 1 -17 14 -21 13 -3 21 0 21 8 0 14 73
16 86 2 13 -12 24 -7 24 11 0 14 4 12 20 -8 11 -15 17 -33 14 -44 -5 -15 -3
-18 10 -13 13 5 15 3 7 -12 -7 -12 -6 -22 2 -30 9 -9 9 -16 -1 -32 -7 -11 -10
-24 -7 -28 3 -5 -4 -20 -14 -32 -18 -22 -20 -22 -26 -6 -4 9 -14 17 -22 17 -8
0 -11 -4 -8 -10 9 -15 -4 -12 -21 4 -8 8 -11 23 -8 33 5 15 4 16 -5 3 -10 -13
-16 -10 -40 18 -17 20 -27 41 -24 55 2 17 -8 30 -42 56 -28 21 -51 31 -61 27
-15 -6 -15 -4 1 20 14 22 15 28 4 35 -20 13 -31 11 -23 -3 4 -8 3 -10 -2 -5
-5 5 -9 12 -9 17 0 4 -20 27 -45 50 -25 23 -38 39 -30 35 8 -4 4 3 -9 14 -30
27 -21 37 19 21 17 -7 33 -10 37 -7 3 4 -2 9 -11 13 -9 3 -16 10 -16 15 0 6 8
6 19 0 10 -6 22 -7 26 -3z m-641 -13 c4 -13 16 -14 55 -9 51 7 55 5 64 -37 6
-23 2 -28 -32 -44 -22 -9 -41 -26 -44 -36 -6 -21 -37 -26 -37 -6 0 6 -5 4 -11
-5 -5 -10 -14 -18 -19 -18 -6 0 -10 8 -10 18 -1 9 -7 34 -14 55 -8 22 -11 49
-7 65 7 25 8 26 19 7 11 -19 11 -19 12 3 0 25 15 30 24 7z m1327 -92 c-8 -14
-10 -6 -7 32 6 64 8 69 13 23 2 -21 -1 -46 -6 -55z m-321 31 c0 -21 -17 -17
-23 5 -3 14 -1 18 9 14 8 -3 14 -11 14 -19z m-622 -37 c2 -22 -1 -37 -8 -37
-7 0 -8 -6 -2 -17 5 -10 7 -23 5 -29 -2 -6 14 -21 36 -32 39 -21 40 -21 36 -1
-2 10 0 19 5 19 10 0 23 -35 25 -69 0 -13 9 -29 20 -37 25 -18 39 -18 31 2 -4
9 -2 13 5 8 6 -3 31 13 55 37 24 24 44 38 44 31 0 -7 -7 -15 -15 -18 -8 -4
-15 -15 -15 -25 0 -11 -7 -22 -16 -26 -8 -3 -13 -12 -10 -20 3 -8 -2 -16 -12
-19 -9 -3 -25 -10 -36 -15 -13 -7 -16 -7 -11 0 11 19 -11 12 -31 -10 -20 -22
-60 -47 -51 -32 3 5 1 15 -4 23 -8 11 -12 12 -15 3 -8 -17 -45 23 -38 41 3 8
-1 20 -9 27 -13 12 -13 18 -1 41 8 15 10 29 5 32 -5 3 -12 -1 -15 -10 -5 -12
-14 -15 -35 -11 -15 3 -33 1 -38 -4 -8 -8 -18 -7 -33 1 -18 10 -24 9 -32 -1
-16 -24 3 32 27 81 29 57 60 90 85 90 11 0 20 5 20 11 0 6 6 9 13 7 6 -3 13
-21 15 -41z m-918 -3 c0 -9 -44 14 -48 25 -3 8 5 7 22 -4 14 -10 26 -19 26
-21z m1670 26 c0 -6 -9 -29 -20 -51 -18 -34 -23 -38 -40 -29 -16 9 -22 7 -26
-5 -8 -20 -17 -19 -32 6 -12 19 -11 20 8 14 22 -7 60 18 60 40 0 15 21 35 37
35 7 0 13 -5 13 -10z m50 1 c0 -5 -9 -19 -21 -32 l-20 -24 7 25 c4 14 12 28
18 32 14 10 16 10 16 -1z m-1360 -40 c0 -23 -25 -46 -34 -32 -7 11 14 51 26
51 5 0 8 -8 8 -19z m110 -1 c0 -5 -5 -10 -11 -10 -5 0 -7 5 -4 10 3 6 8 10 11
10 2 0 4 -4 4 -10z m1330 1 c0 -4 -10 -21 -22 -36 l-21 -27 24 6 c23 7 23 7 4
-9 -20 -15 -19 -16 3 -21 12 -4 22 -10 22 -13 0 -4 -30 -31 -66 -61 -62 -49
-66 -51 -60 -26 6 23 4 26 -21 26 -22 0 -25 2 -13 10 12 8 12 10 -5 11 -11 0
-14 3 -7 6 6 2 10 9 6 14 -6 11 83 99 101 99 7 0 18 7 25 15 14 16 30 20 30 6z
m-1796 -62 c5 -4 0 -6 -11 -3 -16 5 -20 0 -20 -25 0 -16 3 -30 6 -29 21 2 31
-4 31 -21 0 -10 11 -26 23 -34 16 -10 23 -23 21 -39 -1 -13 -3 -26 -3 -30 -1
-5 -8 -8 -16 -8 -8 0 -17 -14 -20 -32 -5 -28 -11 -33 -36 -35 l-29 -2 0 140 0
140 23 -6 c12 -4 26 -11 31 -16z m1846 -35 c0 -8 -5 -12 -10 -9 -6 4 -8 11 -5
16 9 14 15 11 15 -7z m-1626 -33 c-10 -17 -22 -31 -27 -31 -5 0 -3 10 5 23 8
12 18 28 22 35 5 7 10 11 13 8 3 -2 -3 -18 -13 -35z m190 -26 c21 -25 45 -45
55 -45 10 0 21 -3 25 -7 4 -5 12 -9 17 -9 5 -1 13 -2 19 -3 5 0 7 -7 4 -14 -3
-9 8 -17 30 -24 28 -9 36 -8 40 3 3 8 13 14 22 14 13 0 14 -3 4 -15 -12 -14
-6 -35 10 -35 5 0 7 7 4 15 -7 17 11 21 21 5 3 -5 13 -10 21 -10 8 0 25 -8 38
-17 22 -17 22 -19 8 -56 l-15 -38 -68 2 c-43 1 -67 6 -66 13 2 12 -18 12 -48
0 -18 -7 -19 -6 -6 9 17 21 7 34 -13 18 -8 -7 -23 -11 -34 -9 -10 2 -27 -4
-37 -12 -15 -13 -24 -10 -84 21 -47 24 -66 40 -66 54 -1 11 -4 26 -9 33 -4 7
-3 19 4 27 13 16 -3 30 -25 21 -10 -3 -7 8 8 40 18 36 26 43 45 40 14 -2 26 2
29 10 9 25 30 15 67 -31z m266 -1 c0 -9 5 -12 13 -8 6 5 5 -3 -5 -16 -12 -20
-23 -24 -49 -22 -32 3 -59 17 -59 32 0 8 55 27 83 29 9 1 17 -6 17 -15z m-597
-94 c3 -11 1 -20 -4 -20 -5 0 -9 9 -9 20 0 11 2 20 4 20 2 0 6 -9 9 -20z
m1631 -62 c-4 -7 -8 -26 -8 -43 -1 -27 -4 -30 -38 -33 -21 -2 -38 0 -38 4 0
13 65 82 78 83 8 1 10 -4 6 -11z m-1489 -68 c3 -5 -1 -10 -9 -10 -9 0 -16 5
-16 10 0 6 4 10 9 10 6 0 13 -4 16 -10z m600 0 c3 -5 1 -10 -4 -10 -6 0 -11 5
-11 10 0 6 2 10 4 10 3 0 8 -4 11 -10z m775 6 c0 -3 -4 -8 -10 -11 -5 -3 -10
-1 -10 4 0 6 5 11 10 11 6 0 10 -2 10 -4z m-1420 -151 c0 -19 -20 -29 -32 -17
-15 15 -2 43 17 36 8 -3 15 -12 15 -19z m1267 -9 c-4 -9 -11 -16 -17 -16 -17
0 -24 31 -9 41 18 11 34 -5 26 -25z m-617 -63 c12 -35 26 -63 30 -63 5 0 23
18 40 40 24 30 28 40 16 40 -9 0 -19 -7 -22 -15 -9 -23 -26 -18 -22 8 3 19 10
22 51 25 55 4 59 -6 22 -54 -14 -18 -25 -35 -25 -38 0 -13 24 -5 36 12 12 15
13 14 14 -10 l0 -28 -86 0 c-82 0 -85 1 -79 21 6 18 3 20 -22 17 -20 -2 -27
-8 -25 -20 2 -13 -4 -18 -23 -18 -24 0 -34 13 -16 24 7 5 15 23 51 120 9 25
13 27 24 15 7 -8 23 -42 36 -76z m340 59 c0 -24 4 -28 27 -27 53 0 65 -87 16
-113 -10 -5 -33 -7 -50 -5 l-33 5 0 62 c0 33 -3 71 -6 84 -5 19 -2 22 20 22
22 0 26 -4 26 -28z m350 -23 c0 -31 4 -48 10 -44 6 3 10 15 10 26 0 14 7 19
25 19 30 0 32 -16 4 -39 l-21 -16 26 -28 c32 -34 32 -37 2 -37 -13 0 -31 10
-40 23 l-17 22 6 -22 c6 -20 2 -23 -22 -23 l-28 0 0 85 c0 81 1 85 23 85 20 0
22 -5 22 -51z m-1564 25 c-4 -9 -3 -33 0 -53 l7 -36 17 50 c9 28 23 50 30 50
7 0 21 -22 30 -50 l16 -49 11 42 c6 23 7 42 2 42 -5 0 -9 5 -9 10 0 6 14 10
30 10 31 0 37 -9 19 -27 -6 -6 -19 -37 -29 -69 -23 -75 -41 -80 -61 -17 l-15
48 -15 -45 c-23 -67 -41 -63 -68 17 -12 37 -25 74 -28 81 -3 8 7 12 32 12 30
0 36 -3 31 -16z m-93 -25 c23 -28 22 -64 -3 -89 -22 -22 -36 -25 -44 -11 -3 4
-16 6 -29 4 -31 -6 -42 19 -24 55 9 20 21 28 45 30 l32 3 -6 -40 c-7 -46 11
-59 22 -16 15 61 -65 103 -100 53 -46 -66 16 -144 85 -108 12 7 19 7 19 1 0
-17 -62 -29 -93 -18 -33 11 -47 34 -47 80 0 74 96 112 143 56z m312 -52 c0
-26 3 -47 8 -47 4 0 7 -4 7 -10 0 -5 -17 -10 -37 -10 -29 0 -34 3 -25 12 14
14 16 78 2 78 -17 0 -11 18 8 23 31 8 37 1 37 -46z m133 40 c6 -7 12 -30 14
-52 2 -27 8 -40 18 -40 19 0 27 65 9 76 -21 12 -6 20 49 25 58 5 66 -2 75 -73
5 -42 4 -43 -23 -43 -27 0 -27 1 -22 45 4 36 2 45 -11 45 -10 0 -16 -12 -19
-35 -2 -19 0 -35 4 -35 4 0 8 -4 8 -10 0 -6 -30 -10 -69 -10 l-69 0 6 45 c4
38 2 45 -13 45 -15 0 -17 -7 -13 -45 5 -43 4 -45 -21 -45 -25 0 -26 2 -26 55
0 58 1 60 62 63 17 1 36 -4 41 -11z m276 -9 c23 -33 20 -38 -24 -38 -41 0 -46
-5 -31 -29 6 -9 19 -11 42 -7 l34 7 -24 -21 c-13 -11 -29 -20 -36 -20 -25 0
-57 36 -57 63 0 59 66 89 96 45z m124 -1 c3 -14 -2 -18 -20 -15 -21 3 -23 0
-22 -39 1 -40 -1 -43 -25 -43 -25 0 -26 3 -26 55 0 59 4 62 60 61 20 -1 31 -7
33 -19z m324 -24 c2 -35 7 -48 18 -48 19 0 26 55 9 66 -16 9 -12 14 19 23 21
7 22 5 22 -43 0 -28 5 -51 10 -51 6 0 10 -4 10 -9 0 -13 -93 -21 -107 -9 -7 6
-13 28 -13 49 0 22 -4 39 -10 39 -5 0 -10 4 -10 9 0 8 15 15 42 20 4 0 8 -20
10 -46z m270 0 c2 -35 7 -48 18 -48 19 0 26 55 9 66 -16 9 -12 14 19 23 21 7
22 5 22 -43 0 -28 5 -51 10 -51 6 0 10 -4 10 -9 0 -13 -93 -21 -107 -9 -7 6
-13 28 -13 49 0 22 -4 39 -10 39 -5 0 -10 4 -10 9 0 8 15 15 42 20 4 0 8 -20
10 -46z m148 3 c0 -24 3 -51 6 -60 5 -12 -1 -16 -24 -16 -29 0 -30 1 -25 40 3
24 1 46 -6 54 -10 11 -8 15 6 19 40 10 43 8 43 -37z m254 22 c23 -33 20 -38
-24 -38 -41 0 -46 -5 -31 -29 6 -9 19 -11 42 -7 l34 7 -24 -21 c-13 -11 -29
-20 -36 -20 -25 0 -57 36 -57 63 0 59 66 89 96 45z"/>
<path d="M6239 8583 c-13 -16 -12 -17 4 -4 9 7 17 15 17 17 0 8 -8 3 -21 -13z"/>
<path d="M6200 8569 c0 -5 5 -7 10 -4 6 3 10 8 10 11 0 2 -4 4 -10 4 -5 0 -10
-5 -10 -11z"/>
<path d="M6825 8570 c-3 -5 -1 -10 4 -10 6 0 11 5 11 10 0 6 -2 10 -4 10 -3 0
-8 -4 -11 -10z"/>
<path d="M6725 8552 c-11 -9 -28 -26 -37 -37 -16 -19 -15 -20 15 -19 65 2 75
4 101 25 21 17 24 24 15 35 -16 19 -70 17 -94 -4z"/>
<path d="M6287 8473 c-4 -3 -7 -11 -7 -17 0 -6 5 -5 12 2 6 6 9 14 7 17 -3 3
-9 2 -12 -2z"/>
<path d="M6316 8417 c-8 -31 -7 -39 3 -33 12 8 21 45 11 51 -4 3 -10 -5 -14
-18z"/>
<path d="M6946 8005 c4 -8 10 -12 15 -9 11 6 2 24 -11 24 -5 0 -7 -7 -4 -15z"/>
<path d="M6605 8280 c3 -5 11 -10 16 -10 6 0 7 5 4 10 -3 6 -11 10 -16 10 -6
0 -7 -4 -4 -10z"/>
<path d="M6441 7954 c5 -7 20 -14 32 -17 20 -5 20 -5 5 7 -10 7 -16 15 -13 17
2 3 -4 5 -15 5 -13 0 -16 -4 -9 -12z"/>
<path d="M6833 7643 c9 -9 20 -13 24 -9 4 4 1 11 -7 16 -25 16 -35 11 -17 -7z"/>
<path d="M6346 7111 c-4 -7 -5 -15 -2 -18 9 -9 19 4 14 18 -4 11 -6 11 -12 0z"/>
<path d="M6740 7075 c0 -37 22 -49 34 -19 9 23 -2 54 -20 54 -9 0 -14 -11 -14
-35z"/>
<path d="M5361 7102 c-13 -25 -14 -42 -2 -42 10 0 25 50 17 57 -2 3 -9 -4 -15
-15z"/>
<path d="M6100 7110 c0 -5 7 -10 16 -10 8 0 12 5 9 10 -3 6 -10 10 -16 10 -5
0 -9 -4 -9 -10z"/>
<path d="M7220 7110 c0 -5 7 -10 16 -10 8 0 12 5 9 10 -3 6 -10 10 -16 10 -5
0 -9 -4 -9 -10z"/>
<path d="M3558 9398 c-2 -6 -19 -17 -38 -23 -41 -14 -48 -30 -21 -44 14 -8 36
-7 83 5 69 18 88 29 88 52 0 13 -3 12 -20 -3 -20 -18 -21 -18 -43 3 -26 24
-43 28 -49 10z"/>
<path d="M3408 9379 c-30 -17 -20 -31 20 -28 48 3 55 8 41 25 -13 16 -37 18
-61 3z"/>
<path d="M4022 9360 c-8 -16 -11 -34 -7 -40 3 -5 1 -10 -4 -10 -6 0 -11 -9
-11 -20 0 -10 -6 -23 -12 -27 -7 -4 -21 -33 -31 -63 -28 -81 -67 -138 -160
-228 -113 -111 -140 -131 -197 -153 -67 -25 -112 -24 -199 6 -150 51 -320 225
-367 377 -9 31 -22 54 -27 51 -5 -3 -13 1 -18 8 -7 11 -9 10 -9 -5 0 -19 -1
-19 -20 -1 -13 11 -18 25 -15 37 4 11 -3 27 -21 45 l-27 27 -13 -27 c-29 -54
-86 -255 -94 -332 -6 -44 -10 -150 -11 -237 0 -86 -4 -169 -8 -184 -6 -22 -18
-30 -81 -50 -41 -14 -112 -34 -158 -45 -104 -25 -133 -38 -131 -58 1 -9 1 -62
0 -117 l-1 -102 -60 -4 c-109 -8 -155 -65 -155 -193 0 -93 19 -137 75 -170 35
-20 46 -20 1190 -20 l1155 0 35 22 c56 35 70 68 70 168 0 56 -5 96 -15 115
-18 35 -63 68 -103 76 -36 7 -40 24 -37 150 3 107 8 102 -120 129 -43 10 -114
33 -156 51 -43 19 -81 34 -85 34 -4 0 14 -16 39 -35 85 -65 110 -140 91 -279
l-7 -46 -67 0 -67 0 -12 60 c-7 33 -16 62 -21 65 -6 4 -10 34 -10 69 0 35 -4
76 -9 92 -11 36 -37 160 -51 239 -5 34 -7 108 -4 171 4 62 2 160 -4 220 -6 60
-14 144 -17 187 -4 42 -10 77 -13 77 -4 0 -13 -13 -20 -30z m-1155 -312 c-2
-24 -4 -7 -4 37 0 44 2 63 4 43 2 -21 2 -57 0 -80z m-10 -165 c-2 -21 -4 -6
-4 32 0 39 2 55 4 38 2 -18 2 -50 0 -70z m370 1 c53 -51 118 -94 142 -94 6 0
33 -13 60 -30 44 -25 129 -57 181 -67 20 -3 80 16 80 27 0 5 16 18 36 30 27
17 38 20 47 11 15 -15 21 -151 10 -216 -5 -31 -4 -78 3 -125 7 -41 13 -66 14
-55 3 36 21 -36 21 -88 0 -55 -11 -81 -22 -51 -7 17 -8 17 -8 1 -1 -16 -20
-17 -303 -15 l-303 3 -1 150 c-1 83 -7 184 -13 225 -12 81 -28 324 -23 340 7
19 21 10 79 -46z m-370 -111 c-3 -10 -5 -2 -5 17 0 19 2 27 5 18 2 -10 2 -26
0 -35z m1099 -538 c5 -20 3 -27 -4 -20 -12 12 -32 105 -31 143 1 24 13 -16 35
-123z m49 47 c3 -20 8 -45 11 -54 3 -12 0 -18 -10 -18 -10 0 -18 18 -26 57 -7
32 -15 64 -18 73 -4 12 -1 11 15 -3 12 -10 24 -35 28 -55z m-1175 -59 c-10
-16 -11 -15 -6 7 3 14 6 34 7 45 1 13 3 11 6 -7 2 -15 -1 -35 -7 -45z m203
-197 c25 -67 42 -73 41 -16 0 22 4 40 10 41 6 0 23 2 38 4 37 5 55 -13 61 -62
l5 -43 -89 0 c-80 0 -90 2 -87 18 2 11 -5 18 -20 20 -20 3 -23 0 -17 -17 5
-18 2 -21 -19 -21 -25 0 -35 13 -17 24 5 3 11 16 15 29 13 51 38 99 47 90 5
-5 19 -35 32 -67z m457 54 c0 -6 7 -27 16 -48 l16 -37 18 45 c13 34 23 46 41
48 23 3 24 1 24 -68 l0 -70 -29 0 c-24 0 -26 2 -17 14 7 8 11 27 9 43 -4 27
-4 27 -22 -14 -10 -24 -24 -43 -31 -43 -7 0 -20 17 -29 38 l-17 37 5 -37 c4
-36 3 -38 -22 -38 -20 0 -23 3 -14 12 14 14 16 108 2 108 -5 0 -10 5 -10 10 0
6 14 10 30 10 17 0 30 -5 30 -10z m-592 -16 c25 -17 31 -71 10 -92 -7 -7 -8
-12 -4 -12 5 0 3 -7 -4 -15 -18 -22 -76 -19 -100 5 -28 28 -26 75 5 105 28 29
61 32 93 9z m403 -25 c5 -8 9 -27 9 -43 l0 -30 20 22 c12 12 27 22 35 22 17 0
20 16 6 24 -5 3 -11 -1 -15 -9 -7 -19 -26 -19 -26 0 0 8 9 19 20 25 33 18 57
-3 62 -52 3 -24 4 -44 4 -45 -2 -2 -35 -3 -141 -4 l-70 0 0 50 c0 54 4 58 58
55 16 0 33 -7 38 -15z m407 5 c28 -19 28 -58 1 -85 -22 -22 -55 -19 -76 9 -19
23 -16 40 12 67 28 29 33 30 63 9z m131 0 c5 -5 11 -28 14 -51 l5 -43 -56 0
-57 0 0 50 c0 36 4 50 15 53 26 5 71 0 79 -9z m107 -9 c9 -14 14 -34 11 -45
-3 -11 -1 -20 4 -20 5 0 9 -4 9 -9 0 -10 -68 -20 -87 -13 -16 5 -17 52 -2 52
8 0 7 5 -2 16 -11 14 -10 18 6 30 27 20 42 17 61 -11z m110 11 c16 -12 17 -17
6 -28 -11 -11 -15 -10 -23 5 -14 24 -29 12 -29 -25 0 -29 2 -30 30 -24 37 7
40 -11 4 -24 -58 -23 -99 45 -54 90 24 24 39 25 66 6z m102 -2 c31 -22 30 -69
-3 -90 -23 -15 -27 -15 -50 0 -33 21 -34 68 -3 90 12 9 25 16 28 16 3 0 16 -7
28 -16z"/>
<path d="M2980 8020 c0 -5 5 -10 10 -10 6 0 10 5 10 10 0 6 -4 10 -10 10 -5 0
-10 -4 -10 -10z"/>
<path d="M3120 8001 c0 -17 4 -32 9 -36 12 -7 23 28 15 49 -10 26 -24 18 -24
-13z"/>
<path d="M2833 8060 c-43 -18 -39 -100 5 -114 10 -4 30 -2 43 3 25 10 22 12
-35 15 -10 1 -23 8 -29 17 -16 25 16 69 49 69 25 0 26 -2 20 -35 -4 -22 -3
-35 4 -35 19 0 12 68 -9 80 -22 11 -19 11 -48 0z"/>
<path d="M2847 8024 c-4 -4 -7 -17 -7 -28 1 -19 1 -20 11 -3 11 19 8 43 -4 31z"/>
<path d="M3242 7998 c2 -18 8 -33 13 -33 6 0 11 15 13 33 3 24 -1 32 -13 32
-12 0 -16 -8 -13 -32z"/>
<path d="M3360 7980 c0 -5 5 -10 10 -10 6 0 10 5 10 10 0 6 -4 10 -10 10 -5 0
-10 -4 -10 -10z"/>
<path d="M3665 8027 c-9 -22 -2 -62 10 -60 6 1 11 14 13 29 4 32 -14 56 -23
31z"/>
<path d="M3790 8001 c0 -17 4 -32 9 -36 12 -7 23 28 15 49 -10 26 -24 18 -24
-13z"/>
<path d="M3900 8020 c0 -5 5 -10 10 -10 6 0 10 5 10 10 0 6 -4 10 -10 10 -5 0
-10 -4 -10 -10z"/>
<path d="M3900 7980 c0 -5 5 -10 10 -10 6 0 10 5 10 10 0 6 -4 10 -10 10 -5 0
-10 -4 -10 -10z"/>
<path d="M4117 8033 c-12 -11 -7 -50 7 -62 11 -10 16 -8 21 8 11 36 -9 74 -28
54z"/>
<path d="M3235 9314 c-22 -18 -35 -34 -30 -34 14 1 81 57 75 63 -3 3 -23 -10
-45 -29z"/>
<path d="M3789 9306 c14 -14 26 -24 29 -22 7 8 -8 25 -31 37 -21 11 -21 10 2
-15z"/>
<path d="M3765 9271 c-9 -8 -195 -22 -275 -21 -139 2 -180 0 -214 -12 l-39
-14 34 -32 c20 -19 44 -32 59 -31 14 0 19 3 13 6 -7 2 -13 11 -13 19 0 9 4 13
9 10 5 -3 11 1 15 9 4 12 31 14 158 12 l153 -3 3 -27 c2 -15 8 -27 13 -27 34
0 119 73 119 102 0 19 -20 24 -35 9z"/>
<path d="M3217 9256 c-4 -10 -5 -21 -2 -24 9 -9 17 6 13 25 -3 17 -4 17 -11
-1z"/>
<path d="M3425 9130 c-3 -5 3 -10 15 -10 12 0 18 5 15 10 -3 6 -10 10 -15 10
-5 0 -12 -4 -15 -10z"/>
<path d="M3580 9130 c0 -5 5 -10 11 -10 5 0 7 5 4 10 -3 6 -8 10 -11 10 -2 0
-4 -4 -4 -10z"/>
<path d="M3490 9119 c-22 -6 -20 -7 13 -8 38 -1 47 3 25 11 -7 3 -24 1 -38 -3z"/>
<path d="M21537 8933 c-4 -3 -7 -37 -7 -74 0 -78 10 -89 77 -89 55 0 66 11 71
73 6 81 -6 97 -77 97 -32 0 -61 -3 -64 -7z"/>
<path d="M20617 8903 c-12 -11 -8 -88 5 -101 7 -7 42 -12 85 -12 l73 0 0 -270
0 -270 -90 0 c-87 0 -91 -1 -102 -25 -7 -17 -8 -35 -2 -57 l10 -33 258 -3
c182 -2 263 1 272 9 15 12 19 76 6 96 -5 8 -42 13 -102 15 l-95 3 -3 328 -2
327 -153 0 c-85 0 -157 -3 -160 -7z"/>
<path d="M22726 8894 c-10 -26 -7 -79 6 -92 7 -7 29 -12 50 -12 l38 0 -2 -267
-3 -268 -35 -5 c-41 -6 -60 -43 -44 -87 l9 -28 137 -3 137 -3 6 24 c4 13 5 39
3 58 -2 29 -7 34 -30 37 -28 3 -28 4 -28 79 0 97 16 147 61 195 45 47 87 52
118 12 19 -24 21 -40 21 -155 l0 -128 -27 -3 c-34 -4 -50 -48 -34 -91 l11 -28
137 3 138 3 0 55 0 55 -37 3 -36 3 -4 163 c-3 157 -4 164 -30 203 -32 48 -85
75 -148 75 -54 0 -94 -18 -138 -63 l-32 -33 0 141 c0 78 -3 148 -6 157 -5 13
-25 16 -119 16 -94 0 -114 -3 -119 -16z"/>
<path d="M14842 8838 c-8 -8 -12 -45 -12 -100 l0 -88 -64 0 c-77 0 -88 -10
-84 -77 l3 -48 73 -3 72 -3 0 -123 c0 -114 2 -126 28 -176 36 -72 87 -100 181
-100 74 0 192 37 225 69 18 18 18 24 7 61 -7 23 -19 44 -28 47 -8 3 -51 -6
-94 -20 -97 -33 -113 -33 -144 -2 -24 23 -25 31 -25 135 l0 110 120 0 c112 0
120 1 131 21 13 26 5 89 -13 101 -7 4 -64 8 -125 8 l-113 0 0 88 c0 55 -4 92
-12 100 -7 7 -35 12 -63 12 -28 0 -56 -5 -63 -12z"/>
<path d="M17770 8829 c-86 -39 -122 -97 -122 -195 0 -114 56 -167 217 -204
118 -27 161 -46 175 -79 14 -34 0 -75 -31 -92 -34 -18 -124 -14 -162 8 -17 11
-50 42 -71 71 -32 43 -44 52 -70 52 -51 0 -56 -13 -56 -136 0 -130 4 -137 77
-132 38 2 50 8 57 24 l10 22 40 -22 c28 -14 65 -22 114 -25 161 -8 251 70 252
216 0 77 -11 108 -58 156 -39 40 -100 64 -225 87 -109 20 -144 64 -92 115 19
20 34 25 74 25 67 0 96 -13 153 -66 49 -45 66 -51 99 -34 17 10 19 22 19 115
0 118 -2 120 -86 113 -32 -2 -40 -7 -42 -25 -2 -13 -4 -23 -5 -23 -1 0 -24 11
-51 25 -63 32 -151 34 -216 4z"/>
<path d="M19983 8843 c-9 -3 -13 -33 -13 -99 l0 -94 -62 0 c-76 0 -87 -6 -94
-52 -10 -61 6 -77 84 -80 l67 -3 5 -135 c6 -145 16 -179 65 -219 69 -53 198
-55 309 -3 36 17 69 38 72 47 4 9 -1 34 -11 56 -21 46 -40 49 -110 19 -76 -33
-116 -35 -148 -10 -27 21 -27 23 -27 135 l0 114 123 3 122 3 3 48 c5 73 -2 77
-134 77 l-114 0 0 81 c0 108 -7 119 -73 118 -29 0 -58 -3 -64 -6z"/>
<path d="M23653 8843 c-9 -3 -13 -33 -13 -99 l0 -94 -62 0 c-76 0 -87 -6 -94
-52 -10 -61 6 -77 84 -80 l67 -3 5 -135 c6 -145 16 -179 65 -219 69 -53 198
-55 309 -3 36 17 69 38 72 47 4 9 -1 34 -11 56 -21 46 -40 49 -110 19 -76 -33
-116 -35 -148 -10 -27 21 -27 23 -27 135 l0 114 123 3 122 3 3 48 c5 73 -2 77
-134 77 l-114 0 0 81 c0 108 -7 119 -73 118 -29 0 -58 -3 -64 -6z"/>
<path d="M9547 8833 c-13 -12 -8 -298 5 -311 7 -7 28 -12 48 -12 53 0 60 13
60 112 l0 88 55 0 55 0 0 -230 0 -229 -77 -3 -78 -3 0 -55 0 -55 224 -3 c156
-2 228 1 237 9 17 14 18 81 2 97 -7 7 -42 12 -85 12 l-73 0 0 230 0 230 55 0
55 0 0 -88 c0 -100 7 -112 61 -112 63 0 69 14 69 161 0 72 -5 139 -10 150 -10
18 -24 19 -304 19 -161 0 -296 -3 -299 -7z"/>
<path d="M12440 8821 c-23 -45 -4 -101 35 -101 l25 0 0 -182 c0 -101 -3 -207
-6 -235 -6 -50 -9 -53 -34 -53 -31 0 -40 -15 -40 -64 0 -52 11 -56 150 -56
139 0 150 4 150 56 0 54 -8 64 -51 64 l-39 0 1 173 c0 94 2 168 5 162 2 -5 24
-62 48 -125 36 -96 48 -117 71 -129 52 -25 74 -2 125 134 l45 119 8 -124 c4
-69 6 -143 5 -165 -3 -39 -4 -40 -43 -45 -33 -4 -41 -10 -48 -35 -5 -18 -4
-41 2 -58 l11 -28 137 3 138 3 0 55 c0 55 0 55 -32 58 l-33 3 0 68 c0 37 -3
142 -7 234 l-6 166 34 3 c33 3 34 5 37 49 4 65 -6 70 -129 67 l-104 -3 -54
-148 c-30 -81 -58 -144 -62 -140 -4 4 -28 64 -54 132 -66 178 -48 161 -170
161 -93 0 -105 -2 -115 -19z"/>
<path d="M10525 8689 c-96 -12 -180 -73 -219 -159 -30 -65 -29 -188 3 -252 28
-60 98 -122 158 -142 53 -18 160 -21 215 -6 151 42 236 220 183 381 -43 128
-180 200 -340 178z m124 -147 c52 -28 73 -74 69 -149 -3 -53 -9 -67 -33 -93
-104 -109 -265 -19 -240 135 8 50 27 81 68 105 40 25 92 25 136 2z"/>
<path d="M11330 8690 c-46 -8 -89 -32 -120 -65 l-25 -27 -5 39 -5 38 -94 3
c-105 3 -111 0 -111 -58 0 -45 15 -60 57 -60 l33 0 0 -270 0 -270 -33 0 c-42
0 -57 -15 -57 -56 0 -66 -5 -64 186 -64 l174 0 11 28 c6 16 7 39 2 57 -8 29
-11 30 -71 33 l-62 3 0 81 c0 77 1 80 18 65 74 -67 230 -59 310 16 71 66 103
227 68 334 -19 57 -74 126 -118 149 -39 20 -114 31 -158 24z m74 -151 c40 -31
56 -71 56 -137 0 -97 -55 -158 -133 -147 -80 11 -118 61 -118 151 0 67 23 112
71 136 47 24 91 23 124 -3z"/>
<path d="M13466 8688 c-178 -23 -277 -197 -220 -387 20 -69 90 -141 159 -164
68 -24 190 -21 295 6 l85 22 -1 48 c-1 71 -16 82 -90 63 -148 -37 -232 -30
-278 25 -14 17 -26 35 -26 40 0 5 84 9 199 9 232 0 227 -2 217 87 -21 182
-148 276 -340 251z m118 -142 c31 -13 66 -49 66 -68 0 -5 -59 -8 -130 -8
l-131 0 15 28 c28 55 111 77 180 48z"/>
<path d="M14291 8687 c-34 -7 -57 -21 -97 -62 l-53 -53 -3 52 -3 51 -99 3
c-109 3 -116 0 -116 -55 0 -52 8 -63 51 -63 l39 0 0 -155 0 -155 -34 0 c-37 0
-46 -12 -46 -64 0 -52 11 -56 150 -56 140 0 150 4 150 59 0 45 -9 58 -40 62
-24 4 -25 6 -24 82 2 95 23 155 70 197 41 36 83 39 110 9 16 -18 19 -40 22
-154 l4 -134 -29 -3 c-34 -4 -52 -44 -37 -85 l9 -28 137 -3 137 -3 6 24 c4 13
5 39 3 58 -3 31 -6 34 -40 37 l-36 3 -4 157 c-3 145 -5 160 -27 200 -14 23
-35 49 -48 57 -34 23 -102 32 -152 22z"/>
<path d="M15663 8689 c-97 -13 -168 -61 -211 -144 -23 -43 -27 -62 -27 -140 0
-100 17 -145 76 -204 54 -54 104 -74 199 -79 69 -3 95 0 141 17 137 52 209
204 165 352 -24 83 -64 132 -138 167 -69 33 -125 42 -205 31z m147 -164 c37
-36 54 -85 47 -142 -16 -144 -195 -179 -259 -52 -38 73 -11 180 54 213 49 25
121 16 158 -19z"/>
<path d="M16625 8694 c-5 -1 -22 -5 -38 -8 -32 -8 -98 -64 -139 -120 l-28 -39
0 61 c0 95 4 92 -120 92 -117 0 -120 -1 -120 -60 0 -52 8 -60 61 -60 l50 0 -3
-152 -3 -153 -55 -3 c-30 -2 -58 -9 -62 -15 -13 -20 -9 -84 6 -96 9 -8 81 -11
237 -9 l223 3 6 30 c3 17 3 41 0 55 -6 24 -9 25 -103 28 l-97 3 0 62 c0 123
73 217 168 217 24 0 52 -5 63 -11 29 -15 55 -3 74 37 21 46 16 83 -16 106 -25
19 -84 37 -104 32z"/>
<path d="M18670 8690 c-46 -8 -89 -32 -120 -65 l-25 -27 -5 39 -5 38 -94 3
c-105 3 -111 0 -111 -58 0 -45 15 -60 57 -60 l33 0 0 -270 0 -270 -33 0 c-42
0 -57 -15 -57 -56 0 -66 -5 -64 186 -64 l174 0 11 28 c6 16 7 39 2 57 -8 29
-11 30 -71 33 l-62 3 0 81 c0 77 1 80 18 65 74 -67 230 -59 310 16 71 66 103
227 68 334 -19 57 -74 126 -118 149 -39 20 -114 31 -158 24z m74 -151 c40 -31
56 -71 56 -137 0 -97 -55 -158 -133 -147 -80 11 -118 61 -118 151 0 67 23 112
71 136 47 24 91 23 124 -3z"/>
<path d="M19333 8689 c-97 -13 -168 -61 -211 -144 -23 -43 -27 -62 -27 -140 0
-100 17 -145 76 -204 54 -54 104 -74 199 -79 69 -3 95 0 141 17 137 52 209
204 165 352 -24 83 -64 132 -138 167 -69 33 -125 42 -205 31z m147 -164 c37
-36 54 -85 47 -142 -16 -144 -195 -179 -259 -52 -38 73 -11 180 54 213 49 25
121 16 158 -19z"/>
<path d="M22260 8694 c-72 -11 -93 -18 -133 -45 -34 -22 -54 -46 -77 -91 -26
-53 -30 -72 -30 -143 0 -71 4 -90 30 -142 45 -91 116 -134 221 -134 56 -1 104
16 142 49 16 14 17 12 17 -34 0 -63 -17 -95 -60 -116 -45 -23 -96 -22 -199 2
-95 23 -104 20 -122 -40 -8 -26 -8 -43 -1 -56 15 -28 86 -45 213 -51 138 -7
197 8 252 63 61 61 67 96 67 366 l0 238 33 0 c42 0 57 15 57 56 0 62 -3 64
-110 64 -104 0 -110 -3 -110 -53 -1 -19 -2 -20 -10 -5 -22 37 -128 80 -180 72z
m119 -161 c37 -28 51 -60 51 -118 0 -83 -40 -132 -117 -142 -82 -11 -133 43
-133 142 0 99 45 149 129 141 24 -2 55 -13 70 -23z"/>
<path d="M21366 8664 c-10 -26 -7 -79 6 -92 7 -7 42 -12 85 -12 l74 0 -3 -152
-3 -153 -94 -5 c-93 -5 -95 -5 -102 -32 -4 -16 -4 -40 0 -55 l7 -28 258 -3
c182 -2 263 1 272 9 8 6 14 26 14 44 0 63 -3 65 -106 65 l-94 0 0 196 c0 115
-4 203 -10 215 -10 17 -23 19 -154 19 -122 0 -145 -2 -150 -16z"/>
<path d="M4152 8380 c0 -14 2 -19 5 -12 2 6 2 18 0 25 -3 6 -5 1 -5 -13z"/>
<path d="M10004 7396 c-9 -37 2 -58 28 -54 19 2 23 9 23 38 0 29 -4 36 -22 38
-17 3 -24 -3 -29 -22z"/>
<path d="M18817 7413 c-4 -3 -7 -22 -7 -40 0 -32 2 -34 28 -31 19 2 28 9 30
26 5 36 -30 67 -51 45z"/>
<path d="M20287 7414 c-4 -4 -7 -22 -7 -41 0 -29 3 -33 26 -33 23 0 25 3 22
37 -3 36 -23 54 -41 37z"/>
<path d="M19042 7383 c2 -11 14 -19 31 -21 l27 -3 0 -155 0 -154 -25 0 c-18 0
-25 -5 -25 -20 0 -18 7 -20 65 -20 58 0 65 2 65 20 0 13 -7 20 -20 20 -29 0
-25 31 8 64 l29 27 36 -44 c35 -42 35 -45 16 -50 -12 -3 -19 -12 -17 -19 6
-18 130 -18 135 -1 3 7 -6 17 -19 22 -13 5 -45 34 -71 64 l-47 55 46 41 c26
23 53 41 61 41 8 0 13 7 11 18 -3 14 -14 17 -63 17 -49 0 -60 -3 -63 -17 -2
-12 3 -18 15 -18 13 0 2 -15 -37 -53 l-55 -52 -3 128 -3 127 -50 0 c-43 0 -50
-3 -47 -17z"/>
<path d="M19820 7380 c0 -17 7 -20 50 -20 l50 0 0 -155 0 -155 -55 0 c-49 0
-55 -2 -55 -20 0 -20 5 -20 133 -18 109 3 132 6 132 18 0 11 -14 16 -57 18
l-58 3 0 174 0 175 -70 0 c-63 0 -70 -2 -70 -20z"/>
<path d="M20875 7391 c-10 -17 4 -31 31 -31 l24 0 0 -155 0 -155 -25 0 c-19 0
-25 -5 -25 -20 0 -19 5 -21 67 -18 44 2 68 7 71 16 2 7 -5 16 -17 19 -29 7
-27 44 3 72 l23 22 37 -43 c35 -41 36 -43 15 -50 -41 -16 -15 -33 51 -33 67 0
92 17 48 34 -24 9 -108 102 -108 119 0 11 78 76 103 85 47 18 0 40 -74 35 -32
-2 -45 -8 -47 -20 -2 -11 3 -18 13 -18 23 0 17 -9 -37 -59 l-47 -43 -3 124 -3
123 -47 3 c-25 2 -49 -2 -53 -7z"/>
<path d="M12900 7315 l0 -55 -40 0 c-33 0 -40 -3 -40 -20 0 -17 7 -20 40 -20
l40 0 0 -79 c0 -87 17 -123 66 -135 33 -9 133 20 141 40 10 27 -12 37 -45 20
-44 -23 -99 -21 -112 3 -5 11 -10 49 -10 85 l0 66 70 0 c63 0 70 2 70 20 0 18
-7 20 -70 20 l-70 0 0 55 c0 48 -2 55 -20 55 -18 0 -20 -7 -20 -55z"/>
<path d="M15467 7364 c-4 -4 -7 -29 -7 -56 l0 -48 -35 0 c-28 0 -35 -4 -35
-20 0 -16 7 -20 34 -20 l33 0 6 -79 c6 -94 16 -116 61 -131 63 -20 169 23 146
59 -7 12 -14 12 -43 -2 -41 -20 -88 -22 -105 -5 -7 7 -12 41 -12 85 l0 72 67
3 c55 2 68 6 71 21 3 15 -5 17 -67 17 l-70 0 -3 52 c-2 38 -7 54 -18 56 -9 1
-19 0 -23 -4z"/>
<path d="M9507 7353 c-11 -10 13 -33 34 -33 18 0 19 -10 19 -134 l0 -135 -27
-3 c-17 -2 -28 -9 -28 -18 0 -12 19 -16 98 -18 86 -2 103 0 137 19 75 42 102
155 60 246 -30 67 -66 83 -186 83 -55 0 -104 -3 -107 -7z m206 -44 c81 -37 75
-218 -9 -249 -14 -6 -43 -10 -65 -10 l-39 0 0 135 0 135 45 0 c24 0 55 -5 68
-11z"/>
<path d="M9927 7284 c-19 -20 -4 -33 41 -36 l47 -3 3 -97 3 -97 -58 -3 c-44
-2 -58 -7 -58 -18 0 -12 23 -15 133 -18 127 -2 132 -2 132 18 0 18 -6 20 -55
20 l-54 0 -3 118 -3 117 -60 3 c-34 2 -64 0 -68 -4z"/>
<path d="M10315 7278 c-82 -44 -50 -130 53 -143 80 -10 107 -20 111 -40 5 -27
-26 -45 -79 -45 -45 0 -90 25 -90 50 0 6 -9 10 -20 10 -17 0 -20 -7 -20 -49 0
-53 16 -74 35 -48 10 14 16 14 55 1 96 -33 186 22 166 102 -8 30 -46 50 -116
59 -78 9 -90 14 -90 35 0 45 100 52 144 11 12 -12 28 -21 34 -21 15 0 26 43
17 69 -7 24 -45 29 -45 7 0 -13 -4 -13 -27 0 -33 16 -100 18 -128 2z"/>
<path d="M10683 7270 c-85 -52 -84 -190 3 -247 54 -35 204 -9 204 36 0 29 -10
31 -48 10 -88 -46 -172 -9 -172 77 0 63 34 99 93 99 49 0 87 -25 87 -57 0 -11
7 -18 20 -18 18 0 20 7 20 60 0 53 -2 60 -20 60 -11 0 -20 -7 -20 -15 0 -14
-3 -14 -30 0 -40 21 -99 19 -137 -5z"/>
<path d="M11053 7270 c-47 -28 -66 -72 -61 -137 4 -42 11 -60 33 -83 60 -63
157 -60 214 5 26 30 31 44 31 86 0 92 -53 149 -140 149 -27 0 -58 -8 -77 -20z
m127 -35 c56 -29 63 -125 13 -165 -31 -24 -90 -26 -120 -5 -26 18 -43 71 -36
109 7 33 57 76 89 76 14 0 38 -7 54 -15z"/>
<path d="M11337 7284 c-13 -13 -7 -29 14 -39 14 -7 36 -46 66 -115 24 -58 50
-111 57 -119 30 -29 53 -3 103 115 36 87 54 118 71 125 42 16 19 34 -44 34
-46 0 -59 -3 -62 -16 -2 -10 5 -19 17 -22 20 -5 19 -8 -15 -88 -20 -46 -39
-87 -43 -91 -6 -7 -81 155 -81 175 0 4 12 7 26 7 19 0 25 5 22 18 -3 13 -15
18 -64 20 -33 2 -63 0 -67 -4z"/>
<path d="M11793 7270 c-96 -58 -82 -223 22 -258 72 -25 212 15 177 50 -9 9
-19 9 -45 0 -56 -20 -120 -15 -144 11 -12 12 -23 31 -25 42 -3 19 3 20 116 23
l118 3 -7 36 c-14 74 -61 113 -137 113 -25 0 -56 -8 -75 -20z m120 -31 c14 -6
30 -22 36 -35 l11 -24 -90 0 c-50 0 -90 3 -90 6 0 3 5 14 11 25 19 35 77 49
122 28z"/>
<path d="M12107 7284 c-15 -16 -6 -33 21 -36 l27 -3 3 -97 3 -97 -33 -3 c-21
-2 -33 -8 -33 -18 0 -12 20 -16 113 -18 107 -3 112 -2 112 18 0 18 -6 20 -60
20 l-60 0 0 41 c0 84 58 153 125 148 19 -2 40 2 46 8 20 20 -8 43 -52 43 -31
0 -47 -8 -78 -36 l-40 -35 -3 33 c-3 31 -6 33 -43 36 -23 2 -44 0 -48 -4z"/>
<path d="M13255 7271 c-59 -40 -80 -116 -51 -185 47 -112 213 -109 260 5 24
60 16 109 -28 157 -30 32 -39 36 -92 39 -47 3 -65 0 -89 -16z m126 -36 c88
-46 51 -185 -49 -185 -124 0 -124 195 1 199 10 1 31 -6 48 -14z"/>
<path d="M13537 7283 c-14 -14 -6 -32 16 -35 22 -3 22 -5 22 -158 0 -154 0
-155 -23 -158 -15 -2 -22 -9 -20 -20 3 -14 16 -17 78 -17 63 0 75 3 78 18 3
14 -4 17 -32 17 l-36 0 0 62 0 61 23 -20 c51 -48 139 -33 177 29 41 68 20 180
-42 214 -36 20 -101 17 -131 -6 -25 -20 -25 -20 -30 0 -4 15 -14 20 -39 20
-19 0 -38 -3 -41 -7z m215 -44 c28 -15 51 -74 42 -113 -16 -79 -99 -104 -148
-45 -68 81 15 206 106 158z"/>
<path d="M14257 7283 c-14 -13 -6 -33 13 -33 19 0 20 -7 20 -100 0 -93 -1
-100 -20 -100 -13 0 -20 -7 -20 -20 0 -18 7 -20 60 -20 53 0 60 2 60 20 0 11
-7 20 -15 20 -12 0 -15 14 -15 70 0 73 13 115 38 125 33 12 42 -14 42 -127 l0
-109 37 3 c41 3 57 26 24 35 -18 5 -21 13 -21 67 0 72 25 131 55 131 19 0 20
-8 25 -115 l5 -115 38 -3 c32 -3 37 0 37 17 0 12 -7 21 -15 21 -12 0 -15 17
-15 91 0 86 -9 125 -34 141 -21 14 -56 8 -77 -13 l-21 -21 -14 21 c-19 27 -65
27 -90 0 l-18 -20 -8 20 c-5 15 -16 21 -36 21 -16 0 -32 -3 -35 -7z"/>
<path d="M14726 7271 c-84 -57 -85 -185 -3 -245 52 -38 207 -19 207 26 0 17
-4 19 -27 14 -16 -4 -54 -10 -85 -13 -51 -5 -59 -3 -82 20 -14 15 -26 35 -26
47 0 19 6 20 116 20 l117 0 -6 42 c-4 28 -15 51 -36 71 -25 26 -39 31 -88 34
-46 3 -64 0 -87 -16z m138 -42 c49 -39 35 -49 -64 -49 -87 0 -90 1 -80 19 27
52 98 66 144 30z"/>
<path d="M15017 7283 c-14 -13 -6 -33 13 -33 19 0 20 -7 20 -99 0 -92 -1 -99
-21 -104 -12 -3 -19 -12 -17 -19 7 -20 133 -18 133 2 0 8 -11 17 -24 18 -22 4
-23 6 -19 74 3 64 7 73 36 99 35 31 52 35 83 19 17 -9 19 -22 19 -100 0 -83
-1 -90 -20 -90 -13 0 -20 -7 -20 -20 0 -18 7 -20 65 -20 58 0 65 2 65 20 0 13
-7 20 -20 20 -18 0 -20 7 -20 85 0 89 -15 137 -45 149 -37 14 -84 6 -114 -20
-29 -24 -31 -24 -31 -6 0 11 -7 23 -16 26 -21 8 -59 8 -67 -1z"/>
<path d="M15823 7270 c-47 -28 -66 -72 -61 -137 4 -42 11 -60 33 -83 60 -63
157 -60 214 5 26 30 31 44 31 86 0 92 -53 149 -140 149 -27 0 -58 -8 -77 -20z
m127 -35 c56 -29 63 -125 13 -165 -31 -24 -90 -26 -120 -5 -26 18 -43 71 -36
109 7 33 57 76 89 76 14 0 38 -7 54 -15z"/>
<path d="M16147 7283 c-16 -15 -6 -33 18 -33 l25 0 0 -100 0 -100 -30 0 c-23
0 -30 -4 -30 -20 0 -20 5 -21 113 -18 92 2 112 6 112 18 0 11 -14 16 -57 18
l-58 3 0 47 c0 84 58 148 126 140 26 -3 38 0 45 14 7 13 5 20 -10 28 -39 20
-79 12 -121 -26 -39 -35 -40 -36 -40 -12 0 13 -5 29 -12 36 -13 13 -70 17 -81
5z"/>
<path d="M16536 7269 c-20 -16 -26 -29 -26 -59 0 -51 23 -66 114 -79 38 -6 76
-17 84 -25 14 -14 14 -18 -3 -36 -13 -15 -31 -20 -68 -20 -42 0 -53 4 -78 31
-39 42 -59 33 -59 -26 0 -51 23 -72 45 -42 11 16 15 16 50 1 45 -19 103 -11
140 18 19 15 25 29 25 57 0 51 -23 69 -101 82 -73 12 -109 24 -109 38 0 21 33
41 66 41 38 0 94 -24 94 -40 0 -6 9 -10 20 -10 17 0 20 7 20 45 0 38 -3 45
-19 45 -11 0 -21 -6 -23 -12 -4 -10 -10 -10 -32 0 -43 19 -109 15 -140 -9z"/>
<path d="M17293 7270 c-45 -27 -65 -63 -66 -118 -1 -88 56 -146 144 -146 28 0
58 7 73 18 87 56 88 194 3 246 -42 26 -112 26 -154 0z m136 -46 c27 -22 31
-32 31 -75 0 -40 -5 -55 -25 -74 -51 -52 -147 -21 -161 51 -18 96 82 160 155
98z"/>
<path d="M17587 7283 c-14 -13 -6 -33 13 -33 19 0 20 -7 20 -99 0 -92 -1 -99
-21 -104 -12 -3 -19 -12 -17 -19 7 -20 133 -18 133 2 0 8 -11 17 -24 18 -22 4
-23 6 -19 74 3 64 7 73 36 99 35 31 52 35 83 19 17 -9 19 -22 19 -100 0 -83
-1 -90 -20 -90 -13 0 -20 -7 -20 -20 0 -18 7 -20 65 -20 58 0 65 2 65 20 0 13
-7 20 -20 20 -18 0 -20 7 -20 85 0 89 -15 137 -45 149 -37 14 -84 6 -114 -20
-29 -24 -31 -24 -31 -6 0 11 -7 23 -16 26 -21 8 -59 8 -67 -1z"/>
<path d="M18384 7271 c-19 -11 -38 -36 -48 -62 -56 -140 90 -268 196 -172 19
17 19 15 16 -42 -3 -60 -3 -60 -36 -63 -25 -3 -32 -8 -30 -20 5 -25 151 -25
156 0 2 11 -5 18 -20 20 -23 3 -23 5 -26 156 -2 148 -2 154 18 159 33 9 20 37
-18 41 -27 3 -35 -1 -39 -17 -5 -19 -5 -19 -36 0 -41 24 -93 24 -133 0z m116
-36 c57 -29 61 -132 7 -170 -30 -21 -83 -19 -107 5 -41 41 -38 125 7 160 31
24 54 25 93 5z"/>
<path d="M18737 7283 c-20 -19 -5 -33 38 -33 l45 0 0 -100 0 -100 -55 0 c-48
0 -55 -2 -55 -20 0 -19 7 -20 135 -20 128 0 135 1 135 20 0 18 -7 20 -55 20
l-55 0 0 108 c0 71 -4 112 -12 120 -13 13 -110 17 -121 5z"/>
<path d="M19492 7270 c-83 -51 -81 -203 2 -247 62 -33 206 -13 206 29 0 17 -4
19 -27 14 -16 -4 -54 -10 -85 -13 -51 -5 -59 -3 -82 20 -14 15 -26 35 -26 47
0 19 6 20 116 20 l117 0 -6 37 c-7 44 -34 83 -68 100 -37 19 -109 16 -147 -7z
m150 -50 c10 -12 18 -26 18 -31 0 -5 -40 -9 -90 -9 -49 0 -90 3 -90 8 1 12 24
38 45 50 29 18 96 7 117 -18z"/>
<path d="M20200 7276 c-15 -18 -5 -24 50 -28 l35 -3 3 -97 3 -98 -56 0 c-49 0
-55 -2 -55 -20 0 -20 5 -20 133 -18 109 3 132 6 132 18 0 11 -14 16 -57 18
l-57 3 -3 117 -3 117 -56 3 c-41 2 -59 -1 -69 -12z"/>
<path d="M20517 7284 c-15 -16 -6 -34 18 -34 l25 0 0 -100 c0 -93 -1 -100 -20
-100 -13 0 -20 -7 -20 -20 0 -18 7 -20 65 -20 58 0 65 2 65 20 0 13 -7 20 -20
20 -28 0 -34 20 -25 87 5 38 14 63 30 79 33 33 71 41 95 19 17 -15 20 -31 20
-101 0 -78 -1 -83 -22 -86 -13 -2 -23 -10 -23 -18 0 -12 14 -15 65 -15 51 0
65 3 65 15 0 8 -10 16 -22 18 -22 3 -23 7 -23 98 0 87 -2 97 -25 119 -32 33
-81 33 -128 1 l-36 -25 -3 22 c-2 17 -11 23 -38 25 -20 2 -39 0 -43 -4z"/>
<path d="M21682 7275 c-23 -10 -32 -20 -30 -32 4 -19 7 -19 85 -1 44 10 54 9
77 -5 15 -10 26 -27 26 -40 0 -21 -3 -22 -73 -19 -68 4 -75 2 -106 -23 -28
-24 -32 -33 -29 -68 6 -74 94 -106 176 -63 31 16 35 16 51 2 26 -24 71 -21 71
4 0 13 -7 20 -19 20 -26 0 -31 19 -31 110 0 105 -14 123 -101 127 -42 2 -76
-2 -97 -12z m136 -141 c64 -18 -10 -86 -88 -82 -42 3 -45 5 -48 33 -3 19 2 33
14 42 19 14 83 17 122 7z"/>
<path d="M22074 7280 c-11 -4 -32 -22 -46 -39 -61 -72 -38 -185 47 -222 53
-23 113 -19 164 12 53 32 29 64 -28 35 -105 -55 -208 33 -157 133 34 66 151
67 166 1 4 -16 14 -26 28 -28 21 -3 22 0 22 57 0 55 -2 61 -20 61 -11 0 -23
-7 -26 -15 -5 -13 -8 -13 -27 0 -23 16 -89 19 -123 5z"/>
<path d="M22377 7284 c-17 -17 -6 -34 23 -34 l30 0 0 -99 0 -100 -32 -3 c-21
-2 -33 -8 -33 -18 0 -12 20 -16 113 -18 107 -3 112 -2 112 18 0 18 -6 20 -61
20 l-62 0 7 52 c13 93 64 146 133 135 38 -7 54 12 33 38 -27 32 -109 10 -148
-40 l-21 -26 -3 38 c-3 37 -4 38 -43 41 -23 2 -44 0 -48 -4z"/>
<path d="M22793 7270 c-47 -28 -66 -72 -61 -137 4 -42 11 -60 33 -83 60 -63
157 -60 214 5 26 30 31 44 31 86 0 92 -53 149 -140 149 -27 0 -58 -8 -77 -20z
m127 -35 c56 -29 63 -125 13 -165 -31 -24 -90 -26 -120 -5 -26 18 -43 71 -36
109 7 33 57 76 89 76 14 0 38 -7 54 -15z"/>
<path d="M23155 7278 c-82 -44 -50 -130 53 -143 80 -10 107 -20 111 -40 5 -27
-26 -45 -79 -45 -45 0 -90 25 -90 50 0 6 -9 10 -20 10 -17 0 -20 -7 -20 -49 0
-53 16 -74 35 -48 10 14 16 14 55 1 96 -33 186 22 166 102 -8 30 -46 50 -116
59 -78 9 -90 14 -90 35 0 45 100 52 144 11 12 -12 28 -21 34 -21 15 0 26 43
17 69 -7 24 -45 29 -45 7 0 -13 -4 -13 -27 0 -33 16 -100 18 -128 2z"/>
<path d="M23520 7277 c-49 -25 -52 -104 -5 -125 14 -7 45 -15 68 -18 66 -9
107 -24 107 -39 0 -28 -31 -45 -82 -45 -43 0 -54 4 -78 30 -41 44 -52 39 -48
-22 3 -53 25 -78 35 -40 5 19 7 20 27 8 52 -33 134 -27 169 12 52 58 17 116
-78 132 -100 17 -105 19 -105 40 0 45 100 52 144 11 34 -32 46 -26 46 24 0 38
-3 45 -20 45 -11 0 -20 -6 -20 -14 0 -13 -4 -13 -27 0 -34 17 -100 18 -133 1z"/>
<path d="M3632 7169 c-88 -46 -166 -131 -182 -200 -13 -53 -9 -206 6 -243 6
-17 4 -18 -20 -12 -32 8 -43 -11 -26 -44 11 -21 12 -21 26 -3 13 17 14 17 7
-1 -4 -13 -3 -17 5 -12 7 4 13 -6 18 -29 8 -43 1 -53 -23 -34 -13 11 -12 7 4
-16 11 -17 26 -50 33 -75 6 -25 20 -58 30 -75 10 -16 22 -57 25 -91 l7 -61
-61 -65 c-56 -60 -75 -72 -264 -166 -112 -56 -209 -102 -214 -102 -29 0 -67
-82 -83 -175 -5 -27 -18 -81 -30 -120 -12 -42 -23 -111 -26 -175 -3 -58 -9
-125 -15 -150 -5 -25 -11 -85 -15 -135 -3 -49 -8 -93 -10 -97 -3 -4 -75 -8
-160 -8 -200 0 -244 -16 -285 -105 -23 -49 -26 -180 -5 -228 16 -39 61 -82 99
-96 40 -15 2594 -15 2634 0 15 6 39 20 51 32 45 42 56 76 57 172 0 80 -3 95
-27 136 -40 68 -90 89 -216 89 l-98 0 -26 116 c-20 91 -24 123 -16 145 8 24 3
58 -27 177 -21 81 -51 181 -67 222 -17 41 -41 104 -54 139 -13 36 -31 73 -41
83 -10 9 -54 30 -98 47 -44 16 -152 62 -240 103 -145 67 -165 79 -228 142
l-69 68 7 52 c9 68 40 161 69 200 29 40 52 152 35 172 -6 8 -19 14 -29 14 -20
0 -30 36 -30 112 0 94 -18 138 -84 204 -71 71 -156 116 -230 122 -43 3 -61 -2
-114 -29z m147 -100 c34 -34 48 -55 42 -63 -22 -28 -22 -55 0 -75 22 -21 22
-21 3 -36 -10 -9 -27 -20 -37 -26 -18 -10 -18 -11 0 -24 16 -13 13 -14 -31
-15 -40 0 -47 2 -37 14 9 11 6 18 -15 35 -22 18 -37 20 -90 17 l-64 -4 0 38
c0 21 11 61 25 88 14 28 25 55 25 61 0 16 58 40 97 41 25 0 42 -11 82 -51z
m-110 -214 c9 -9 -11 -37 -29 -42 -15 -4 -18 -11 -14 -28 6 -26 -16 -39 -50
-30 -15 5 -17 4 -7 -3 11 -8 10 -11 -5 -15 -10 -2 0 -5 23 -6 57 -1 123 27
124 54 1 17 2 17 6 3 7 -27 23 -22 23 7 0 16 6 25 15 25 8 0 15 -8 15 -18 0
-10 3 -22 7 -26 4 -4 9 -29 10 -56 1 -52 -11 -66 -49 -54 -11 3 -31 3 -45 -1
-20 -5 -23 -8 -13 -20 10 -12 7 -17 -21 -29 -81 -33 -87 -30 -35 19 26 25 46
48 45 49 -2 2 -18 2 -35 -1 -23 -4 -36 -15 -54 -48 l-24 -44 -18 22 c-28 32
-32 64 -13 93 9 14 14 28 11 31 -10 11 37 43 63 43 17 0 22 3 15 10 -12 12
-74 -6 -74 -22 0 -5 -5 -6 -11 -2 -6 3 -8 15 -6 26 4 14 0 22 -14 25 -32 9
-16 27 31 35 23 4 45 10 49 13 5 6 72 -3 80 -10z m231 -20 c0 -17 -6 -25 -17
-25 -10 0 -14 -4 -8 -8 6 -4 11 -15 13 -24 2 -14 -4 -18 -25 -19 -24 -1 -20
-5 30 -28 60 -28 65 -41 15 -41 -39 0 -69 17 -62 35 4 9 0 15 -9 15 -45 0 -42
84 4 107 39 20 59 16 59 -12z m125 5 c11 -5 15 -9 8 -9 -6 -1 -18 -4 -26 -7
-8 -3 -17 2 -20 10 -7 18 7 20 38 6z m-251 -257 c-11 -8 -39 -13 -74 -11 -30
1 -64 -1 -75 -6 l-20 -8 20 13 c30 20 103 36 137 31 30 -4 30 -6 12 -19z m71
-36 c11 -1 21 -9 23 -17 2 -13 -13 -16 -95 -18 -53 -2 -99 -5 -102 -7 -4 -5
152 -9 172 -6 21 4 -2 -24 -34 -41 -23 -13 -45 -17 -69 -14 -25 4 -31 3 -20
-4 11 -7 7 -10 -18 -10 l-33 0 17 -29 c17 -29 47 -41 100 -41 26 0 32 -21 12
-37 -19 -13 -68 -16 -68 -4 0 6 -15 11 -34 11 -31 0 -36 5 -57 48 -12 26 -38
69 -56 96 -33 48 -42 73 -23 61 6 -3 10 0 10 7 0 9 3 9 10 -2 5 -8 10 -11 10
-6 0 4 11 1 24 -7 22 -15 25 -15 41 3 21 23 54 29 120 23 28 -3 59 -6 70 -6z
m21 -205 c-18 -16 -18 -16 -6 6 6 13 14 21 18 18 3 -4 -2 -14 -12 -24z m-216
-170 c0 -13 -3 -12 -20 3 -11 10 -20 28 -20 39 1 20 1 20 20 -3 11 -13 20 -30
20 -39z m-191 -1239 c-15 -18 -34 -1 -25 22 5 14 9 15 21 5 12 -10 13 -16 4
-27z m1068 3 c-4 -9 -11 -16 -17 -16 -17 0 -24 31 -9 41 18 11 34 -5 26 -25z
m-817 -45 c0 -38 3 -76 6 -84 4 -11 -5 -16 -38 -19 -24 -3 -49 -3 -56 0 -14 5
-28 49 -23 72 5 24 32 50 53 50 15 0 17 5 12 25 -5 22 -3 25 20 25 26 0 26 -1
26 -69z m481 59 c14 0 19 -7 19 -25 0 -28 -15 -33 -28 -9 -5 9 -18 14 -33 12
-30 -4 -47 -47 -33 -85 8 -22 16 -28 39 -27 17 0 39 4 50 9 19 8 20 8 2 -12
-26 -29 -62 -36 -96 -19 -31 17 -41 34 -41 75 0 47 52 97 88 85 8 -2 22 -4 33
-4z m79 -18 c0 -26 3 -28 30 -24 33 5 42 -9 53 -80 l6 -38 -70 0 c-39 0 -69 4
-69 10 0 6 5 10 10 10 6 0 10 26 10 59 0 33 -4 63 -10 66 -18 11 -10 25 15 25
21 0 25 -5 25 -28z m-1020 8 c0 -5 -4 -10 -9 -10 -5 0 -4 -19 2 -42 l11 -42
14 52 c17 61 36 67 52 15 7 -21 16 -42 20 -46 10 -12 22 40 15 64 -5 16 -1 19
24 19 17 0 31 -4 31 -10 0 -5 -4 -10 -10 -10 -5 0 -19 -31 -31 -70 -24 -80
-42 -89 -60 -30 -7 22 -15 40 -19 40 -4 0 -12 -18 -19 -40 -6 -22 -17 -40 -24
-40 -7 0 -23 30 -36 68 -12 37 -25 73 -28 80 -3 8 6 12 31 12 20 0 36 -4 36
-10z m-126 -11 c29 -14 51 -59 41 -88 -8 -25 -41 -45 -57 -34 -7 4 -24 7 -38
7 -50 2 -26 86 25 86 23 0 25 -4 25 -41 0 -24 4 -38 10 -34 14 9 13 68 -2 83
-17 17 -58 15 -80 -5 -28 -25 -24 -88 7 -109 24 -16 36 -15 80 1 19 7 19 7 4
-10 -21 -22 -84 -22 -109 0 -42 38 -32 113 19 140 32 18 43 18 75 4z m336 -69
c0 -27 5 -50 10 -50 6 0 10 -4 10 -10 0 -5 -16 -10 -35 -10 -33 0 -34 1 -29
33 3 17 7 38 10 45 2 6 -1 12 -6 12 -6 0 -10 4 -10 9 0 8 16 16 43 20 4 0 7
-21 7 -49z m120 23 c0 -26 -12 -30 -30 -8 -14 17 -30 20 -30 6 0 -5 13 -14 29
-21 16 -6 32 -18 35 -26 7 -19 -31 -57 -51 -50 -8 3 -21 6 -29 6 -8 0 -14 9
-14 20 0 21 16 28 22 9 2 -6 13 -9 23 -7 17 3 15 7 -12 21 -54 29 -39 77 24
75 28 -1 33 -5 33 -25z m250 7 c28 -28 25 -64 -7 -89 -60 -48 -128 34 -73 89
11 11 29 20 40 20 11 0 29 -9 40 -20z m209 6 c4 -6 11 -32 13 -58 5 -47 5 -48
-22 -48 -27 0 -27 1 -22 45 4 38 2 45 -13 45 -15 0 -17 -7 -13 -45 l6 -45 -64
0 -63 0 5 33 c3 17 7 38 10 45 2 6 -1 12 -6 12 -17 0 -11 18 8 22 39 9 153 4
161 -6z m491 -32 c0 -24 3 -49 6 -58 5 -12 -1 -16 -24 -16 -29 0 -31 1 -25 35
7 45 -2 71 -21 56 -7 -6 -21 -8 -31 -5 -16 7 -17 2 -13 -39 5 -46 5 -47 -22
-47 -27 0 -28 2 -23 40 3 24 1 46 -6 54 -15 18 1 22 92 22 l67 -1 0 -41z m110
19 c0 -26 -15 -31 -24 -8 -3 8 -12 15 -21 15 -26 0 -17 -16 20 -33 19 -9 35
-23 35 -31 0 -24 -31 -48 -54 -42 -12 3 -27 6 -33 6 -7 0 -13 9 -13 20 0 22
10 26 27 9 6 -6 17 -9 25 -7 8 3 0 11 -19 22 -54 28 -39 76 24 74 28 -1 33 -5
33 -25z"/>
<path d="M3640 4870 c-13 -25 -4 -60 16 -60 10 0 14 12 14 40 0 43 -13 52 -30
20z"/>
<path d="M4270 4847 c0 -36 26 -59 36 -33 10 26 -1 61 -18 64 -14 3 -18 -4
-18 -31z"/>
<path d="M3077 4873 c-10 -10 -8 -45 2 -39 11 7 21 46 12 46 -4 0 -11 -3 -14
-7z"/>
<path d="M3774 4876 c-8 -22 -1 -59 13 -64 17 -5 27 22 19 53 -7 28 -24 33
-32 11z"/>
<path d="M3912 4843 c2 -21 8 -38 13 -38 6 0 11 17 13 38 3 29 0 37 -13 37
-13 0 -16 -8 -13 -37z"/>
<path d="M10747 6564 c-4 -4 -7 -22 -7 -41 0 -29 3 -33 26 -33 23 0 25 3 22
37 -3 36 -23 54 -41 37z"/>
<path d="M9492 6533 c2 -10 13 -19 26 -21 22 -3 22 -6 22 -158 0 -147 -1 -154
-20 -154 -13 0 -20 -7 -20 -20 0 -17 7 -20 40 -20 34 0 40 3 40 22 0 20 1 20
18 5 96 -87 233 11 208 148 -11 57 -53 96 -110 102 -38 5 -53 2 -77 -16 l-29
-22 0 60 c0 84 -4 91 -57 91 -37 0 -44 -3 -41 -17z m240 -163 c28 -28 30 -35
26 -82 -6 -61 -32 -88 -85 -88 -52 0 -83 36 -83 97 1 50 11 72 45 91 34 19 65
13 97 -18z"/>
<path d="M14275 6540 c-9 -15 4 -30 26 -30 18 0 19 -8 19 -155 0 -148 -1 -155
-20 -155 -13 0 -20 -7 -20 -20 0 -18 7 -20 65 -20 58 0 65 2 65 20 0 15 -7 20
-26 20 l-27 0 6 66 c6 77 28 114 77 128 28 8 35 7 51 -13 15 -18 19 -40 19
-101 0 -74 -1 -79 -22 -82 -13 -2 -23 -10 -23 -18 0 -12 14 -15 65 -15 51 0
65 3 65 15 0 8 -10 16 -22 18 -22 3 -23 7 -23 98 0 87 -2 97 -25 119 -33 34
-87 34 -132 -1 l-33 -25 0 80 0 81 -39 0 c-22 0 -43 -4 -46 -10z"/>
<path d="M19582 6533 c2 -12 14 -19 36 -21 32 -3 32 -4 32 -57 l0 -55 -32 20
c-69 42 -147 17 -180 -57 -62 -140 86 -274 194 -176 17 15 18 15 18 -5 0 -19
6 -22 40 -22 33 0 40 3 40 20 0 13 -7 20 -20 20 -19 0 -20 7 -20 175 l0 175
-56 0 c-47 0 -55 -3 -52 -17z m18 -148 c57 -29 61 -132 7 -170 -30 -21 -83
-19 -107 5 -41 41 -38 125 7 160 31 24 54 25 93 5z"/>
<path d="M21970 6530 c0 -15 7 -20 25 -20 l25 0 0 -150 0 -150 -26 -10 c-35
-14 -25 -34 19 -38 27 -2 39 1 43 13 6 14 9 14 28 2 60 -40 140 -24 176 35 41
68 20 180 -42 214 -36 21 -101 17 -132 -7 l-26 -20 0 75 0 76 -45 0 c-38 0
-45 -3 -45 -20z m222 -141 c28 -15 51 -74 42 -113 -16 -79 -99 -104 -148 -45
-68 81 15 206 106 158z"/>
<path d="M13267 6514 c-4 -4 -7 -29 -7 -56 l0 -48 -35 0 c-28 0 -35 -4 -35
-20 0 -16 7 -20 34 -20 l33 0 6 -79 c6 -94 16 -116 61 -131 63 -20 169 23 146
59 -7 12 -14 12 -43 -2 -41 -20 -88 -22 -105 -5 -7 7 -12 41 -12 85 l0 72 67
3 c55 2 68 6 71 21 3 15 -5 17 -67 17 l-70 0 -3 52 c-2 38 -7 54 -18 56 -9 1
-19 0 -23 -4z"/>
<path d="M15837 6514 c-4 -4 -7 -29 -7 -55 l0 -48 -37 -3 c-26 -2 -38 -8 -38
-18 0 -10 12 -16 38 -18 l37 -3 0 -65 c0 -87 18 -129 63 -143 51 -17 147 12
147 44 0 23 -18 27 -49 10 -36 -18 -82 -20 -99 -3 -7 7 -12 41 -12 85 l0 72
68 3 c52 2 67 6 67 18 0 12 -15 16 -67 18 l-67 3 -3 52 c-2 37 -7 53 -18 55
-9 1 -19 0 -23 -4z"/>
<path d="M16937 6514 c-4 -4 -7 -29 -7 -55 l0 -48 -37 -3 c-26 -2 -38 -8 -38
-18 0 -10 12 -16 38 -18 l37 -3 0 -65 c0 -87 18 -129 63 -143 51 -17 147 12
147 44 0 23 -18 27 -49 10 -36 -18 -82 -20 -99 -3 -7 7 -12 41 -12 85 l0 72
68 3 c52 2 67 6 67 18 0 12 -15 16 -67 18 l-67 3 -3 52 c-2 37 -7 53 -18 55
-9 1 -19 0 -23 -4z"/>
<path d="M21337 6514 c-4 -4 -7 -29 -7 -56 l0 -48 -35 0 c-28 0 -35 -4 -35
-20 0 -16 7 -20 34 -20 l33 0 6 -79 c6 -94 16 -116 61 -131 63 -20 169 23 146
59 -7 12 -14 12 -43 -2 -41 -20 -88 -22 -105 -5 -7 7 -12 41 -12 85 l0 72 67
3 c55 2 68 6 71 21 3 15 -5 17 -67 17 l-70 0 -3 52 c-2 38 -7 54 -18 56 -9 1
-19 0 -23 -4z"/>
<path d="M9877 6434 c-14 -14 -7 -34 13 -34 18 0 20 -7 20 -87 0 -103 19 -147
68 -157 31 -7 77 6 103 30 15 13 17 12 22 -6 5 -18 12 -21 43 -18 42 3 58 26
25 35 -20 5 -21 12 -21 113 0 122 -6 133 -67 128 -27 -2 -39 -8 -41 -20 -3
-14 3 -18 27 -18 l31 0 0 -60 c0 -66 -18 -113 -49 -130 -27 -14 -66 -13 -79 3
-6 7 -13 60 -14 118 l-3 104 -35 3 c-20 2 -39 0 -43 -4z"/>
<path d="M10315 6428 c-82 -44 -50 -130 53 -143 80 -10 107 -20 111 -40 5 -27
-26 -45 -79 -45 -45 0 -90 25 -90 50 0 6 -9 10 -20 10 -17 0 -20 -7 -20 -49 0
-53 16 -74 35 -48 10 14 16 14 55 1 96 -33 186 22 166 102 -8 30 -46 50 -116
59 -78 9 -90 14 -90 35 0 45 100 52 144 11 12 -12 28 -21 34 -21 15 0 26 43
17 69 -7 24 -45 29 -45 7 0 -13 -4 -13 -27 0 -33 16 -100 18 -128 2z"/>
<path d="M10660 6426 c-15 -18 -5 -24 50 -28 l35 -3 3 -97 3 -98 -56 0 c-49 0
-55 -2 -55 -20 0 -20 5 -20 133 -18 109 3 132 6 132 18 0 11 -14 16 -57 18
l-57 3 -3 117 -3 117 -56 3 c-41 2 -59 -1 -69 -12z"/>
<path d="M10977 6434 c-15 -16 -6 -34 18 -34 l25 0 0 -100 c0 -93 -1 -100 -20
-100 -13 0 -20 -7 -20 -20 0 -18 7 -20 65 -20 58 0 65 2 65 20 0 13 -7 20 -20
20 -28 0 -34 20 -25 87 5 38 14 63 30 79 33 33 71 41 95 19 17 -15 20 -31 20
-101 0 -78 -1 -83 -22 -86 -13 -2 -23 -10 -23 -18 0 -12 14 -15 65 -15 51 0
65 3 65 15 0 8 -10 16 -22 18 -22 3 -23 7 -23 98 0 87 -2 97 -25 119 -32 33
-81 33 -128 1 l-36 -25 -3 22 c-2 17 -11 23 -38 25 -20 2 -39 0 -43 -4z"/>
<path d="M11422 6420 c-83 -51 -81 -203 2 -247 62 -33 206 -13 206 29 0 17 -4
19 -27 14 -16 -4 -54 -10 -85 -13 -51 -5 -59 -3 -82 20 -14 15 -26 35 -26 47
0 19 6 20 116 20 l117 0 -6 37 c-7 44 -34 83 -68 100 -37 19 -109 16 -147 -7z
m150 -50 c10 -12 18 -26 18 -31 0 -5 -40 -9 -90 -9 -49 0 -90 3 -90 8 1 12 24
38 45 50 29 18 96 7 117 -18z"/>
<path d="M11780 6427 c-49 -25 -52 -104 -5 -125 14 -7 45 -15 68 -18 66 -9
107 -24 107 -39 0 -28 -31 -45 -82 -45 -43 0 -54 4 -78 30 -41 44 -52 39 -48
-22 3 -53 25 -78 35 -40 5 19 7 20 27 8 52 -33 134 -27 169 12 52 58 17 116
-78 132 -100 17 -105 19 -105 40 0 45 100 52 144 11 34 -32 46 -26 46 24 0 38
-3 45 -20 45 -11 0 -20 -6 -20 -14 0 -13 -4 -13 -27 0 -34 17 -100 18 -133 1z"/>
<path d="M12129 6411 c-16 -16 -29 -39 -29 -51 0 -35 42 -68 96 -75 80 -10
109 -20 112 -38 6 -31 -17 -47 -70 -47 -42 0 -54 5 -80 30 -44 44 -58 40 -58
-19 0 -54 13 -72 37 -49 13 13 20 13 56 1 100 -35 192 29 161 112 -10 24 -54
43 -122 51 -63 7 -89 22 -79 49 14 34 112 30 146 -7 28 -29 51 -17 51 27 0 39
-21 55 -44 35 -11 -8 -20 -8 -35 -1 -11 6 -41 11 -66 11 -38 0 -52 -5 -76 -29z"/>
<path d="M13622 6420 c-83 -51 -81 -203 2 -247 62 -33 206 -13 206 29 0 17 -4
19 -27 14 -16 -4 -54 -10 -85 -13 -51 -5 -59 -3 -82 20 -14 15 -26 35 -26 47
0 19 6 20 116 20 l117 0 -6 37 c-7 44 -34 83 -68 100 -37 19 -109 16 -147 -7z
m150 -50 c10 -12 18 -26 18 -31 0 -5 -40 -9 -90 -9 -49 0 -90 3 -90 8 1 12 24
38 45 50 29 18 96 7 117 -18z"/>
<path d="M13992 6423 c-61 -30 -88 -116 -58 -187 29 -70 101 -98 190 -72 62
18 85 39 67 60 -10 11 -17 11 -48 -5 -21 -11 -55 -19 -76 -19 -101 0 -136 139
-47 185 55 29 117 10 127 -37 4 -22 11 -28 27 -26 18 3 21 10 21 58 0 49 -2
55 -22 58 -16 2 -23 -2 -23 -13 0 -15 -2 -15 -22 -1 -29 21 -94 20 -136 -1z"/>
<path d="M15436 6419 c-20 -16 -26 -29 -26 -59 0 -51 23 -66 114 -79 38 -6 76
-17 84 -25 14 -14 14 -18 -3 -36 -13 -15 -31 -20 -68 -20 -42 0 -53 4 -78 31
-39 42 -59 33 -59 -26 0 -51 23 -72 45 -42 11 16 15 16 50 1 45 -19 103 -11
140 18 19 15 25 29 25 57 0 51 -23 69 -101 82 -73 12 -109 24 -109 38 0 21 33
41 66 41 38 0 94 -24 94 -40 0 -6 9 -10 20 -10 17 0 20 7 20 45 0 38 -3 45
-19 45 -11 0 -21 -6 -23 -12 -4 -10 -10 -10 -32 0 -43 19 -109 15 -140 -9z"/>
<path d="M16183 6425 c-30 -13 -42 -33 -27 -48 3 -3 24 1 46 9 22 8 53 14 69
14 33 0 69 -31 69 -59 0 -17 -6 -19 -59 -14 -104 10 -151 -17 -151 -85 0 -55
35 -86 98 -86 28 0 60 8 79 19 29 17 32 17 48 2 24 -24 75 -23 75 2 0 13 -8
21 -22 23 -22 3 -23 8 -26 88 -2 94 -12 122 -49 139 -33 15 -111 13 -150 -4z
m135 -141 c59 -16 -11 -84 -87 -84 -35 0 -43 4 -53 26 -11 23 -10 29 11 45 23
19 83 25 129 13z"/>
<path d="M16507 6434 c-17 -17 -6 -34 23 -34 l30 0 0 -99 0 -100 -32 -3 c-21
-2 -33 -8 -33 -18 0 -12 20 -16 113 -18 107 -3 112 -2 112 18 0 18 -6 20 -61
20 l-62 0 7 52 c13 93 64 146 133 135 38 -7 54 12 33 38 -27 32 -109 10 -148
-40 l-21 -26 -3 38 c-3 37 -4 38 -43 41 -23 2 -44 0 -48 -4z"/>
<path d="M17217 6434 c-14 -14 -7 -34 13 -34 19 0 20 -7 20 -94 0 -105 16
-139 70 -151 34 -7 98 19 108 44 5 12 7 10 12 -9 5 -21 12 -25 45 -25 29 0 40
4 40 15 0 8 -10 16 -22 18 -21 3 -22 8 -25 120 l-3 117 -45 0 c-34 0 -46 -4
-48 -17 -2 -12 5 -17 25 -20 25 -3 28 -8 31 -43 7 -88 -31 -155 -88 -155 -44
0 -55 23 -60 134 l-5 101 -30 3 c-17 2 -34 0 -38 -4z"/>
<path d="M17577 6433 c-14 -13 -6 -33 13 -33 19 0 20 -7 20 -160 0 -152 -1
-160 -19 -160 -25 0 -38 -20 -20 -31 8 -5 45 -8 84 -7 57 3 70 6 73 21 3 14
-4 17 -32 17 l-36 0 0 55 0 55 40 -21 c89 -46 180 20 180 131 0 81 -53 140
-125 140 -27 0 -51 -7 -68 -20 -14 -11 -27 -20 -30 -20 -3 0 -7 9 -10 20 -4
14 -14 20 -34 20 -16 0 -33 -3 -36 -7z m236 -64 c11 -14 17 -38 17 -71 0 -62
-31 -98 -85 -98 -82 0 -117 109 -55 172 27 26 36 30 68 25 20 -4 45 -16 55
-28z"/>
<path d="M17999 6411 c-16 -16 -29 -39 -29 -51 0 -35 42 -68 96 -75 80 -10
109 -20 112 -38 6 -31 -17 -47 -70 -47 -42 0 -54 5 -80 30 -44 44 -58 40 -58
-19 0 -54 13 -72 37 -49 13 13 20 13 56 1 100 -35 192 29 161 112 -10 24 -54
43 -122 51 -63 7 -89 22 -79 49 14 34 112 30 146 -7 28 -29 51 -17 51 27 0 39
-21 55 -44 35 -11 -8 -20 -8 -35 -1 -11 6 -41 11 -66 11 -38 0 -52 -5 -76 -29z"/>
<path d="M18752 6427 c-25 -8 -32 -15 -30 -31 4 -22 4 -22 73 -4 61 17 99 3
103 -37 l3 -30 -80 0 c-88 0 -115 -14 -126 -65 -19 -87 95 -139 183 -84 19 13
25 12 46 -2 28 -17 67 -16 74 3 2 7 -8 17 -22 23 -25 9 -26 12 -26 96 0 81 -1
87 -29 115 -26 25 -36 29 -83 28 -29 -1 -68 -6 -86 -12z m126 -143 c57 -16 -2
-84 -72 -84 -45 0 -66 13 -66 41 0 42 66 62 138 43z"/>
<path d="M19047 6434 c-15 -16 -6 -34 18 -34 l25 0 0 -100 c0 -93 -1 -100 -20
-100 -13 0 -20 -7 -20 -20 0 -18 7 -20 65 -20 58 0 65 2 65 20 0 13 -7 20 -20
20 -18 0 -20 7 -20 60 0 70 17 111 55 128 65 30 85 6 85 -104 0 -77 -2 -84
-20 -84 -13 0 -20 -7 -20 -20 0 -19 5 -21 62 -18 62 3 92 24 50 35 -17 4 -20
15 -24 99 -3 81 -7 97 -28 119 -16 17 -34 25 -57 25 -37 0 -93 -24 -93 -40 0
-20 -19 -9 -22 13 -2 17 -10 23 -38 25 -20 2 -39 0 -43 -4z"/>
<path d="M20147 6434 c-12 -13 -7 -34 8 -34 9 0 37 -44 70 -110 48 -95 54
-114 44 -133 -14 -27 -50 -67 -60 -67 -4 0 -19 -4 -33 -10 -33 -12 -24 -40 13
-40 60 0 86 31 168 196 50 101 84 159 96 162 10 2 17 12 15 21 -5 25 -121 23
-126 -1 -2 -13 3 -18 17 -18 28 0 26 -13 -17 -98 l-37 -72 -38 75 c-20 41 -37
80 -37 85 0 6 12 10 26 10 19 0 25 5 22 18 -3 13 -15 18 -64 20 -33 2 -63 0
-67 -4z"/>
<path d="M20593 6420 c-47 -28 -66 -72 -61 -137 4 -42 11 -60 33 -83 60 -63
157 -60 214 5 26 30 31 44 31 86 0 92 -53 149 -140 149 -27 0 -58 -8 -77 -20z
m127 -35 c56 -29 63 -125 13 -165 -31 -24 -90 -26 -120 -5 -26 18 -43 71 -36
109 7 33 57 76 89 76 14 0 38 -7 54 -15z"/>
<path d="M20881 6426 c-11 -13 -9 -17 13 -26 25 -9 26 -12 26 -98 0 -74 3 -94
20 -115 35 -45 96 -43 148 5 l22 21 0 -26 c0 -25 3 -27 40 -27 33 0 40 3 40
20 0 13 -7 20 -20 20 -18 0 -20 8 -22 118 l-3 117 -45 0 c-34 0 -46 -4 -48
-17 -2 -12 5 -17 25 -20 25 -3 28 -8 31 -43 5 -55 -13 -110 -45 -134 -29 -23
-77 -28 -90 -8 -4 6 -10 59 -13 117 l-5 105 -31 3 c-19 2 -36 -3 -43 -12z"/>
<path d="M21617 6434 c-14 -14 -7 -34 13 -34 18 0 20 -7 20 -87 0 -103 19
-147 68 -157 31 -7 77 6 103 30 15 13 17 12 22 -6 5 -18 12 -21 43 -18 42 3
58 26 25 35 -20 5 -21 12 -21 113 0 122 -6 133 -67 128 -27 -2 -39 -8 -41 -20
-3 -14 3 -18 27 -18 l31 0 0 -60 c0 -66 -18 -113 -49 -130 -27 -14 -66 -13
-79 3 -6 7 -13 60 -14 118 l-3 104 -35 3 c-20 2 -39 0 -43 -4z"/>
<path d="M22450 6433 c-31 -11 -71 -58 -81 -95 -30 -113 56 -202 175 -183 52
9 98 33 93 48 -4 13 -22 13 -99 1 -26 -3 -58 -4 -72 0 -23 6 -56 50 -56 75 0
6 46 11 118 13 l117 3 -3 30 c-5 40 -29 79 -62 99 -27 15 -98 20 -130 9z m114
-54 c48 -38 35 -49 -59 -49 -67 0 -85 3 -85 14 0 23 50 56 85 56 18 0 44 -9
59 -21z"/>
<path d="M12557 6243 c-10 -16 -31 -163 -24 -169 16 -16 40 11 72 82 19 42 32
80 29 85 -6 11 -71 12 -77 2z"/>
<path d="M14749 6193 c-18 -90 -17 -118 4 -118 13 0 28 22 53 78 19 43 34 82
34 87 0 6 -18 10 -39 10 l-40 0 -12 -57z"/>
<path d="M9890 5244 c-95 -25 -161 -65 -240 -144 -87 -86 -122 -147 -150 -256
-36 -138 -23 -258 41 -391 66 -138 180 -235 339 -289 53 -18 119 -19 1710 -19
1591 0 1657 1 1710 19 246 83 399 291 400 542 0 76 -31 199 -67 267 -38 71
-164 195 -233 229 -125 61 -18 58 -1815 57 -1405 0 -1648 -2 -1695 -15z m850
-514 c0 -106 3 -130 14 -130 15 0 32 -37 22 -47 -11 -12 -59 -5 -74 11 -14 14
-18 43 -20 156 l-4 140 31 0 31 0 0 -130z m-582 93 c3 -22 0 -23 -67 -23 l-71
0 0 -35 0 -35 60 0 c57 0 60 -1 60 -25 0 -24 -3 -25 -60 -25 l-60 0 0 -40 0
-40 70 0 c68 0 70 -1 70 -25 l0 -25 -100 0 -100 0 0 150 0 151 98 -3 c92 -3
97 -4 100 -25z m2392 -29 c0 -20 5 -24 30 -24 23 0 30 -4 30 -20 0 -16 -7 -20
-30 -20 l-30 0 0 -65 c0 -65 0 -65 29 -65 20 0 30 -6 34 -20 6 -25 -5 -32 -49
-32 -58 0 -74 23 -74 109 0 66 -2 73 -20 73 -13 0 -20 7 -20 19 0 10 9 21 20
24 12 3 20 14 20 25 0 14 8 22 23 24 31 5 37 1 37 -28z m-1967 -25 c28 -15 35
-25 47 -71 13 -46 -1 -106 -29 -132 -23 -21 -85 -24 -106 -6 -13 11 -15 5 -15
-44 0 -56 0 -56 -30 -56 l-30 0 0 155 0 155 30 0 c17 0 30 -5 30 -11 0 -5 10
-3 22 5 27 19 51 20 81 5z m394 -9 c59 -36 64 -137 9 -189 -18 -17 -36 -23
-71 -23 -82 0 -128 67 -105 154 13 45 57 78 105 78 17 0 44 -9 62 -20z m226
14 c9 -3 12 -14 9 -30 -3 -19 -11 -24 -33 -24 -38 0 -49 -24 -49 -104 l0 -66
-30 0 -30 0 0 110 0 110 30 0 c22 0 30 -5 30 -17 0 -15 1 -15 13 -1 6 9 19 18
27 21 8 3 16 6 17 6 1 1 8 -1 16 -5z m196 -9 c33 -16 41 -33 41 -81 l0 -34
-70 0 c-71 0 -81 -7 -61 -39 11 -17 73 -19 79 -3 5 16 27 15 41 -1 27 -34 -52
-72 -116 -55 -45 12 -73 51 -73 104 0 57 16 90 54 108 39 20 69 20 105 1z
m359 -3 c18 -18 19 -18 42 0 29 23 62 23 91 -1 22 -17 24 -29 27 -115 l4 -96
-31 0 -31 0 0 78 c0 76 -9 102 -36 102 -31 0 -44 -31 -44 -106 l0 -74 -30 0
-30 0 0 85 c0 70 -3 87 -16 92 -36 14 -49 -10 -52 -96 l-3 -81 -29 0 -30 0 0
110 c0 110 0 110 24 110 13 0 26 -5 28 -12 3 -8 11 -7 28 5 32 22 65 22 88 -1z
m389 -17 c14 -16 23 -39 23 -61 l0 -34 -75 0 c-72 0 -74 -1 -66 -22 11 -30 43
-39 76 -22 20 10 32 11 47 3 20 -11 20 -11 -3 -34 -38 -37 -114 -37 -151 0
-51 51 -43 150 15 186 43 27 104 20 134 -16z m247 14 c25 -19 26 -25 26 -115
l0 -94 -30 0 -30 0 0 85 c0 94 -9 108 -56 87 -23 -11 -24 -16 -24 -92 l0 -80
-30 0 -30 0 0 110 0 110 25 0 c16 0 25 -6 25 -16 0 -13 5 -12 26 5 15 12 37
21 49 21 12 0 34 -9 49 -21z m439 -19 c22 -25 27 -40 27 -81 0 -43 -5 -55 -29
-80 -28 -28 -48 -34 -101 -29 -39 3 -61 19 -76 55 -19 47 -18 84 6 123 25 40
53 53 105 47 29 -3 48 -12 68 -35z m210 34 c9 -3 12 -14 9 -30 -3 -19 -11 -24
-33 -24 -38 0 -49 -24 -49 -104 l0 -66 -30 0 -30 0 0 110 0 110 30 0 c22 0 30
-5 30 -17 0 -15 1 -15 13 -1 6 9 19 18 27 21 8 3 16 6 17 6 1 1 8 -1 16 -5z
m175 -10 c17 -12 20 -19 12 -34 -8 -16 -14 -17 -38 -8 -32 12 -66 4 -60 -14 2
-6 23 -17 46 -24 24 -6 49 -18 57 -24 21 -18 18 -67 -5 -90 -27 -27 -108 -28
-141 -1 -22 18 -23 21 -8 36 14 15 18 15 46 -1 32 -19 63 -14 63 10 0 9 -16
20 -40 26 -21 6 -46 17 -55 26 -16 16 -20 61 -7 80 23 34 93 44 130 18z
m-2958 -24 c7 -16 16 -30 21 -30 5 0 15 14 24 30 12 23 22 30 45 30 l30 0 -29
-52 -30 -53 29 -52 c17 -29 30 -55 30 -58 0 -3 -13 -5 -30 -5 -25 0 -33 7 -51
42 l-22 43 -20 -43 c-17 -34 -26 -42 -49 -42 -15 0 -28 2 -28 5 0 3 13 29 30
58 l29 52 -29 52 -30 53 34 0 c28 0 36 -5 46 -30z"/>
<path d="M10496 4715 c-24 -25 -21 -90 5 -109 29 -20 62 -6 73 31 17 62 -38
117 -78 78z"/>
<path d="M10879 4714 c-17 -20 -18 -89 -2 -105 14 -14 61 -15 75 -1 15 15 13
88 -2 107 -16 20 -54 19 -71 -1z"/>
<path d="M11312 4718 c-21 -21 -13 -28 33 -28 25 0 45 4 45 8 0 15 -24 32 -45
32 -12 0 -26 -5 -33 -12z"/>
<path d="M12042 4718 c-21 -21 -13 -28 33 -28 43 0 45 1 35 20 -12 22 -49 27
-68 8z"/>
<path d="M12716 4708 c-22 -31 -20 -74 4 -98 24 -24 29 -24 58 -4 16 11 22 25
22 54 0 64 -52 94 -84 48z"/>
<path d="M305 4286 c69 -46 128 -113 166 -187 50 -100 98 -232 125 -347 38
-157 43 -424 15 -740 -32 -359 -28 -602 15 -787 54 -236 130 -396 264 -559 78
-94 176 -177 355 -299 282 -192 374 -342 362 -592 -4 -76 -13 -138 -32 -200
-46 -158 -107 -329 -131 -366 -28 -45 -94 -183 -94 -198 0 -8 73 -11 241 -11
l241 0 -6 24 c-5 20 -3 23 13 19 13 -3 21 1 24 14 4 17 5 17 6 -1 1 -16 7 -18
48 -12 52 7 58 10 48 26 -4 7 -20 9 -38 6 -29 -6 -30 -5 -9 6 25 13 30 46 7
54 -24 9 -18 42 12 61 l26 17 -29 12 c-16 7 -40 10 -52 7 l-24 -6 24 26 c12
14 29 32 36 41 18 22 42 20 42 -3 0 -10 6 -21 14 -24 23 -9 26 4 8 31 -12 18
-13 27 -5 29 10 4 10 7 0 17 -6 8 -18 11 -24 9 -7 -3 -13 0 -13 5 0 6 8 13 18
15 15 4 15 5 0 6 -11 1 -15 7 -11 22 5 16 12 20 34 17 23 -4 29 -1 29 13 0 10
-5 21 -10 24 -6 4 -8 11 -5 16 4 5 0 9 -7 9 -7 0 -18 -10 -23 -23 -8 -16 -17
-21 -37 -19 -19 2 -28 -1 -28 -10 0 -8 -6 -23 -14 -33 -12 -16 -16 -17 -30 -6
-19 16 -21 34 -4 29 15 -5 49 22 42 34 -3 4 5 8 18 8 20 0 24 5 23 33 0 17 6
37 14 43 21 17 24 71 3 83 -16 10 -16 10 0 11 9 0 20 -4 23 -10 3 -5 14 -14
25 -20 15 -8 18 -6 15 13 -2 12 -7 32 -11 45 -5 19 -3 23 12 20 26 -4 29 27 5
54 -12 12 -34 24 -49 26 -28 3 -56 22 -34 22 7 0 12 8 12 18 0 10 11 25 25 32
14 7 25 19 25 27 0 15 17 18 22 3 2 -7 11 -5 23 4 20 15 20 15 -1 16 -11 0
-25 5 -32 12 -8 8 -15 8 -27 -2 -8 -7 -16 -10 -16 -6 -5 23 -4 33 3 48 6 13 1
21 -27 34 -22 10 -35 23 -35 35 0 11 -4 19 -10 19 -5 0 -10 5 -10 10 0 6 6 10
14 10 8 0 17 7 20 16 4 10 12 14 22 10 12 -5 15 -2 10 10 -3 8 0 25 8 36 15
22 8 69 -12 76 -7 2 -10 -2 -6 -11 3 -8 1 -18 -5 -22 -6 -3 -11 1 -11 10 0 9
-7 15 -16 13 -16 -3 -27 10 -38 45 -4 13 -12 16 -32 11 -20 -5 -25 -3 -22 7 3
8 12 13 21 13 9 -1 13 4 10 12 -3 9 2 14 16 14 22 0 29 24 11 35 -8 5 -8 11
-1 19 10 12 4 56 -7 56 -3 0 -17 -10 -30 -22 -21 -20 -24 -20 -19 -5 4 10 7
22 7 27 0 5 8 11 18 13 9 3 4 5 -12 4 -16 -1 -31 3 -33 10 -3 7 5 11 21 10 14
-1 25 3 25 8 1 6 -4 10 -9 10 -6 0 -14 6 -19 14 -7 10 -13 11 -30 2 -11 -7
-21 -18 -21 -25 0 -7 -12 -13 -29 -13 -16 0 -28 5 -26 11 6 32 20 46 41 46 20
0 23 3 16 18 -12 21 -5 42 14 42 8 0 14 5 14 10 0 6 0 13 0 18 0 10 -33 10
-48 -1 -9 -7 -17 -4 -26 9 -12 16 -12 20 2 30 9 7 20 10 24 8 5 -3 8 -1 8 4 0
5 -12 15 -27 22 -16 8 -37 22 -48 31 -11 9 -29 19 -40 21 -17 3 -15 7 16 28
l36 25 -23 18 c-14 10 -23 13 -22 6 2 -7 -14 -13 -44 -14 -26 -1 -45 1 -42 6
3 5 22 9 42 9 35 1 36 2 18 15 -17 13 -18 15 -3 15 9 0 17 7 17 15 0 8 7 15
15 15 18 0 20 16 3 26 -7 5 -8 3 -3 -6 6 -10 4 -12 -9 -7 -10 4 -27 7 -39 8
l-22 0 23 9 c29 12 28 34 -2 48 -22 10 -23 9 -19 -11 l5 -22 -16 22 c-10 14
-23 20 -33 16 -11 -4 -14 -2 -11 8 3 8 15 13 28 11 17 -2 21 2 16 14 -3 8 -6
18 -6 21 0 3 -7 0 -15 -7 -28 -23 -35 -5 -9 25 14 16 21 31 15 33 -5 2 -7 10
-4 18 4 10 0 12 -11 8 -10 -4 -16 -1 -16 7 0 9 -3 10 -11 2 -17 -17 -49 -3
-49 21 0 12 4 26 9 32 16 16 18 48 4 77 -16 31 -43 36 -43 7 0 -11 5 -20 11
-20 5 0 7 -5 4 -10 -9 -14 -35 7 -35 26 0 19 -39 18 -151 -5 -52 -11 -130 -24
-174 -30 -72 -11 -175 -31 -175 -34 1 -9 32 -100 43 -127 36 -82 175 -250 207
-250 6 0 10 -6 11 -12 0 -7 59 -62 130 -123 294 -250 399 -396 414 -580 7 -79
-9 -210 -36 -315 -13 -47 -51 -132 -57 -125 -2 2 2 30 9 62 16 76 16 266 0
323 -7 25 -29 78 -48 119 -47 99 -148 199 -313 310 -69 47 -154 108 -190 137
-238 189 -393 478 -440 824 -17 121 -14 419 6 620 11 107 18 264 18 405 0 202
-3 242 -22 330 -59 263 -154 464 -268 564 -39 34 -54 41 -88 41 l-41 0 50 -34z
m1090 -2168 c6 -4 2 -8 -7 -8 -10 0 -18 7 -18 17 0 9 3 12 8 7 4 -5 12 -12 17
-16z m-425 -8 c0 -5 -5 -10 -11 -10 -5 0 -7 5 -4 10 3 6 8 10 11 10 2 0 4 -4
4 -10z m103 -75 c4 -8 2 -17 -3 -20 -6 -4 -10 -4 -10 -1 0 2 -3 11 -6 20 -3 9
-2 16 4 16 5 0 12 -7 15 -15z m367 6 c0 -5 -9 -7 -20 -4 -11 3 -20 7 -20 9 0
2 9 4 20 4 11 0 20 -4 20 -9z m-200 -187 c0 -11 -28 -33 -34 -27 -13 13 -5 33
14 33 11 0 20 -3 20 -6z m85 -194 c-3 -5 -12 -7 -20 -3 -21 7 -19 13 6 13 11
0 18 -4 14 -10z m353 -122 c10 -10 15 -10 21 0 7 11 9 10 14 -2 8 -21 -36 -22
-53 -1 -15 18 1 20 18 3z m-123 -44 c-9 -9 -18 -14 -21 -11 -9 9 6 27 22 27
13 0 13 -2 -1 -16z m36 -101 c13 -16 12 -17 -3 -4 -17 13 -22 21 -14 21 2 0
10 -8 17 -17z m89 -13 c0 -5 -4 -10 -9 -10 -6 0 -13 5 -16 10 -3 6 1 10 9 10
9 0 16 -4 16 -10z m95 -100 c3 -5 -1 -10 -10 -10 -9 0 -13 5 -10 10 3 6 8 10
10 10 2 0 7 -4 10 -10z m132 -156 c-3 -3 -12 -4 -19 -1 -8 3 -5 6 6 6 11 1 17
-2 13 -5z m-73 -49 c-32 -24 -49 -18 -23 9 15 16 28 21 33 16 6 -6 3 -15 -10
-25z m23 -51 c-3 -3 -12 -4 -19 -1 -8 3 -5 6 6 6 11 1 17 -2 13 -5z m-17 -54
c0 -5 -11 -10 -25 -10 -14 0 -25 5 -25 10 0 6 11 10 25 10 14 0 25 -4 25 -10z
m65 -20 c-3 -5 -10 -10 -16 -10 -5 0 -9 5 -9 10 0 6 7 10 16 10 8 0 12 -4 9
-10z m-118 -77 c-12 -12 -20 -14 -28 -6 -7 7 -5 15 7 27 12 12 20 14 27 7 8
-8 6 -16 -6 -28z m103 -38 c0 -8 -2 -15 -4 -15 -2 0 -6 7 -10 15 -3 8 -1 15 4
15 6 0 10 -7 10 -15z m6 -64 c-10 -16 -33 -14 -39 3 -4 9 1 16 11 19 21 5 36
-8 28 -22z m94 -56 c7 -9 11 -18 8 -20 -9 -10 -38 7 -38 21 0 18 14 18 30 -1z
m-63 -31 c-3 -3 -12 -4 -19 -1 -8 3 -5 6 6 6 11 1 17 -2 13 -5z m-23 -123 c3
-4 3 -11 0 -14 -8 -8 -34 3 -34 14 0 11 27 12 34 0z m-24 -50 c0 -14 -18 -23
-30 -16 -6 4 -8 11 -5 16 8 12 35 12 35 0z m-240 -301 c0 -5 -5 -10 -11 -10
-5 0 -7 5 -4 10 3 6 8 10 11 10 2 0 4 -4 4 -10z m156 -27 c-10 -10 -19 5 -10
18 6 11 8 11 12 0 2 -7 1 -15 -2 -18z m74 -13 c0 -5 -7 -7 -15 -4 -8 4 -15 8
-15 10 0 2 7 4 15 4 8 0 15 -4 15 -10z"/>
<path d="M1516 2087 c3 -10 9 -15 12 -12 3 3 0 11 -7 18 -10 9 -11 8 -5 -6z"/>
<path d="M1703 1726 c-38 -17 -28 -36 17 -34 42 1 52 16 23 33 -12 7 -25 7
-40 1z"/>
<path d="M1985 1050 c-10 -11 -26 -20 -37 -20 -22 0 -24 -26 -2 -34 8 -3 12
-10 9 -16 -4 -6 1 -7 10 -3 12 4 13 8 5 13 -8 5 -2 10 14 14 21 5 26 12 26 36
0 35 -1 36 -25 10z"/>
<path d="M2002 798 c6 -18 28 -21 28 -4 0 9 -7 16 -16 16 -9 0 -14 -5 -12 -12z"/>
<path d="M1915 10 c3 -5 8 -10 11 -10 2 0 4 5 4 10 0 6 -5 10 -11 10 -5 0 -7
-4 -4 -10z"/>
</g>
</svg>
