<svg width="17" height="16" viewBox="0 0 17 16" fill="none" xmlns="http://www.w3.org/2000/svg">
<path d="M11.6671 2.37349V1.3335C11.6671 1.06016 11.4405 0.833496 11.1671 0.833496C10.8938 0.833496 10.6671 1.06016 10.6671 1.3335V2.3335H6.33381V1.3335C6.33381 1.06016 6.10714 0.833496 5.83381 0.833496C5.56048 0.833496 5.33381 1.06016 5.33381 1.3335V2.37349C3.53381 2.54016 2.66048 3.61349 2.52714 5.20683C2.51381 5.40016 2.67381 5.56016 2.86048 5.56016H14.1405C14.3338 5.56016 14.4938 5.39349 14.4738 5.20683C14.3405 3.61349 13.4671 2.54016 11.6671 2.37349Z" fill="#007AFF"/>
<path opacity="0.4" d="M13.8333 6.56006C14.2 6.56006 14.5 6.86006 14.5 7.22673V11.3334C14.5 13.3334 13.5 14.6667 11.1667 14.6667H5.83333C3.5 14.6667 2.5 13.3334 2.5 11.3334V7.22673C2.5 6.86006 2.8 6.56006 3.16667 6.56006H13.8333Z" fill="#007AFF"/>
<path d="M6.16667 10.0001C5.99333 10.0001 5.82 9.92674 5.69333 9.80674C5.57333 9.68007 5.5 9.50674 5.5 9.33341C5.5 9.16008 5.57333 8.98675 5.69333 8.86008C5.88 8.67342 6.17333 8.6134 6.42 8.72007C6.50667 8.7534 6.58 8.80008 6.64 8.86008C6.76 8.98675 6.83333 9.16008 6.83333 9.33341C6.83333 9.50674 6.76 9.68007 6.64 9.80674C6.51333 9.92674 6.34 10.0001 6.16667 10.0001Z" fill="#007AFF"/>
<path d="M8.49967 10.0001C8.32634 10.0001 8.15301 9.92674 8.02634 9.80674C7.90634 9.68007 7.83301 9.50674 7.83301 9.33341C7.83301 9.16008 7.90634 8.98675 8.02634 8.86008C8.08634 8.80008 8.15967 8.7534 8.24634 8.72007C8.49301 8.6134 8.78634 8.67342 8.97301 8.86008C9.09301 8.98675 9.16634 9.16008 9.16634 9.33341C9.16634 9.50674 9.09301 9.68007 8.97301 9.80674C8.93967 9.83341 8.90634 9.86007 8.87301 9.88674C8.83301 9.9134 8.79301 9.93342 8.75301 9.94675C8.71301 9.96675 8.67301 9.98009 8.63301 9.98675C8.58634 9.99342 8.54634 10.0001 8.49967 10.0001Z" fill="#007AFF"/>
<path d="M10.8337 9.99984C10.6603 9.99984 10.487 9.92651 10.3603 9.80651C10.2403 9.67984 10.167 9.50651 10.167 9.33318C10.167 9.15984 10.2403 8.98652 10.3603 8.85985C10.427 8.79985 10.4937 8.75317 10.5803 8.71984C10.7003 8.6665 10.8337 8.65317 10.967 8.67984C11.007 8.6865 11.047 8.69984 11.087 8.71984C11.127 8.73317 11.167 8.75319 11.207 8.77985C11.2403 8.80652 11.2737 8.83318 11.307 8.85985C11.427 8.98652 11.5003 9.15984 11.5003 9.33318C11.5003 9.50651 11.427 9.67984 11.307 9.80651C11.2737 9.83317 11.2403 9.85984 11.207 9.8865C11.167 9.91317 11.127 9.93319 11.087 9.94652C11.047 9.96652 11.007 9.97985 10.967 9.98652C10.9203 9.99319 10.8737 9.99984 10.8337 9.99984Z" fill="#007AFF"/>
<path d="M6.16667 12.3333C6.08 12.3333 5.99333 12.3134 5.91333 12.28C5.82667 12.2467 5.76 12.2 5.69333 12.14C5.57333 12.0133 5.5 11.84 5.5 11.6667C5.5 11.4933 5.57333 11.32 5.69333 11.1933C5.76 11.1333 5.82667 11.0867 5.91333 11.0533C6.03333 11 6.16667 10.9867 6.3 11.0133C6.34 11.02 6.38 11.0333 6.42 11.0533C6.46 11.0667 6.5 11.0867 6.54 11.1134C6.57333 11.14 6.60667 11.1667 6.64 11.1933C6.76 11.32 6.83333 11.4933 6.83333 11.6667C6.83333 11.84 6.76 12.0133 6.64 12.14C6.60667 12.1667 6.57333 12.2 6.54 12.22C6.5 12.2467 6.46 12.2667 6.42 12.28C6.38 12.3 6.34 12.3133 6.3 12.32C6.25333 12.3267 6.21333 12.3333 6.16667 12.3333Z" fill="#007AFF"/>
<path d="M8.49967 12.3333C8.32634 12.3333 8.15301 12.26 8.02634 12.14C7.90634 12.0133 7.83301 11.84 7.83301 11.6666C7.83301 11.4933 7.90634 11.32 8.02634 11.1933C8.27301 10.9466 8.72634 10.9466 8.97301 11.1933C9.09301 11.32 9.16634 11.4933 9.16634 11.6666C9.16634 11.84 9.09301 12.0133 8.97301 12.14C8.84634 12.26 8.67301 12.3333 8.49967 12.3333Z" fill="#007AFF"/>
<path d="M10.8337 12.3333C10.6603 12.3333 10.487 12.26 10.3603 12.14C10.2403 12.0133 10.167 11.84 10.167 11.6666C10.167 11.4933 10.2403 11.32 10.3603 11.1933C10.607 10.9466 11.0603 10.9466 11.307 11.1933C11.427 11.32 11.5003 11.4933 11.5003 11.6666C11.5003 11.84 11.427 12.0133 11.307 12.14C11.1803 12.26 11.007 12.3333 10.8337 12.3333Z" fill="#007AFF"/>
</svg>
