<svg width="24" height="25" viewBox="0 0 24 25" fill="none" xmlns="http://www.w3.org/2000/svg">
<path d="M16.7502 4.06V2.5C16.7502 2.09 16.4102 1.75 16.0002 1.75C15.5902 1.75 15.2502 2.09 15.2502 2.5V4H8.75022V2.5C8.75022 2.09 8.41022 1.75 8.00022 1.75C7.59022 1.75 7.25022 2.09 7.25022 2.5V4.06C4.55022 4.31 3.24023 5.92 3.04023 8.31C3.02023 8.6 3.26023 8.84 3.54023 8.84H20.4602C20.7502 8.84 20.9902 8.59 20.9602 8.31C20.7602 5.92 19.4502 4.31 16.7502 4.06Z" fill="#003268"/>
<path opacity="0.4" d="M20 10.3398C20.55 10.3398 21 10.7898 21 11.3398V17.4998C21 20.4998 19.5 22.4998 16 22.4998H8C4.5 22.4998 3 20.4998 3 17.4998V11.3398C3 10.7898 3.45 10.3398 4 10.3398H20Z" fill="#003268"/>
<path d="M8.5 15.4999C8.37 15.4999 8.24 15.4699 8.12 15.4199C8 15.3699 7.89001 15.2999 7.79001 15.2099C7.70001 15.1099 7.62999 14.9999 7.57999 14.8799C7.52999 14.7599 7.5 14.6299 7.5 14.4999C7.5 14.3699 7.52999 14.2399 7.57999 14.1199C7.62999 13.9999 7.70001 13.8899 7.79001 13.7899C7.89001 13.6999 8 13.6299 8.12 13.5799C8.36 13.4799 8.64 13.4799 8.88 13.5799C9 13.6299 9.10999 13.6999 9.20999 13.7899C9.29999 13.8899 9.37001 13.9999 9.42001 14.1199C9.47001 14.2399 9.5 14.3699 9.5 14.4999C9.5 14.6299 9.47001 14.7599 9.42001 14.8799C9.37001 14.9999 9.29999 15.1099 9.20999 15.2099C9.10999 15.2999 9 15.3699 8.88 15.4199C8.76 15.4699 8.63 15.4999 8.5 15.4999Z" fill="#003268"/>
<path d="M12 15.5001C11.87 15.5001 11.74 15.4701 11.62 15.4201C11.5 15.3701 11.39 15.3001 11.29 15.2101C11.11 15.0201 11 14.7601 11 14.5001C11 14.2401 11.11 13.9801 11.29 13.7901C11.39 13.7001 11.5 13.6301 11.62 13.5801C11.86 13.4701 12.14 13.4701 12.38 13.5801C12.5 13.6301 12.61 13.7001 12.71 13.7901C12.89 13.9801 13 14.2401 13 14.5001C13 14.7601 12.89 15.0201 12.71 15.2101C12.61 15.3001 12.5 15.3701 12.38 15.4201C12.26 15.4701 12.13 15.5001 12 15.5001Z" fill="#003268"/>
<path d="M8.5 18.9999C8.37 18.9999 8.24 18.9699 8.12 18.9199C8 18.8699 7.89001 18.7999 7.79001 18.7099C7.61001 18.5199 7.5 18.2599 7.5 17.9999C7.5 17.7399 7.61001 17.4799 7.79001 17.2899C7.89001 17.1999 8 17.1299 8.12 17.0799C8.36 16.9799 8.64 16.9799 8.88 17.0799C9 17.1299 9.10999 17.1999 9.20999 17.2899C9.38999 17.4799 9.5 17.7399 9.5 17.9999C9.5 18.2599 9.38999 18.5199 9.20999 18.7099C9.10999 18.7999 9 18.8699 8.88 18.9199C8.76 18.9699 8.63 18.9999 8.5 18.9999Z" fill="#003268"/>
</svg>
