<svg width="25" height="24" viewBox="0 0 25 24" fill="none" xmlns="http://www.w3.org/2000/svg">
<path d="M23.03 21.47L22.29 20.73C22.67 20.15 22.9 19.45 22.9 18.7C22.9 16.66 21.24 15 19.2 15C17.16 15 15.5 16.66 15.5 18.7C15.5 20.74 17.16 22.4 19.2 22.4C19.95 22.4 20.65 22.17 21.23 21.79L21.97 22.53C22.12 22.68 22.31 22.75 22.5 22.75C22.69 22.75 22.88 22.68 23.03 22.53C23.32 22.24 23.32 21.76 23.03 21.47Z" fill="#007AFF"/>
<path opacity="0.4" d="M2.5 12.97V6.99001C2.5 4.24001 4.74 2.01001 7.5 2.01001H17.5C20.26 2.01001 22.5 4.24001 22.5 7.00001V13.98C22.5 16.73 20.26 18.96 17.5 18.96H16C15.69 18.96 15.39 19.11 15.2 19.36L13.7 21.35C13.04 22.23 11.96 22.23 11.3 21.35L9.79999 19.36C9.62999 19.14 9.28 18.96 9 18.96H7.5C4.74 18.96 2.5 16.73 2.5 13.98V12.97Z" fill="#007AFF"/>
<path d="M12.5002 12C11.9402 12 11.4902 11.55 11.4902 11C11.4902 10.45 11.9402 10 12.4902 10C13.0402 10 13.4902 10.45 13.4902 11C13.4902 11.55 13.0602 12 12.5002 12Z" fill="#007AFF"/>
<path d="M16.5002 12C15.9402 12 15.4902 11.55 15.4902 11C15.4902 10.45 15.9402 10 16.4902 10C17.0402 10 17.4902 10.45 17.4902 11C17.4902 11.55 17.0602 12 16.5002 12Z" fill="#007AFF"/>
<path d="M8.50024 12C7.94024 12 7.49023 11.55 7.49023 11C7.49023 10.45 7.94023 10 8.49023 10C9.04023 10 9.49023 10.45 9.49023 11C9.49023 11.55 9.06024 12 8.50024 12Z" fill="#007AFF"/>
</svg>
