<svg width="17" height="16" viewBox="0 0 17 16" fill="none" xmlns="http://www.w3.org/2000/svg">
<path opacity="0.4" d="M8.49967 14.6668C12.1816 14.6668 15.1663 11.6821 15.1663 8.00016C15.1663 4.31826 12.1816 1.3335 8.49967 1.3335C4.81778 1.3335 1.83301 4.31826 1.83301 8.00016C1.83301 11.6821 4.81778 14.6668 8.49967 14.6668Z" fill="#007AFF"/>
<path d="M10.9731 10.6202C10.8864 10.6202 10.7998 10.6002 10.7198 10.5468L8.6531 9.3135C8.13977 9.00684 7.75977 8.3335 7.75977 7.74017V5.00684C7.75977 4.7335 7.98643 4.50684 8.25977 4.50684C8.5331 4.50684 8.75977 4.7335 8.75977 5.00684V7.74017C8.75977 7.98017 8.95977 8.3335 9.16643 8.4535L11.2331 9.68684C11.4731 9.82684 11.5464 10.1335 11.4064 10.3735C11.3064 10.5335 11.1398 10.6202 10.9731 10.6202Z" fill="#007AFF"/>
</svg>
