<svg width="24" height="25" viewBox="0 0 24 25" fill="none" xmlns="http://www.w3.org/2000/svg">
<path d="M16.3758 8.14333C17.7898 10.2363 18.4888 12.5963 18.2278 15.3133C18.2272 15.3191 18.2254 15.3247 18.2224 15.3297C18.2195 15.3347 18.2155 15.339 18.2108 15.3423C17.2656 16.0472 16.2066 16.585 15.0798 16.9323C15.0716 16.9348 15.0628 16.9344 15.0548 16.9313C15.0467 16.9287 15.0397 16.9234 15.0348 16.9163C14.7967 16.5837 14.5831 16.2341 14.3958 15.8703C14.3932 15.8653 14.3917 15.8597 14.3914 15.854C14.3911 15.8483 14.392 15.8426 14.3941 15.8373C14.3962 15.832 14.3994 15.8272 14.4035 15.8233C14.4076 15.8193 14.4125 15.8163 14.4178 15.8143C14.7578 15.6843 15.0828 15.5303 15.3948 15.3473C15.4006 15.344 15.4055 15.3394 15.409 15.3337C15.4126 15.328 15.4146 15.3216 15.415 15.3149C15.4154 15.3083 15.4142 15.3016 15.4113 15.2956C15.4085 15.2895 15.4042 15.2843 15.3988 15.2803C15.3326 15.2306 15.2676 15.1792 15.2038 15.1263C15.1983 15.1218 15.1916 15.119 15.1845 15.1181C15.1775 15.1172 15.1703 15.1183 15.1638 15.1213C13.1378 16.0623 10.9188 16.0623 8.86983 15.1213C8.86325 15.1186 8.85604 15.1177 8.84899 15.1187C8.84193 15.1198 8.83531 15.1228 8.82983 15.1273C8.76635 15.1798 8.70166 15.2308 8.63583 15.2803C8.63067 15.2843 8.62657 15.2895 8.62387 15.2954C8.62118 15.3014 8.61998 15.3079 8.62037 15.3144C8.62077 15.3209 8.62275 15.3272 8.62614 15.3328C8.62953 15.3383 8.63423 15.343 8.63983 15.3463C8.95183 15.5263 9.27583 15.6853 9.61583 15.8153C9.62105 15.8173 9.62582 15.8203 9.62981 15.8242C9.6338 15.8281 9.63693 15.8328 9.639 15.838C9.64108 15.8431 9.64204 15.8487 9.64184 15.8543C9.64164 15.8598 9.64027 15.8653 9.63783 15.8703C9.45349 16.2363 9.23944 16.5864 8.99783 16.9173C8.99284 16.9239 8.98593 16.9288 8.97805 16.9313C8.97017 16.9338 8.96171 16.9338 8.95383 16.9313C7.82904 16.5828 6.77189 16.0451 5.82783 15.3413C5.82337 15.3378 5.81967 15.3334 5.81692 15.3284C5.81418 15.3235 5.81244 15.318 5.81183 15.3123C5.59283 12.9623 6.03783 10.5823 7.66183 8.14333C7.66567 8.1372 7.67124 8.13233 7.67783 8.12933C8.47683 7.76033 9.33183 7.48933 10.2268 7.33433C10.2347 7.3333 10.2428 7.33466 10.2499 7.33822C10.257 7.34178 10.2629 7.34739 10.2668 7.35433C10.3778 7.55033 10.5048 7.80333 10.5898 8.00933C11.5387 7.86439 12.504 7.86439 13.4528 8.00933C13.5378 7.80733 13.6598 7.55033 13.7698 7.35333C13.7737 7.34612 13.7797 7.3403 13.7871 7.33671C13.7945 7.33312 13.8028 7.33194 13.8108 7.33333C14.7058 7.48933 15.5608 7.76133 16.3598 8.12933C16.3668 8.13221 16.3725 8.13655 16.3758 8.14333ZM11.0698 12.6133C11.0798 11.9183 10.5768 11.3433 9.94483 11.3433C9.31783 11.3433 8.81983 11.9133 8.81983 12.6133C8.81983 13.3133 9.32783 13.8833 9.94483 13.8833C10.5718 13.8833 11.0698 13.3133 11.0698 12.6133ZM15.2308 12.6133C15.2408 11.9183 14.7368 11.3433 14.1058 11.3433C13.4788 11.3433 12.9798 11.9133 12.9798 12.6133C12.9798 13.3133 13.4888 13.8833 14.1058 13.8833C14.7368 13.8833 15.2308 13.3133 15.2308 12.6133Z" fill="#5865F2"/>
</svg>
