<svg width="14" height="15" viewBox="0 0 14 15" fill="none" xmlns="http://www.w3.org/2000/svg">
<g clip-path="url(#clip0_98_2971)">
<path d="M4.372 6.6863C4.372 6.1068 4.6022 5.55104 5.01197 5.14127C5.42174 4.73151 5.9775 4.5013 6.557 4.5013C7.1365 4.5013 7.69226 4.73151 8.10203 5.14127C8.5118 5.55104 8.742 6.1068 8.742 6.6863C8.742 7.2658 8.5118 7.82156 8.10203 8.23133C7.69226 8.6411 7.1365 8.8713 6.557 8.8713C5.9775 8.8713 5.42174 8.6411 5.01197 8.23133C4.6022 7.82156 4.372 7.2658 4.372 6.6863ZM3.19 6.6863C3.19013 7.12833 3.27733 7.56601 3.4466 7.97434C3.61588 8.38267 3.86393 8.75366 4.17659 9.06613C4.48924 9.3786 4.86038 9.62643 5.26881 9.79546C5.67724 9.9645 6.11497 10.0514 6.557 10.0513C7.22273 10.0511 7.87346 9.8535 8.42688 9.48347C8.98031 9.11345 9.41158 8.58762 9.66616 7.97249C9.92074 7.35736 9.9872 6.68055 9.85713 6.02765C9.72706 5.37474 9.4063 4.77508 8.93541 4.30447C8.46453 3.83387 7.86467 3.51347 7.21169 3.38378C6.55871 3.2541 5.88194 3.32096 5.26696 3.57591C4.65198 3.83085 4.12641 4.26244 3.75672 4.81608C3.38702 5.36973 3.1898 6.02057 3.19 6.6863ZM9.27 3.1883C9.27 3.34371 9.31607 3.49564 9.4024 3.62487C9.48872 3.75411 9.61142 3.85485 9.75498 3.91437C9.89854 3.97389 10.0565 3.98952 10.209 3.95927C10.3614 3.92902 10.5015 3.85426 10.6114 3.74444C10.7214 3.63462 10.7963 3.49466 10.8268 3.34225C10.8572 3.18985 10.8418 3.03184 10.7825 2.8882C10.7231 2.74456 10.6225 2.62174 10.4934 2.53525C10.3643 2.44876 10.2124 2.4025 10.057 2.4023C9.84845 2.4023 9.64842 2.48508 9.50086 2.63245C9.3533 2.77983 9.27027 2.97975 9.27 3.1883ZM3.908 12.0203C3.268 11.9903 2.921 11.8843 2.69 11.7943C2.40532 11.6891 2.14771 11.5217 1.936 11.3043C1.71827 11.0932 1.5508 10.8359 1.446 10.5513C1.356 10.3213 1.249 9.9733 1.22 9.3343C1.188 8.6443 1.182 8.4363 1.182 6.6863C1.182 4.9363 1.189 4.7293 1.22 4.0383C1.25 3.3983 1.356 3.0523 1.446 2.8213C1.55091 2.5365 1.71835 2.27884 1.936 2.0673C2.166 1.8373 2.384 1.6963 2.69 1.5773C2.921 1.4873 3.269 1.3813 3.908 1.3523C4.599 1.3203 4.807 1.3133 6.557 1.3133C8.307 1.3133 8.515 1.3203 9.207 1.3523C9.846 1.3813 10.193 1.4883 10.424 1.5773C10.73 1.6963 10.949 1.8383 11.179 2.0673C11.409 2.2973 11.549 2.5153 11.669 2.8213C11.759 3.0513 11.865 3.3993 11.895 4.0383C11.926 4.7293 11.933 4.9363 11.933 6.6863C11.933 8.4363 11.926 8.6433 11.895 9.3343C11.865 9.9743 11.758 10.3203 11.669 10.5513C11.564 10.8357 11.3965 11.093 11.179 11.3043C10.949 11.5343 10.73 11.6753 10.424 11.7943C10.194 11.8843 9.846 11.9913 9.207 12.0203C8.515 12.0523 8.307 12.0583 6.557 12.0583C4.806 12.0583 4.6 12.0523 3.908 12.0203ZM3.854 0.173301C3.156 0.203301 2.679 0.315301 2.262 0.477301C1.82467 0.641959 1.42848 0.899944 1.101 1.2333C0.736 1.5973 0.511 1.9633 0.344 2.3933C0.182 2.8103 0.071 3.2873 0.04 3.9843C0.007 4.6833 0 4.9063 0 6.6863C0 8.4663 0.007 8.6893 0.04 9.3883C0.071 10.0853 0.182 10.5623 0.344 10.9783C0.512 11.4093 0.736 11.7753 1.101 12.1393C1.465 12.5033 1.831 12.7273 2.262 12.8953C2.679 13.0573 3.156 13.1673 3.854 13.1993C4.554 13.2313 4.776 13.2393 6.557 13.2393C8.337 13.2393 8.561 13.2313 9.26 13.1993C9.958 13.1673 10.435 13.0573 10.852 12.8953C11.2892 12.7304 11.6854 12.4725 12.013 12.1393C12.3467 11.8123 12.6051 11.4165 12.77 10.9793C12.932 10.5623 13.043 10.0853 13.074 9.3883C13.106 8.6883 13.114 8.4663 13.114 6.6863C13.114 4.9063 13.106 4.6833 13.074 3.9843C13.042 3.2873 12.932 2.8103 12.77 2.3943C12.6049 1.95697 12.3466 1.5608 12.013 1.2333C11.686 0.899866 11.2901 0.641857 10.853 0.477301C10.434 0.315301 9.957 0.204301 9.26 0.173301C8.56 0.141301 8.338 0.133301 6.557 0.133301C4.777 0.133301 4.553 0.140301 3.854 0.173301Z" fill="url(#paint0_radial_98_2971)"/>
<path d="M4.372 6.6863C4.372 6.1068 4.6022 5.55104 5.01197 5.14127C5.42174 4.73151 5.9775 4.5013 6.557 4.5013C7.1365 4.5013 7.69226 4.73151 8.10203 5.14127C8.5118 5.55104 8.742 6.1068 8.742 6.6863C8.742 7.2658 8.5118 7.82156 8.10203 8.23133C7.69226 8.6411 7.1365 8.8713 6.557 8.8713C5.9775 8.8713 5.42174 8.6411 5.01197 8.23133C4.6022 7.82156 4.372 7.2658 4.372 6.6863ZM3.19 6.6863C3.19013 7.12833 3.27733 7.56601 3.4466 7.97434C3.61588 8.38267 3.86393 8.75366 4.17659 9.06613C4.48924 9.3786 4.86038 9.62643 5.26881 9.79546C5.67724 9.9645 6.11497 10.0514 6.557 10.0513C7.22273 10.0511 7.87346 9.8535 8.42688 9.48347C8.98031 9.11345 9.41158 8.58762 9.66616 7.97249C9.92074 7.35736 9.9872 6.68055 9.85713 6.02765C9.72706 5.37474 9.4063 4.77508 8.93541 4.30447C8.46453 3.83387 7.86467 3.51347 7.21169 3.38378C6.55871 3.2541 5.88194 3.32096 5.26696 3.57591C4.65198 3.83085 4.12641 4.26244 3.75672 4.81608C3.38702 5.36973 3.1898 6.02057 3.19 6.6863ZM9.27 3.1883C9.27 3.34371 9.31607 3.49564 9.4024 3.62487C9.48872 3.75411 9.61142 3.85485 9.75498 3.91437C9.89854 3.97389 10.0565 3.98952 10.209 3.95927C10.3614 3.92902 10.5015 3.85426 10.6114 3.74444C10.7214 3.63462 10.7963 3.49466 10.8268 3.34225C10.8572 3.18985 10.8418 3.03184 10.7825 2.8882C10.7231 2.74456 10.6225 2.62174 10.4934 2.53525C10.3643 2.44876 10.2124 2.4025 10.057 2.4023C9.84845 2.4023 9.64842 2.48508 9.50086 2.63245C9.3533 2.77983 9.27027 2.97975 9.27 3.1883ZM3.908 12.0203C3.268 11.9903 2.921 11.8843 2.69 11.7943C2.40532 11.6891 2.14771 11.5217 1.936 11.3043C1.71827 11.0932 1.5508 10.8359 1.446 10.5513C1.356 10.3213 1.249 9.9733 1.22 9.3343C1.188 8.6443 1.182 8.4363 1.182 6.6863C1.182 4.9363 1.189 4.7293 1.22 4.0383C1.25 3.3983 1.356 3.0523 1.446 2.8213C1.55091 2.5365 1.71835 2.27884 1.936 2.0673C2.166 1.8373 2.384 1.6963 2.69 1.5773C2.921 1.4873 3.269 1.3813 3.908 1.3523C4.599 1.3203 4.807 1.3133 6.557 1.3133C8.307 1.3133 8.515 1.3203 9.207 1.3523C9.846 1.3813 10.193 1.4883 10.424 1.5773C10.73 1.6963 10.949 1.8383 11.179 2.0673C11.409 2.2973 11.549 2.5153 11.669 2.8213C11.759 3.0513 11.865 3.3993 11.895 4.0383C11.926 4.7293 11.933 4.9363 11.933 6.6863C11.933 8.4363 11.926 8.6433 11.895 9.3343C11.865 9.9743 11.758 10.3203 11.669 10.5513C11.564 10.8357 11.3965 11.093 11.179 11.3043C10.949 11.5343 10.73 11.6753 10.424 11.7943C10.194 11.8843 9.846 11.9913 9.207 12.0203C8.515 12.0523 8.307 12.0583 6.557 12.0583C4.806 12.0583 4.6 12.0523 3.908 12.0203ZM3.854 0.173301C3.156 0.203301 2.679 0.315301 2.262 0.477301C1.82467 0.641959 1.42848 0.899944 1.101 1.2333C0.736 1.5973 0.511 1.9633 0.344 2.3933C0.182 2.8103 0.071 3.2873 0.04 3.9843C0.007 4.6833 0 4.9063 0 6.6863C0 8.4663 0.007 8.6893 0.04 9.3883C0.071 10.0853 0.182 10.5623 0.344 10.9783C0.512 11.4093 0.736 11.7753 1.101 12.1393C1.465 12.5033 1.831 12.7273 2.262 12.8953C2.679 13.0573 3.156 13.1673 3.854 13.1993C4.554 13.2313 4.776 13.2393 6.557 13.2393C8.337 13.2393 8.561 13.2313 9.26 13.1993C9.958 13.1673 10.435 13.0573 10.852 12.8953C11.2892 12.7304 11.6854 12.4725 12.013 12.1393C12.3467 11.8123 12.6051 11.4165 12.77 10.9793C12.932 10.5623 13.043 10.0853 13.074 9.3883C13.106 8.6883 13.114 8.4663 13.114 6.6863C13.114 4.9063 13.106 4.6833 13.074 3.9843C13.042 3.2873 12.932 2.8103 12.77 2.3943C12.6049 1.95697 12.3466 1.5608 12.013 1.2333C11.686 0.899866 11.2901 0.641857 10.853 0.477301C10.434 0.315301 9.957 0.204301 9.26 0.173301C8.56 0.141301 8.338 0.133301 6.557 0.133301C4.777 0.133301 4.553 0.140301 3.854 0.173301Z" fill="url(#paint1_radial_98_2971)"/>
</g>
<defs>
<radialGradient id="paint0_radial_98_2971" cx="0" cy="0" r="1" gradientUnits="userSpaceOnUse" gradientTransform="translate(1.742 13.3013) scale(17.1189 17.1087)">
<stop offset="0.09" stop-color="#FA8F21"/>
<stop offset="0.78" stop-color="#D82D7E"/>
</radialGradient>
<radialGradient id="paint1_radial_98_2971" cx="0" cy="0" r="1" gradientUnits="userSpaceOnUse" gradientTransform="translate(7.953 13.8883) scale(13.4921 13.484)">
<stop offset="0.64" stop-color="#8C3AAA" stop-opacity="0"/>
<stop offset="1" stop-color="#8C3AAA"/>
</radialGradient>
<clipPath id="clip0_98_2971">
<rect width="14" height="14" fill="white" transform="translate(0 0.133301)"/>
</clipPath>
</defs>
</svg>
