<svg width="24" height="25" viewBox="0 0 24 25" fill="none" xmlns="http://www.w3.org/2000/svg">
<path d="M5.50491 6.57733C5.50491 6.05833 5.93891 5.63733 6.47491 5.63733H17.6489C18.1849 5.63733 18.6189 6.05833 18.6189 6.57733V17.8123C18.6189 18.3313 18.1849 18.7523 17.6489 18.7523H6.47391C5.93891 18.7523 5.50391 18.3313 5.50391 17.8123L5.50491 6.57733Z" fill="#006699"/>
<path d="M9.49011 16.6123V10.7083H7.52811V16.6123H9.49011ZM8.51011 9.9023C9.19411 9.9023 9.62011 9.4493 9.62011 8.8823C9.60711 8.3023 9.19411 7.8623 8.52211 7.8623C7.85111 7.8623 7.41211 8.3023 7.41211 8.8823C7.41211 9.4493 7.83811 9.9023 8.49611 9.9023H8.50911H8.51011ZM10.5761 16.6123H12.5391V13.3153C12.5391 13.1393 12.5511 12.9623 12.6031 12.8373C12.7451 12.4843 13.0681 12.1193 13.6101 12.1193C14.3201 12.1193 14.6041 12.6603 14.6041 13.4543V16.6123H16.5661V13.2273C16.5661 11.4143 15.5981 10.5703 14.3071 10.5703C13.2491 10.5703 12.7841 11.1613 12.5261 11.5643H12.5391V10.7083H10.5761C10.6021 11.2623 10.5761 16.6123 10.5761 16.6123Z" fill="white"/>
</svg>
