<svg width="322" height="296" viewBox="0 0 322 296" fill="none" xmlns="http://www.w3.org/2000/svg">
<g clip-path="url(#clip0_70_4346)">
<rect x="76.4121" y="0.788574" width="259.649" height="233.494" rx="36.4288" transform="rotate(19.1011 76.4121 0.788574)" fill="white" fill-opacity="0.9"/>
<path d="M278.153 114.642L118.977 37.3477C112.648 34.2744 105.026 36.9137 101.953 43.2427L37.7221 175.517C34.6488 181.846 37.2881 189.468 43.6172 192.541L202.793 269.835C209.122 272.908 216.744 270.269 219.817 263.94L284.048 131.666C287.121 125.337 284.482 117.715 278.153 114.642Z" fill="#E6F2FF"/>
<path d="M210.733 263.034L203.241 259.396C203.041 259.299 202.96 259.065 203.057 258.864C203.155 258.663 203.389 258.582 203.589 258.68L210.723 262.144L278.237 123.109L112.285 42.5245L44.7715 181.56L71.1146 194.352C71.3151 194.449 71.3962 194.683 71.2988 194.884C71.2014 195.084 70.9674 195.165 70.7668 195.068L44.0656 182.102C43.8651 182.005 43.784 181.771 43.8814 181.57L111.743 41.8186C111.84 41.618 112.075 41.537 112.275 41.6343L278.943 122.566C279.143 122.664 279.224 122.898 279.127 123.098L211.265 262.85C211.168 263.05 210.934 263.131 210.733 263.034Z" fill="white"/>
<path d="M120.599 124.381C108.595 118.552 103.57 104.038 109.399 92.0343C115.228 80.0302 129.741 75.0047 141.745 80.8337C153.749 86.6627 158.775 101.176 152.946 113.18C147.117 125.184 132.603 130.21 120.599 124.381ZM141.404 81.5356C129.787 75.8944 115.756 80.7647 110.122 92.3677C104.488 103.971 109.351 118.016 120.954 123.65C132.557 129.284 146.602 124.421 152.236 112.818C157.871 101.215 153.007 87.1699 141.404 81.5356Z" fill="white"/>
<path d="M122.993 119.453C113.696 114.939 109.805 103.703 114.32 94.406C118.834 85.1093 130.07 81.2186 139.367 85.733C148.664 90.2474 152.554 101.484 148.04 110.78C143.526 120.077 132.29 123.968 122.993 119.453ZM139.019 86.4492C130.124 82.1296 119.356 85.8582 115.036 94.7538C110.716 103.649 114.445 114.417 123.341 118.737C132.236 123.057 143.004 119.328 147.324 110.432C151.643 101.537 147.915 90.7688 139.019 86.4492Z" fill="white"/>
<path d="M133.053 101.946C133.053 101.946 133.01 101.925 132.981 101.911C132.802 101.771 132.777 101.529 132.896 101.357C133.731 100.257 134.57 98.8586 135.321 97.3116C137.422 92.9855 137.617 90.1772 137.13 89.9407C136.643 89.7042 134.557 91.5944 132.456 95.9204C131.705 97.4675 131.124 98.9912 130.776 100.327C130.722 100.548 130.503 100.672 130.288 100.603C130.081 100.556 129.943 100.33 130.012 100.115C130.381 98.7363 130.968 97.1627 131.747 95.5583C133.479 91.9914 136.009 88.4937 137.485 89.2101C138.96 89.9266 137.776 94.0782 136.044 97.6451C135.272 99.2351 134.413 100.677 133.536 101.826C133.424 101.984 133.21 102.022 133.053 101.946Z" fill="white"/>
<path d="M125.039 103.613C121.987 102.131 119.188 99.6213 120.029 97.888C120.871 96.1547 124.575 96.8026 127.626 98.2842C128.615 98.7642 129.533 99.3162 130.316 99.9267C130.496 100.067 130.52 100.309 130.401 100.481C130.26 100.661 130.018 100.685 129.846 100.566C129.099 99.9907 128.224 99.4595 127.293 99.0074C123.998 97.4076 121.212 97.3117 120.76 98.2428C120.308 99.1739 122.106 101.304 125.401 102.904C126.346 103.363 127.319 103.729 128.219 103.954C128.426 104.001 128.564 104.227 128.495 104.442C128.441 104.663 128.221 104.787 128.007 104.718C127.064 104.473 126.027 104.093 125.039 103.613Z" fill="white"/>
<path d="M129.285 106.1C127.637 105.3 126.945 103.299 127.744 101.652C128.544 100.005 130.545 99.3121 132.192 100.112C133.839 100.912 134.532 102.912 133.732 104.56C132.932 106.207 130.932 106.9 129.285 106.1ZM131.844 100.828C130.584 100.216 129.073 100.739 128.461 102C127.849 103.26 128.372 104.771 129.632 105.383C130.893 105.996 132.404 105.472 133.016 104.212C133.628 102.951 133.105 101.44 131.844 100.828Z" fill="white"/>
<path d="M184.504 159.272L167.2 150.869L159.542 166.641L176.846 175.043L184.504 159.272Z" fill="#F9B28A"/>
<path d="M200.306 144.959C196.098 153.625 188.185 168.317 173.129 161.007C158.074 153.696 164.727 138.392 168.935 129.726C173.143 121.059 183.571 117.448 192.237 121.657C200.904 125.865 204.514 136.293 200.306 144.959Z" fill="#F9B28A"/>
<path d="M172.735 161.488C168.954 159.652 166.822 156.97 166.692 156.801C166.561 156.631 166.594 156.382 166.764 156.251C166.933 156.121 167.183 156.154 167.313 156.323C167.356 156.38 172.068 162.315 179.847 162.41C180.06 162.407 180.234 162.598 180.236 162.811C180.239 163.025 180.048 163.198 179.835 163.201C177.057 163.162 174.677 162.448 172.729 161.502L172.735 161.488Z" fill="#262626"/>
<path d="M171.859 135.447C170.613 138.011 167.535 139.065 164.985 137.827C162.435 136.589 161.367 133.503 162.605 130.954C163.843 128.404 166.929 127.335 169.478 128.573C172.028 129.812 173.097 132.897 171.859 135.447Z" fill="#F9B28A"/>
<path d="M203.244 150.687C201.999 153.251 198.92 154.305 196.371 153.067C193.821 151.829 192.752 148.743 193.991 146.194C195.229 143.644 198.314 142.575 200.864 143.813C203.414 145.052 204.482 148.137 203.244 150.687Z" fill="#F9B28A"/>
<path d="M176.31 155.186C174.935 154.519 174.67 152.584 174.662 152.492C174.645 152.271 174.793 152.077 175.006 152.039C175.233 152.008 175.42 152.17 175.458 152.383C175.458 152.383 175.676 153.976 176.665 154.456L176.693 154.47C177.345 154.768 178.233 154.544 179.335 153.805C179.519 153.682 179.762 153.729 179.885 153.913C180.008 154.096 179.961 154.339 179.777 154.462C178.434 155.368 177.284 155.624 176.36 155.193C176.346 155.186 176.331 155.179 176.317 155.172L176.31 155.186Z" fill="#262626"/>
<path d="M164.133 133.2C162.958 132.629 161.553 133.116 160.983 134.29C160.893 134.476 160.831 134.676 160.805 134.876C160.574 135.207 160.35 135.594 160.148 136.009C159.355 137.642 159.138 139.183 159.668 139.44C160.155 139.677 161.106 138.74 161.887 137.314C161.959 137.348 162.009 137.391 162.081 137.425C163.255 137.996 164.66 137.509 165.23 136.335C165.801 135.16 165.314 133.756 164.14 133.185L164.133 133.2Z" fill="white"/>
<path d="M200.531 150.874C201.706 151.445 202.192 152.849 201.622 154.024C201.531 154.21 201.412 154.382 201.271 154.526C201.155 154.912 200.989 155.327 200.787 155.743C199.994 157.376 198.917 158.499 198.387 158.242C197.9 158.005 198.049 156.679 198.687 155.183C198.615 155.148 198.551 155.135 198.479 155.1C197.304 154.53 196.818 153.125 197.388 151.95C197.959 150.776 199.363 150.289 200.538 150.86L200.531 150.874Z" fill="white"/>
<path d="M167.229 133.199C167.229 133.199 166.607 114.539 176.824 118.544C187.04 122.549 171.745 124.664 167.229 133.199Z" fill="#754034"/>
<path d="M198.617 148.439C198.617 148.439 200.119 133.679 201.161 127.742C202.189 121.797 210.079 127.788 207.054 135.365C204.023 142.957 198.623 148.425 198.623 148.425L198.617 148.439Z" fill="#754034"/>
<path d="M181.004 104.836C181.004 104.836 169.621 117.596 174.627 123.036C179.633 128.476 189.273 124.518 197.049 131.215C204.402 137.547 206.19 128.98 203.791 122.327C201.392 115.675 193.536 117.525 185.228 113.49C180.472 111.181 181.011 104.822 181.011 104.822L181.004 104.836Z" fill="#754034"/>
<path d="M198.207 191.559C180.736 175.517 169.448 168.141 169.448 168.141C169.448 168.141 156.664 163.845 133.259 160.021C105.766 155.54 75.866 208.183 75.866 208.183L201.809 269.34C201.809 269.34 218.759 210.408 198.222 191.566L198.207 191.559Z" fill="#B06D81"/>
<path d="M165.846 176.871C172.478 180.092 179.219 180.427 182.575 178.038C174.307 171.332 170.274 166.878 170.26 166.871C170.26 166.871 164.286 166.413 154.574 164.175C154.587 168.342 159.056 173.574 165.832 176.864L165.846 176.871Z" fill="#F9B28A"/>
<path d="M80.9478 206.03C80.8618 205.989 80.8041 205.925 80.7603 205.833C80.6653 205.628 80.7623 205.391 80.9465 205.304C90.3184 200.95 107.659 193.421 118.351 191.815C118.565 191.777 118.773 191.932 118.811 192.145C118.849 192.358 118.695 192.566 118.482 192.604C107.888 194.187 90.6332 201.688 81.3038 206.026C81.1904 206.077 81.0693 206.072 80.969 206.023L80.9478 206.03Z" fill="#262626"/>
<path d="M110.752 223.069C110.752 223.069 110.637 223.014 110.601 222.943C110.477 222.759 110.51 222.51 110.694 222.386C115.716 218.824 123.005 211.069 126.9 206.765C127.048 206.607 127.304 206.589 127.463 206.737C127.621 206.885 127.638 207.141 127.491 207.299C123.581 211.632 116.25 219.438 111.157 223.036C111.03 223.116 110.881 223.132 110.752 223.069Z" fill="#262626"/>
<path d="M137.332 161.113L189.216 186.308C190.076 186.725 190.429 187.746 190.012 188.606L173.04 223.558C172.629 224.403 171.601 224.771 170.741 224.354L118.857 199.16C118.012 198.749 117.644 197.721 118.062 196.861L135.034 161.909C135.451 161.05 136.473 160.696 137.332 161.113Z" fill="#5D5D5D"/>
<path d="M138.831 166.409C138.449 167.197 137.512 167.521 136.724 167.138C135.937 166.756 135.612 165.819 135.995 165.031C136.378 164.244 137.314 163.919 138.102 164.302C138.89 164.684 139.214 165.621 138.831 166.409Z" fill="#B2CEFF"/>
<path d="M137.971 165.991C137.818 166.306 137.442 166.424 137.141 166.278C136.826 166.125 136.708 165.749 136.854 165.448C137 165.148 137.369 165.008 137.684 165.161C137.984 165.307 138.124 165.676 137.971 165.991Z" fill="#262626"/>
<path d="M171.886 226.043C171.886 226.043 171.669 239.285 180.962 237.354C190.27 235.43 187.695 219.734 187.695 219.734L171.886 226.043Z" fill="#F9B28A"/>
<path d="M171.886 226.043C171.886 226.043 164.537 213.18 165.568 210.583C166.599 207.986 172.952 218.452 172.952 218.452C172.952 218.452 167.172 208.264 168.1 205.369C169.021 202.488 174.688 213.418 174.688 213.418C174.688 213.418 169.903 203.624 171.507 201.305C173.111 198.986 178.737 207.524 178.737 207.524C178.737 207.524 174.249 197.627 175.477 196.081C176.706 194.536 182.766 203.674 182.766 203.674L185.666 197.701C185.666 197.701 187.991 210.85 187.703 219.756L171.894 226.064L171.886 226.043Z" fill="#F9B28A"/>
<path d="M167.318 252.149C167.146 252.065 167.059 251.881 167.114 251.695L170.945 236.951C171 236.729 171.219 236.606 171.433 236.675C171.64 236.722 171.778 236.948 171.71 237.163L167.878 251.907C167.824 252.128 167.604 252.252 167.39 252.183C167.361 252.169 167.347 252.162 167.318 252.149Z" fill="#262626"/>
<path d="M200.812 265.563C200.697 265.507 200.61 265.394 200.594 265.245C200.57 265.003 197.978 241.687 188.992 232.048C188.841 231.886 188.852 231.644 189.014 231.493C189.176 231.341 189.419 231.353 189.57 231.515C198.743 241.351 201.28 264.197 201.377 265.164C201.394 265.385 201.246 265.579 201.026 265.596C200.947 265.611 200.869 265.591 200.812 265.563Z" fill="#262626"/>
</g>
<defs>
<clipPath id="clip0_70_4346">
<rect x="76.4121" y="0.788574" width="259.649" height="233.494" rx="36.4288" transform="rotate(19.1011 76.4121 0.788574)" fill="white"/>
</clipPath>
</defs>
</svg>
