<svg width="269" height="141" viewBox="0 0 269 141" fill="none" xmlns="http://www.w3.org/2000/svg">
<g clip-path="url(#clip0_78_5531)">
<rect x="17.959" y="0.219238" width="266.637" height="52.9883" rx="14.4448" transform="rotate(19.8045 17.959 0.219238)" fill="white"/>
<path d="M39.8994 20.6776L212.82 82.9481" stroke="#D8D8D8" stroke-width="5.28473" stroke-linecap="round"/>
<path d="M34.9258 34.4891L207.847 96.7597" stroke="url(#paint0_linear_78_5531)" stroke-width="5.28473" stroke-linecap="round"/>
<path d="M34.9258 34.4891L207.847 96.7597" stroke="#D8D8D8" stroke-width="5.28473" stroke-linecap="round"/>
<path d="M29.9521 48.3007L202.873 110.571" stroke="url(#paint1_linear_78_5531)" stroke-width="5.28473" stroke-linecap="round"/>
<path d="M234.085 108.778H231.585C231.175 108.778 230.835 108.438 230.835 108.028C230.835 107.618 231.175 107.278 231.585 107.278H234.085C236.705 107.278 238.835 105.148 238.835 102.528C238.835 99.9082 236.705 97.7782 234.085 97.7782H229.085C226.465 97.7782 224.335 99.9082 224.335 102.528C224.335 103.628 224.725 104.698 225.425 105.548C225.685 105.868 225.645 106.338 225.325 106.608C225.005 106.868 224.535 106.828 224.265 106.508C223.335 105.388 222.825 103.978 222.825 102.528C222.825 99.0782 225.625 96.2782 229.075 96.2782H234.075C237.525 96.2782 240.325 99.0782 240.325 102.528C240.325 105.978 237.535 108.778 234.085 108.778Z" fill="#007AFF"/>
<path opacity="0.4" d="M238.085 115.778H233.085C229.635 115.778 226.835 112.978 226.835 109.528C226.835 106.078 229.635 103.278 233.085 103.278H235.585C235.995 103.278 236.335 103.618 236.335 104.028C236.335 104.438 235.995 104.778 235.585 104.778H233.085C230.465 104.778 228.335 106.908 228.335 109.528C228.335 112.148 230.465 114.278 233.085 114.278H238.085C240.705 114.278 242.835 112.148 242.835 109.528C242.835 108.428 242.445 107.358 241.745 106.508C241.485 106.188 241.525 105.718 241.845 105.448C242.165 105.178 242.635 105.228 242.905 105.548C243.835 106.668 244.345 108.078 244.345 109.528C244.335 112.978 241.535 115.778 238.085 115.778Z" fill="#007AFF"/>
</g>
<rect x="18.1685" y="0.664648" width="265.941" height="52.2922" rx="14.0967" transform="rotate(19.8045 18.1685 0.664648)" stroke="#D8D8D8" stroke-opacity="0.79" stroke-width="0.696135"/>
<defs>
<linearGradient id="paint0_linear_78_5531" x1="34.7564" y1="34.9596" x2="207.677" y2="97.2301" gradientUnits="userSpaceOnUse">
<stop stop-color="#D8D8D8"/>
<stop offset="1" stop-color="#727272" stop-opacity="0.5"/>
</linearGradient>
<linearGradient id="paint1_linear_78_5531" x1="29.7827" y1="48.7711" x2="202.703" y2="111.042" gradientUnits="userSpaceOnUse">
<stop stop-color="#D8D8D8"/>
<stop offset="1" stop-color="#727272" stop-opacity="0.5"/>
</linearGradient>
<clipPath id="clip0_78_5531">
<rect x="17.959" y="0.219238" width="266.637" height="52.9883" rx="14.4448" transform="rotate(19.8045 17.959 0.219238)" fill="white"/>
</clipPath>
</defs>
</svg>
