<svg width="356" height="293" viewBox="0 0 356 293" fill="none" xmlns="http://www.w3.org/2000/svg">
<g clip-path="url(#clip0_70_2683)">
<rect x="0.0888672" y="94.4326" width="289.104" height="219.605" rx="17.3246" transform="rotate(-25.4117 0.0888672 94.4326)" fill="white" fill-opacity="0.9"/>
<g clip-path="url(#clip1_70_2683)">
<rect x="38.0479" y="94.9536" width="255.336" height="159.292" rx="8.66228" transform="rotate(-19.1756 38.0479 94.9536)" fill="#E6F2FF"/>
<g clip-path="url(#clip2_70_2683)">
<path d="M197.596 141.64C197.596 141.64 195.807 122.809 193.241 123.116C190.672 123.424 191.507 131.298 191.507 131.298C191.507 131.298 179.253 125.153 176.588 125.784C174.192 126.347 177.284 139.283 178.598 141.287C179.829 143.166 189.523 146.457 189.523 146.457L197.6 141.642L197.596 141.64Z" fill="#ECB58C"/>
<path d="M175.383 119.841L180.067 143.039C180.144 143.421 180.517 143.668 180.899 143.591L193.236 141.1C193.618 141.023 193.865 140.651 193.788 140.269L189.104 117.071C189.027 116.689 188.654 116.441 188.272 116.519L175.935 119.01C175.553 119.087 175.306 119.459 175.383 119.841Z" fill="#423E67"/>
<path d="M188.066 117.822L176.64 120.128C176.64 120.128 176.623 120.134 176.613 120.138C176.276 120.22 176.061 120.545 176.128 120.88L180.35 141.804C180.419 142.145 180.761 142.365 181.114 142.296L192.54 139.991C192.896 139.917 193.123 139.584 193.054 139.242L188.832 118.319C188.763 117.977 188.421 117.757 188.068 117.826L188.066 117.822Z" fill="#5F5B88"/>
<g style="mix-blend-mode:multiply">
<path d="M183.643 118.202L180.865 118.763C180.783 118.781 180.703 118.728 180.684 118.642C180.667 118.559 180.72 118.479 180.806 118.461L183.584 117.899C183.667 117.882 183.747 117.935 183.765 118.021C183.782 118.103 183.729 118.183 183.643 118.202Z" fill="#423E67"/>
</g>
<g style="mix-blend-mode:multiply">
<path d="M184.345 117.903C184.362 117.985 184.309 118.065 184.223 118.084C184.141 118.101 184.061 118.048 184.043 117.962C184.024 117.876 184.078 117.8 184.164 117.781C184.247 117.764 184.327 117.817 184.345 117.903Z" fill="#423E67"/>
</g>
<g style="mix-blend-mode:overlay" opacity="0.3">
<path d="M192.334 135.668L193.056 139.237C193.125 139.579 192.895 139.917 192.542 139.986L188.415 140.821L178.539 132.801L176.43 122.362L192.338 135.667L192.334 135.668Z" fill="white"/>
</g>
<g style="mix-blend-mode:overlay" opacity="0.3">
<path d="M190.932 128.734L191.762 132.836L176.612 120.138L179.569 119.537L190.932 128.734Z" fill="white"/>
</g>
<path d="M224.364 141.108C219.812 148.529 218.489 166.178 218.09 166.27C217.666 166.368 199.629 140.174 199.629 140.174C199.629 140.174 192.478 141.848 188.089 147.745C188.089 147.745 205.686 188.134 219.649 183.278C233.612 178.423 238.651 162.656 238.651 162.656L224.362 141.104L224.364 141.108Z" fill="#8AD0A1"/>
<path d="M238.583 181.489L285.585 165.143C281.652 157.079 277.838 148.816 276.616 143.907C275.428 139.14 271.622 123.918 271.622 123.918C271.622 123.918 260.264 119.842 245.256 125.061C231.764 129.753 224.362 141.104 224.362 141.104C224.362 141.104 231.947 154.345 233.652 158.848C235.447 163.589 237.173 172.562 238.586 181.487L238.583 181.489Z" fill="#8AD0A1"/>
<path d="M270.514 141.904C270.009 141.691 269.433 141.884 268.919 142.078C266.291 143.073 263.66 144.045 261.02 145.002C256.219 146.745 251.397 148.429 246.555 150.055C244.149 150.865 241.736 151.658 239.319 152.437C238.595 152.67 237.084 152.799 236.881 153.655C236.709 154.389 237.347 155.858 237.477 156.609C237.654 157.626 238.112 158.757 239.096 159.062C239.7 159.248 240.352 159.072 240.958 158.888C242.945 158.29 244.916 157.635 246.867 156.922C247.883 156.553 248.918 156.151 249.716 155.423C250.245 154.938 250.663 154.315 251.291 153.97C252.121 153.512 253.131 153.626 254.079 153.617C259.444 153.572 263.943 149.289 269.269 148.634C270.156 148.526 271.194 148.443 271.676 147.693C271.89 147.365 271.945 146.96 271.971 146.57C272.05 145.38 271.861 144.171 271.424 143.059C271.241 142.588 270.975 142.099 270.505 141.9L270.514 141.904Z" fill="#00541C"/>
<path d="M269.997 149.61C265.411 151.197 261.293 154.339 256.46 154.783C255.401 154.882 254.289 154.853 253.327 155.311C252.633 155.641 252.079 156.195 251.473 156.668C250.526 157.409 249.444 157.955 248.32 158.377C246.311 159.133 244.19 159.513 242.129 160.098C241.543 160.264 240.295 160.417 239.886 160.925C239.641 161.229 239.7 161.775 239.688 162.137C239.667 162.653 239.665 163.17 239.687 163.686C239.712 164.324 239.813 165.044 240.324 165.429C240.923 165.879 241.773 165.653 242.481 165.406C251.808 162.171 261.135 158.935 270.462 155.699C271.269 155.418 272.135 155.094 272.612 154.385C273.129 153.612 273.041 152.595 272.935 151.669C272.84 150.855 272.665 149.918 271.947 149.525C271.358 149.206 270.629 149.39 269.995 149.606L269.997 149.61Z" fill="#00541C"/>
<path d="M245.034 102.582C245.35 99.206 244.807 95.794 243.902 92.527C243.595 91.4243 243.225 90.2936 242.459 89.443C241.69 88.5936 240.423 88.0946 239.37 88.5454C239.858 87.567 239.135 86.251 238.222 85.652C237.309 85.0529 236.173 84.9318 235.085 84.8286C233.424 84.6706 231.762 84.5091 230.097 84.472C224.745 84.3537 219.417 85.5016 214.403 87.3726C212.331 88.1472 210.116 89.2215 209.259 91.2642C208.691 92.621 208.841 94.194 209.355 95.5713C209.869 96.9486 210.721 98.1697 211.561 99.3794C210.964 100.496 211.027 101.876 211.444 103.075C211.861 104.274 212.598 105.327 213.329 106.367C214.965 108.702 216.736 111.148 219.353 112.271C221.44 113.167 223.809 113.102 226.07 112.882C229.741 112.529 233.421 111.804 236.737 110.189C240.054 108.573 244.684 106.251 245.029 102.58L245.034 102.582Z" fill="#1B1938"/>
<path d="M241.019 98.8297C243.902 108.903 249.764 126.591 249.764 126.591C248.166 131.11 239.314 132.135 239.274 130.724C239.251 129.927 238.827 128.608 238.157 127.469C237.639 126.587 236.973 125.813 236.233 125.47C235.925 125.326 235.43 125.352 234.796 125.457C234.695 125.477 234.641 125.488 234.641 125.488C231.75 126.023 226.328 128.117 223.26 125.044C219.443 121.222 216.968 109.142 216.261 103.234C215.86 99.8532 217.909 94.6499 223.52 92.6101C230.38 90.109 238.121 88.6917 241.019 98.8297Z" fill="#ECB58C"/>
<path d="M216.859 101.758C217.698 102.086 218.625 102.095 219.52 102.034C224.116 101.726 228.488 99.7783 232.254 97.1319C231.747 97.5665 232.203 98.4901 232.856 98.6289C233.51 98.7712 234.158 98.4188 234.734 98.0835C235.204 100.851 237.02 103.362 239.502 104.671C240.361 105.127 241.405 105.438 242.294 105.048C243.012 104.733 243.476 104.017 243.778 103.292C244.674 101.116 244.413 98.5957 243.511 96.4216C242.304 93.514 239.988 91.1188 237.226 89.6107C234.46 88.1037 231.267 87.4502 228.12 87.5242C224.75 87.6023 221.304 88.5465 218.746 90.7377C217.453 91.8462 216.436 93.2858 215.839 94.88C215.538 95.6776 215.344 96.5153 215.285 97.364C215.229 98.1654 215.329 98.951 215.252 99.7481C215.161 100.696 216.042 101.434 216.855 101.756L216.859 101.758Z" fill="#1B1938"/>
<g style="mix-blend-mode:multiply">
<path d="M244.318 120.755C242.029 122.422 239.506 123.738 236.825 124.659C236.52 124.765 236.685 125.239 236.99 125.133C239.708 124.199 242.277 122.859 244.601 121.169C244.862 120.978 244.579 120.564 244.315 120.757L244.318 120.755Z" fill="#222221"/>
</g>
<path d="M228.817 116.525C228.858 117.7 227.787 118.794 226.614 118.778" stroke="#222221" stroke-width="0.334312" stroke-miterlimit="10"/>
<path d="M240.832 103.923C241.508 102.776 242.603 101.806 243.971 101.676C245.322 101.55 246.532 102.272 247.097 103.497C247.476 104.324 247.561 105.254 247.557 106.16C247.549 107.114 247.449 108.077 247.153 108.985C246.593 110.697 245.092 112.428 243.104 112.138C240.454 111.75 239.739 108.698 239.985 106.436C240.076 105.592 240.367 104.701 240.828 103.921L240.832 103.923Z" fill="#ECB58C"/>
<path d="M244.42 103.888C243.31 104.231 242.697 105.303 242.405 106.356C242.099 107.448 242.052 108.597 242.265 109.709C242.321 110.002 242.785 109.941 242.728 109.645C242.56 108.763 242.568 107.855 242.744 106.978C242.755 106.974 242.768 106.969 242.779 106.966C243.32 106.573 243.988 106.356 244.658 106.366C244.782 106.369 244.899 106.297 244.918 106.164C244.933 106.051 244.844 105.905 244.716 105.903C244.073 105.892 243.45 106.05 242.893 106.352C243.166 105.467 243.668 104.607 244.603 104.317C244.889 104.229 244.705 103.8 244.42 103.888Z" fill="#222221"/>
<path d="M251.946 161.425C251.946 161.425 247.282 155.51 245.702 156.36C244.126 157.208 246.441 161.564 246.441 161.564C246.441 161.564 239.415 163.198 239.432 165.707C239.45 168.216 242.777 174.161 246.894 173.542C251.008 172.924 254.309 169.238 254.309 169.238L251.946 161.425Z" fill="#ECB58C"/>
<path d="M271.622 123.922C280.32 126.263 299.386 149.726 296.125 156.583L255.195 170.817C255.195 170.817 250.115 163.321 251.768 158.938C251.768 158.938 276.656 149.893 276.999 149.05C277.441 147.964 271.622 123.922 271.622 123.922Z" fill="#8AD0A1"/>
<g style="mix-blend-mode:multiply">
<path d="M273.372 133.947C273.977 136.641 274.584 139.337 275.192 142.03C275.487 143.329 275.815 144.628 276.063 145.94C276.261 147.007 276.353 148.158 275.806 149.142C275.288 150.069 274.33 150.656 273.386 151.077C272.292 151.565 271.135 151.913 270.002 152.3C267.377 153.201 264.749 154.104 262.124 155.005C259.162 156.023 256.2 157.042 253.237 158.057C252.931 158.163 253.096 158.637 253.402 158.531L269.75 152.915C270.944 152.504 272.168 152.136 273.329 151.643C274.282 151.239 275.237 150.718 275.895 149.896C277.426 147.977 276.444 145.318 275.968 143.196C275.261 140.057 274.555 136.917 273.848 133.778C273.777 133.463 273.303 133.628 273.374 133.943L273.372 133.947Z" fill="#4B499E"/>
</g>
<path d="M235.176 174.867L180.859 193.756L181.763 196.354L236.079 177.464L235.176 174.867Z" fill="#C492A7"/>
<path d="M207.399 187.434L154.093 205.972C153.853 206.056 153.587 205.944 153.475 205.713L135.806 168.292C135.678 168.024 135.813 167.704 136.095 167.606L189.401 149.068C189.642 148.985 189.908 149.096 190.019 149.327L207.688 186.748C207.816 187.016 207.681 187.336 207.399 187.434Z" fill="#EBD3DE"/>
<g style="mix-blend-mode:multiply">
<path d="M176.861 176.681C176.23 173.124 172.835 170.753 169.279 171.384C165.722 172.015 163.351 175.41 163.982 178.967C164.613 182.524 168.008 184.895 171.565 184.264C175.121 183.632 177.493 180.237 176.861 176.681Z" fill="#EBD3DE"/>
</g>
<path d="M255.525 154.311L273.244 157.939C273.978 158.092 274.698 157.614 274.847 156.881L275.826 152.108C275.978 151.373 275.501 150.653 274.767 150.504L257.049 146.876L255.526 154.314L255.525 154.311Z" fill="#423E67"/>
<path d="M249.204 147.339L248.496 150.798C248.27 151.897 248.977 152.968 250.076 153.194L255.525 154.311L257.048 146.872L251.599 145.755C250.5 145.529 249.429 146.237 249.202 147.336L249.204 147.339Z" fill="#2D2A4A"/>
<path d="M249.204 147.339L248.496 150.798C248.27 151.897 248.977 152.968 250.076 153.194L255.525 154.311L257.048 146.872L251.599 145.755C250.5 145.529 249.429 146.237 249.202 147.336L249.204 147.339Z" fill="#2D2A4A"/>
<path d="M266.582 152.257C267.002 153.467 266.364 154.786 265.154 155.207C263.945 155.627 262.625 154.989 262.204 153.779C261.784 152.57 262.423 151.25 263.632 150.83C264.841 150.409 266.161 151.048 266.582 152.257Z" fill="#2D2A4A"/>
<g style="mix-blend-mode:multiply">
<path d="M274.768 150.504L274.758 150.508L273.968 154.349C273.815 155.083 273.099 155.56 272.364 155.407L255.989 152.055L255.526 154.311L273.244 157.939C273.979 158.092 274.699 157.614 274.848 156.881L275.826 152.108C275.979 151.373 275.502 150.653 274.768 150.504Z" fill="#BFBCE8"/>
</g>
<path d="M268.443 164.662C267.955 164.832 267.422 164.574 267.253 164.086L263.519 153.349C263.349 152.861 263.607 152.329 264.095 152.159C264.583 151.99 265.115 152.247 265.285 152.735L269.019 163.472C269.188 163.96 268.931 164.492 268.443 164.662Z" fill="#423E67"/>
<path d="M273.502 162.086L262.882 165.78C262.301 165.982 261.991 166.617 262.194 167.201C262.397 167.785 263.031 168.092 263.616 167.889L274.236 164.196C274.82 163.993 275.127 163.359 274.924 162.774C274.72 162.19 274.086 161.883 273.502 162.086Z" fill="#2D2A4A"/>
<path d="M319.871 148.321L106.439 222.544L112.874 241.046L326.305 166.823L319.871 148.321Z" fill="#DCB7C6"/>
<g style="mix-blend-mode:multiply">
<path d="M321.609 153.383L108.198 227.598L109.393 231.034L322.804 156.819L321.609 153.383Z" fill="#C492A7"/>
</g>
<path d="M143.506 136.152L135.817 138.826C135.536 138.924 135.388 139.231 135.485 139.512L135.984 140.944C136.081 141.225 136.388 141.374 136.669 141.276L144.358 138.602C144.639 138.504 144.788 138.198 144.69 137.917L144.192 136.484C144.094 136.203 143.787 136.055 143.506 136.152Z" fill="#423E67"/>
<path d="M148.374 136.44L97.5652 154.109C97.1705 154.246 96.9619 154.678 97.0991 155.072L107.577 185.201C107.714 185.595 108.145 185.804 108.54 185.667L159.348 167.998C159.743 167.86 159.952 167.429 159.814 167.035L149.337 136.906C149.2 136.511 148.768 136.303 148.374 136.44Z" fill="#1B1938"/>
<path d="M123.102 138.751L111.637 142.738C110.802 143.028 110.36 143.94 110.651 144.775L112.39 149.778C112.681 150.613 113.593 151.054 114.428 150.764L125.893 146.777C126.728 146.486 127.169 145.574 126.879 144.739L125.139 139.737C124.849 138.902 123.937 138.46 123.102 138.751Z" fill="#1B1938"/>
<path d="M121.768 140.616L113.842 143.373C113.373 143.536 113.125 144.048 113.288 144.517L114.779 148.804C114.942 149.273 115.455 149.521 115.923 149.358L123.85 146.602C124.318 146.439 124.566 145.926 124.403 145.458L122.912 141.17C122.749 140.701 122.237 140.453 121.768 140.616Z" fill="#423E67"/>
<path d="M97.9185 157.433L97.0905 157.721C96.6335 157.88 96.1334 157.638 95.9745 157.181C95.8156 156.724 96.0576 156.224 96.5145 156.065L97.3426 155.777L97.9197 157.437L97.9185 157.433Z" fill="#423E67"/>
<path d="M134.032 146.919L103.337 157.593C102.967 157.722 102.771 158.126 102.9 158.496L110.417 180.111C110.545 180.481 110.95 180.676 111.32 180.548L142.015 169.873C142.385 169.744 142.581 169.34 142.452 168.97L134.935 147.356C134.807 146.986 134.402 146.79 134.032 146.919Z" fill="#423E67"/>
<mask id="mask0_70_2683" style="mask-type:luminance" maskUnits="userSpaceOnUse" x="102" y="146" width="41" height="35">
<path d="M134.031 146.919L103.336 157.593C102.966 157.722 102.77 158.126 102.899 158.496L110.416 180.111C110.544 180.481 110.949 180.677 111.319 180.548L142.014 169.873C142.384 169.745 142.58 169.34 142.451 168.97L134.934 147.356C134.806 146.986 134.401 146.79 134.031 146.919Z" fill="white"/>
</mask>
<g mask="url(#mask0_70_2683)">
<path d="M118.945 163.927C118.945 163.927 118.583 160.117 118.066 160.181C117.545 160.243 117.714 161.836 117.714 161.836C117.714 161.836 115.237 160.595 114.696 160.722C114.212 160.836 114.837 163.453 115.101 163.858C115.349 164.238 117.31 164.904 117.31 164.904L118.943 163.931L118.945 163.927Z" fill="#ECB58C"/>
<path d="M114.454 159.515L115.402 164.207C115.417 164.284 115.492 164.334 115.569 164.318L118.065 163.814C118.142 163.799 118.191 163.724 118.176 163.647L117.228 158.955C117.213 158.878 117.138 158.828 117.061 158.844L114.565 159.348C114.488 159.363 114.439 159.438 114.454 159.515Z" fill="#423E67"/>
<path d="M117.021 159.109L114.71 159.574C114.71 159.574 114.706 159.575 114.703 159.576C114.635 159.592 114.592 159.657 114.605 159.726L115.46 163.957C115.473 164.026 115.542 164.071 115.614 164.058L117.925 163.593C117.998 163.579 118.043 163.51 118.03 163.441L117.175 159.209C117.163 159.14 117.093 159.095 117.021 159.109Z" fill="#5F5B88"/>
<g style="mix-blend-mode:multiply">
<path d="M116.122 159.186L115.561 159.3C115.561 159.3 115.528 159.292 115.525 159.274C115.525 159.274 115.533 159.241 115.551 159.238L116.112 159.124C116.112 159.124 116.146 159.131 116.148 159.15C116.148 159.15 116.141 159.183 116.122 159.186Z" fill="#423E67"/>
</g>
<g style="mix-blend-mode:multiply">
<path d="M116.269 159.128C116.269 159.128 116.261 159.163 116.242 159.166C116.223 159.168 116.208 159.158 116.205 159.139C116.199 159.121 116.213 159.104 116.232 159.101C116.251 159.099 116.267 159.109 116.269 159.128Z" fill="#423E67"/>
</g>
<g style="mix-blend-mode:overlay" opacity="0.3">
<path d="M117.88 162.718L118.028 163.441C118.04 163.51 117.995 163.579 117.923 163.593L117.087 163.76L115.091 162.14L114.665 160.027L117.88 162.718Z" fill="white"/>
</g>
<g style="mix-blend-mode:overlay" opacity="0.3">
<path d="M117.598 161.314L117.768 162.145L114.703 159.579L115.3 159.456L117.598 161.314Z" fill="white"/>
</g>
<path d="M124.362 163.819C123.444 165.321 123.175 168.888 123.093 168.909C123.007 168.927 119.359 163.63 119.359 163.63C119.359 163.63 117.913 163.967 117.026 165.161C117.026 165.161 120.583 173.329 123.407 172.347C126.231 171.365 127.249 168.176 127.249 168.176L124.358 163.817L124.362 163.819Z" fill="#8AD0A1"/>
<path d="M127.236 171.986L136.743 168.68C135.949 167.049 135.175 165.377 134.93 164.384C134.691 163.42 133.921 160.341 133.921 160.341C133.921 160.341 131.624 159.518 128.59 160.573C125.862 161.522 124.365 163.818 124.365 163.818C124.365 163.818 125.898 166.497 126.244 167.405C126.609 168.364 126.954 170.177 127.243 171.983L127.236 171.986Z" fill="#8AD0A1"/>
<path d="M128.543 156.026C128.605 155.342 128.496 154.652 128.313 153.992C128.25 153.767 128.175 153.539 128.023 153.369C127.867 153.196 127.612 153.096 127.397 153.186C127.495 152.99 127.347 152.722 127.163 152.601C126.978 152.48 126.75 152.456 126.528 152.437C126.193 152.403 125.855 152.374 125.521 152.363C124.438 152.339 123.359 152.572 122.347 152.951C121.928 153.108 121.48 153.326 121.307 153.736C121.191 154.011 121.224 154.327 121.325 154.608C121.43 154.887 121.6 155.132 121.77 155.378C121.649 155.605 121.66 155.882 121.745 156.126C121.83 156.37 121.977 156.581 122.127 156.79C122.456 157.261 122.817 157.756 123.346 157.984C123.768 158.165 124.248 158.151 124.707 158.108C125.448 158.035 126.195 157.89 126.862 157.562C127.535 157.236 128.468 156.765 128.538 156.024L128.543 156.026Z" fill="#1B1938"/>
<path d="M127.73 155.269C128.312 157.308 129.498 160.886 129.498 160.886C129.176 161.799 127.384 162.006 127.378 161.723C127.373 161.563 127.287 161.296 127.15 161.067C127.045 160.888 126.91 160.731 126.763 160.662C126.699 160.634 126.6 160.638 126.473 160.659C126.452 160.666 126.441 160.666 126.441 160.666C125.854 160.774 124.758 161.198 124.138 160.578C123.365 159.807 122.865 157.362 122.723 156.167C122.643 155.482 123.055 154.43 124.191 154.02C125.579 153.514 127.143 153.228 127.729 155.277L127.73 155.269Z" fill="#ECB58C"/>
<path d="M122.843 155.863C123.013 155.931 123.202 155.931 123.382 155.918C124.312 155.857 125.195 155.461 125.957 154.926C125.852 155.013 125.944 155.2 126.078 155.231C126.211 155.258 126.341 155.19 126.46 155.121C126.554 155.681 126.923 156.189 127.424 156.454C127.599 156.547 127.809 156.609 127.99 156.53C128.137 156.467 128.23 156.324 128.29 156.176C128.472 155.735 128.418 155.226 128.237 154.784C127.994 154.195 127.525 153.711 126.966 153.409C126.405 153.103 125.762 152.972 125.124 152.986C124.444 153.003 123.744 153.193 123.229 153.638C122.967 153.86 122.761 154.154 122.641 154.474C122.581 154.633 122.541 154.805 122.527 154.975C122.514 155.138 122.534 155.296 122.522 155.459C122.503 155.65 122.682 155.799 122.848 155.865L122.843 155.863Z" fill="#1B1938"/>
<g style="mix-blend-mode:multiply">
<path d="M128.397 159.705C127.933 160.043 127.424 160.309 126.88 160.494C126.818 160.516 126.852 160.612 126.914 160.59C127.464 160.399 127.982 160.13 128.453 159.789C128.505 159.752 128.449 159.667 128.397 159.705Z" fill="black"/>
</g>
<path d="M125.096 158.862C125.107 159.165 124.831 159.447 124.528 159.443" stroke="#222221" stroke-width="0.0861996" stroke-miterlimit="10"/>
<path d="M127.692 156.299C127.827 156.067 128.051 155.87 128.327 155.844C128.599 155.818 128.846 155.963 128.96 156.213C129.037 156.379 129.053 156.569 129.054 156.75C129.052 156.943 129.032 157.139 128.972 157.322C128.858 157.669 128.555 158.017 128.154 157.96C127.618 157.881 127.473 157.265 127.523 156.809C127.54 156.637 127.601 156.458 127.692 156.299Z" fill="#ECB58C"/>
<path d="M128.422 156.292C128.199 156.362 128.074 156.579 128.014 156.792C127.952 157.014 127.944 157.244 127.983 157.469C127.996 157.526 128.089 157.517 128.075 157.456C128.041 157.28 128.042 157.094 128.076 156.917C128.076 156.917 128.08 156.916 128.083 156.914C128.194 156.834 128.329 156.79 128.465 156.793C128.491 156.792 128.513 156.776 128.516 156.752C128.519 156.728 128.498 156.701 128.475 156.701C128.344 156.7 128.22 156.732 128.106 156.791C128.162 156.61 128.263 156.436 128.451 156.378C128.51 156.358 128.473 156.274 128.413 156.291L128.422 156.292Z" fill="black"/>
<path d="M129.939 167.927C129.939 167.927 128.995 166.73 128.677 166.902C128.36 167.074 128.828 167.955 128.828 167.955C128.828 167.955 127.407 168.287 127.41 168.794C127.413 169.302 128.085 170.504 128.92 170.38C129.751 170.256 130.419 169.508 130.419 169.508L129.943 167.929L129.939 167.927Z" fill="#ECB58C"/>
<path d="M133.917 160.342C135.677 160.816 139.533 165.56 138.873 166.949L130.596 169.828C130.596 169.828 129.568 168.313 129.903 167.426C129.903 167.426 134.937 165.599 135.005 165.429C135.094 165.209 133.919 160.346 133.919 160.346L133.917 160.342Z" fill="#8AD0A1"/>
<g style="mix-blend-mode:multiply">
<path d="M134.272 162.371C134.397 162.917 134.516 163.461 134.641 164.007C134.702 164.271 134.766 164.533 134.816 164.797C134.856 165.014 134.875 165.246 134.763 165.443C134.658 165.63 134.466 165.751 134.274 165.833C134.055 165.932 133.818 166.003 133.59 166.079C133.061 166.263 132.527 166.444 131.997 166.625C131.399 166.833 130.8 167.037 130.201 167.242C130.139 167.263 130.172 167.36 130.234 167.338L133.541 166.204C133.781 166.12 134.029 166.045 134.264 165.948C134.456 165.866 134.65 165.76 134.784 165.594C135.092 165.206 134.894 164.67 134.799 164.241C134.655 163.605 134.511 162.97 134.372 162.337C134.357 162.272 134.261 162.306 134.276 162.37L134.272 162.371Z" fill="#4B499E"/>
</g>
<path d="M145.504 164.644L106.718 178.132L108.019 181.874L146.806 168.385L145.504 164.644Z" fill="#DCB7C6"/>
<path d="M124.55 171.342L113.565 175.162L113.748 175.687L124.732 171.867L124.55 171.342Z" fill="#C492A7"/>
<path d="M118.932 173.884L108.15 177.634C108.102 177.65 108.048 177.627 108.024 177.581L104.449 170.013C104.423 169.96 104.45 169.893 104.508 169.873L115.29 166.123C115.338 166.107 115.392 166.13 115.416 166.176L118.991 173.744C119.017 173.797 118.99 173.864 118.932 173.884Z" fill="#EBD3DE"/>
<g style="mix-blend-mode:multiply">
<path d="M112.702 171.506C112.942 172.197 112.577 172.952 111.886 173.192C111.195 173.432 110.441 173.067 110.201 172.376C109.96 171.686 110.326 170.931 111.016 170.691C111.707 170.45 112.462 170.816 112.702 171.506Z" fill="#EBD3DE"/>
</g>
<path d="M144.269 162.874L140.459 164.199L141.147 166.178L144.958 164.853L144.269 162.874Z" fill="#C492A7"/>
<path d="M140.462 164.197L137.961 165.067L138.649 167.046L141.15 166.176L140.462 164.197Z" fill="#EBD3DE"/>
<g style="mix-blend-mode:multiply">
<path d="M140.013 165.463C140.111 165.745 139.983 166.043 139.729 166.132C139.475 166.22 139.19 166.065 139.092 165.783C138.994 165.501 139.121 165.203 139.375 165.115C139.63 165.026 139.915 165.181 140.013 165.463Z" fill="#EBD3DE"/>
</g>
<path d="M133.38 165.544L136.963 166.277C137.111 166.307 137.256 166.214 137.289 166.064L137.485 165.098C137.514 164.95 137.421 164.805 137.271 164.772L133.688 164.039L133.38 165.544Z" fill="#423E67"/>
<path d="M132.101 164.136L131.96 164.836C131.914 165.06 132.059 165.276 132.279 165.322L133.382 165.547L133.69 164.042L132.587 163.817C132.364 163.771 132.148 163.916 132.101 164.136Z" fill="#2D2A4A"/>
<path d="M135.616 165.128C135.701 165.372 135.571 165.641 135.327 165.725C135.083 165.81 134.814 165.68 134.729 165.436C134.644 165.192 134.774 164.924 135.018 164.839C135.262 164.754 135.531 164.884 135.616 165.128Z" fill="#2D2A4A"/>
<path d="M135.992 167.639C135.892 167.674 135.786 167.623 135.751 167.523L134.996 165.352C134.961 165.252 135.013 165.145 135.112 165.111C135.212 165.076 135.318 165.128 135.353 165.227L136.108 167.399C136.143 167.498 136.091 167.605 135.992 167.639Z" fill="#423E67"/>
<path d="M137.014 167.118L134.866 167.864C134.75 167.905 134.687 168.035 134.727 168.151C134.768 168.268 134.898 168.331 135.014 168.29L137.162 167.544C137.279 167.503 137.341 167.373 137.301 167.257C137.26 167.14 137.131 167.077 137.014 167.118Z" fill="#2D2A4A"/>
</g>
<path d="M143.655 170.748L110.582 182.25C109.905 182.485 109.164 182.126 108.929 181.45L100.904 158.375C100.669 157.698 101.027 156.957 101.704 156.722L134.774 145.221C135.45 144.986 136.191 145.345 136.427 146.021L144.451 169.096C144.687 169.773 144.328 170.514 143.651 170.749L143.655 170.748ZM101.798 156.982C101.266 157.167 100.987 157.749 101.172 158.282L109.197 181.356C109.382 181.889 109.965 182.171 110.494 181.987L143.564 170.487C144.096 170.302 144.375 169.72 144.19 169.187L136.166 146.112C135.98 145.58 135.397 145.297 134.868 145.481L101.795 156.983L101.798 156.982Z" fill="#423E67"/>
<path d="M142.892 150.031C144.736 149.39 145.711 147.374 145.07 145.53C144.429 143.686 142.413 142.71 140.569 143.352C138.725 143.993 137.749 146.008 138.391 147.853C139.032 149.697 141.047 150.672 142.892 150.031Z" fill="#423E67"/>
<path d="M143.738 145.994C144.124 147.103 143.536 148.313 142.429 148.698C141.323 149.083 140.11 148.495 139.725 147.389C139.34 146.283 139.928 145.07 141.034 144.685C142.14 144.3 143.353 144.887 143.738 145.994Z" fill="#5F5B88"/>
<path d="M147.138 154.425L146.381 152.25C143.863 153.226 142.526 155.982 143.327 158.562L145.502 157.805C145.119 156.429 145.821 154.979 147.138 154.425Z" fill="#423E67"/>
<path d="M150.857 155.943L153.032 155.187C152.056 152.668 149.3 151.331 146.721 152.132L147.477 154.307C148.854 153.924 150.303 154.626 150.857 155.943Z" fill="#423E67"/>
<path d="M149.34 159.663L150.096 161.838C152.615 160.862 153.951 158.106 153.151 155.526L150.976 156.283C151.358 157.66 150.657 159.109 149.34 159.663Z" fill="#423E67"/>
<path d="M145.618 158.146L143.443 158.902C144.419 161.42 147.176 162.757 149.755 161.957L148.999 159.782C147.622 160.164 146.172 159.463 145.618 158.146Z" fill="#423E67"/>
<path d="M149.473 156.617C149.236 155.937 148.491 155.576 147.811 155.813C147.13 156.049 146.77 156.795 147.006 157.475C147.243 158.155 147.988 158.516 148.668 158.28C149.349 158.043 149.71 157.298 149.473 156.617Z" fill="#423E67"/>
<path d="M147.3 169.129C147.947 168.904 148.289 168.197 148.064 167.55C147.839 166.903 147.132 166.561 146.485 166.786C145.838 167.011 145.496 167.718 145.721 168.365C145.946 169.012 146.653 169.354 147.3 169.129Z" fill="#423E67"/>
<path d="M150.337 168.073C150.984 167.848 151.326 167.141 151.101 166.494C150.876 165.847 150.169 165.505 149.522 165.73C148.875 165.955 148.533 166.662 148.758 167.309C148.983 167.956 149.69 168.298 150.337 168.073Z" fill="#423E67"/>
<path d="M130.211 144.84C130.414 145.424 130.103 146.059 129.523 146.261C128.942 146.463 128.303 146.154 128.101 145.573C127.899 144.993 128.209 144.354 128.789 144.152C129.37 143.95 130.009 144.259 130.211 144.84Z" fill="#423E67"/>
<g style="mix-blend-mode:multiply">
<path d="M129.702 145.017C129.808 145.319 129.649 145.648 129.346 145.753C129.044 145.858 128.715 145.699 128.61 145.397C128.505 145.094 128.664 144.766 128.966 144.66C129.269 144.555 129.597 144.714 129.702 145.017Z" fill="#423E67"/>
</g>
<path d="M146.274 173.253L146.52 173.96L144.249 174.75L144.445 175.314L146.716 174.524L146.962 175.232C147.044 175.469 147.302 175.591 147.536 175.51C147.773 175.427 147.895 175.169 147.814 174.935L147.126 172.956C147.043 172.719 146.785 172.597 146.552 172.679C146.315 172.761 146.192 173.019 146.274 173.253Z" fill="#1B1938"/>
<path d="M136.604 180.271L133.996 181.177L135.99 186.912L138.598 186.005L136.604 180.271Z" fill="#1B1938"/>
<path d="M140.745 177.772L129.194 181.789C129.017 181.85 128.924 182.043 128.985 182.219L129.138 182.659C129.199 182.836 129.392 182.929 129.569 182.868L141.12 178.851C141.296 178.789 141.39 178.596 141.328 178.42L141.175 177.98C141.114 177.804 140.921 177.71 140.745 177.772Z" fill="#1B1938"/>
<path d="M144.947 181.328L128.105 187.185C127.682 187.332 127.458 187.794 127.605 188.218L129.669 194.151C129.816 194.574 130.278 194.798 130.701 194.651L147.544 188.794C147.967 188.647 148.191 188.184 148.043 187.761L145.98 181.828C145.833 181.404 145.37 181.181 144.947 181.328Z" fill="#423E67"/>
<path d="M143.599 173.478L124.29 180.193C124.081 180.266 123.971 180.494 124.044 180.702L124.907 183.186C124.98 183.395 125.208 183.506 125.417 183.433L144.726 176.718C144.935 176.645 145.045 176.417 144.972 176.209L144.109 173.725C144.036 173.516 143.808 173.406 143.599 173.478Z" fill="#423E67"/>
<path d="M95.2932 165.254C95.0492 165.339 94.9192 165.608 95.0041 165.852L95.1558 166.288L94.8741 166.386C94.7882 166.416 94.7399 166.51 94.771 166.599L95.0852 167.503C95.1151 167.588 95.2089 167.637 95.2982 167.606L95.58 167.508L95.7317 167.944C95.8166 168.188 96.0851 168.318 96.3291 168.233L101.105 166.572L100.07 163.597L95.2943 165.258L95.2932 165.254Z" fill="#423E67"/>
<path d="M185.104 215.928C180.705 211.361 170.999 204.473 165.123 202.538C158.983 200.518 152.468 199.779 146.019 199.973C138.198 200.209 130.477 201.707 122.879 203.48C119.024 204.377 115.188 205.353 111.339 206.279C107.69 207.159 103.998 207.981 100.236 208.173C96.7812 208.35 93.296 207.952 90.1052 206.562C87.2418 205.316 84.638 203.322 83.0405 200.6C80.5149 196.294 81.2881 191.23 83.6027 187.044C84.0811 188.541 84.8092 189.96 85.8055 191.208C87.776 193.684 90.6617 195.504 93.8382 195.878C96.8351 196.234 99.9709 195.24 102.238 193.253C104.491 191.284 105.734 188.433 105.433 185.43C105.144 182.561 103.568 179.769 101.018 178.338C98.2668 176.795 94.9235 177.138 92.1207 178.347C89.168 179.624 86.6281 181.779 84.6927 184.331C84.3783 184.745 84.0847 185.174 83.7994 185.616C83.209 182.844 83.4781 179.897 84.4538 177.243C85.6719 173.935 87.9582 171.118 90.7622 169.014C92.1249 167.993 93.6059 167.136 95.1591 166.441C95.4863 166.297 95.3045 165.763 94.974 165.909C91.6935 167.373 88.7064 169.548 86.5047 172.409C84.398 175.144 83.1143 178.452 82.9369 181.907C82.8639 183.38 83.0188 184.855 83.3833 186.269C82.1424 188.349 81.2681 190.663 80.9909 193.067C80.6364 196.167 81.3567 199.29 83.1774 201.846C85.0509 204.476 87.8535 206.355 90.8555 207.468C97.9773 210.106 105.708 208.226 112.809 206.496C120.826 204.544 128.83 202.442 137.019 201.316C144.311 200.313 151.73 200.117 158.982 201.523C165.471 202.783 169.724 204.593 181.337 213.256C182.486 214.112 183.526 215.098 184.522 216.126L185.107 215.923L185.104 215.928ZM83.9831 186.388C84.6262 185.325 85.3645 184.325 86.1719 183.424C88.2562 181.089 90.9347 179.156 93.9686 178.29C96.8937 177.454 100.135 177.859 102.36 180.07C104.402 182.099 105.314 185.232 104.748 188.044C104.154 191.012 101.863 193.384 99.1302 194.55C96.2585 195.772 93.0551 195.63 90.2803 194.208C87.4672 192.763 85.2609 190.195 84.2238 187.213C84.1294 186.942 84.0568 186.667 83.9808 186.393L83.9831 186.388Z" fill="#423E67"/>
<path d="M130.699 194.651L131.199 234.673L136.353 232.881L139.12 191.723L130.699 194.651Z" fill="#1B1938"/>
<path d="M147.542 188.794L171.983 220.491L166.829 222.283L139.121 191.723L147.542 188.794Z" fill="#1B1938"/>
</g>
</g>
</g>
<defs>
<clipPath id="clip0_70_2683">
<rect x="0.0888672" y="94.4326" width="289.104" height="219.605" rx="17.3246" transform="rotate(-25.4117 0.0888672 94.4326)" fill="white"/>
</clipPath>
<clipPath id="clip1_70_2683">
<rect x="38.0479" y="94.9536" width="255.336" height="159.292" rx="8.66228" transform="rotate(-19.1756 38.0479 94.9536)" fill="white"/>
</clipPath>
<clipPath id="clip2_70_2683">
<rect width="241.629" height="154.49" fill="white" transform="translate(47.3799 100.389) rotate(-19.1756)"/>
</clipPath>
</defs>
</svg>
