<svg width="337" height="124" viewBox="0 0 337 124" fill="none" xmlns="http://www.w3.org/2000/svg">
<g clip-path="url(#clip0_70_4999)">
<rect x="0.652344" y="59.1858" width="329.092" height="65.0224" rx="19.5216" transform="rotate(-10.2061 0.652344 59.1858)" fill="white"/>
<path d="M25.9512 77.5858L270.407 33.5743" stroke="#D8D8D8" stroke-width="7.14209" stroke-linecap="round"/>
<path d="M29.4668 97.1111L273.923 53.0996" stroke="url(#paint0_linear_70_4999)" stroke-width="7.14209" stroke-linecap="round"/>
<path d="M297.044 35.2291L296.09 36.6023L293.325 34.6811L294.279 33.3079C294.548 32.9208 294.942 32.6887 295.364 32.6128C295.785 32.5368 296.235 32.6171 296.622 32.8861C297.387 33.4176 297.576 34.4642 297.044 35.2291Z" fill="#007AFF"/>
<path opacity="0.4" d="M296.09 36.6024L288.719 47.2103C288.188 47.9752 287.141 48.1636 286.376 47.6321C285.611 47.1006 285.423 46.054 285.954 45.2891L293.325 34.6812L296.09 36.6024Z" fill="#007AFF"/>
<path d="M289.023 33.448L289.148 32.3047C289.161 32.1976 289.11 32.0939 289.026 32.0284C288.941 31.963 288.811 31.9542 288.715 32.0037L287.687 32.5194L286.543 32.3946C286.436 32.3817 286.333 32.4326 286.267 32.517C286.203 32.6091 286.199 32.7227 286.249 32.8186L286.758 33.8558L286.633 34.999C286.62 35.1062 286.671 35.2099 286.756 35.2753C286.848 35.3394 286.961 35.3431 287.057 35.2936L288.095 34.7843L289.238 34.9091C289.27 34.9113 289.295 34.9149 289.326 34.9093C289.405 34.8952 289.469 34.8513 289.522 34.7854C289.586 34.6932 289.59 34.5797 289.54 34.4837L289.023 33.448Z" fill="#007AFF"/>
<path d="M286.742 38.6965L286.867 37.5533C286.88 37.4461 286.829 37.3424 286.744 37.277C286.652 37.2129 286.539 37.2092 286.443 37.2587L285.405 37.7679L284.262 37.6432C284.155 37.6302 284.051 37.6811 283.986 37.7655C283.922 37.8577 283.918 37.9712 283.968 38.0671L284.477 39.1043L284.352 40.2476C284.339 40.3547 284.39 40.4584 284.474 40.5239C284.567 40.5879 284.68 40.5917 284.776 40.5421L285.804 40.0265L286.947 40.1512C286.972 40.1548 287.003 40.1492 287.035 40.1436C287.113 40.1295 287.177 40.0856 287.23 40.0197C287.294 39.9275 287.298 39.814 287.248 39.7181L286.742 38.6965Z" fill="#007AFF"/>
<path d="M299.161 40.4924L299.286 39.3491C299.299 39.242 299.248 39.1383 299.163 39.0728C299.071 39.0088 298.958 39.005 298.862 39.0545L297.834 39.5702L296.69 39.4454C296.583 39.4325 296.48 39.4834 296.414 39.5678C296.35 39.6599 296.346 39.7735 296.396 39.8694L296.912 40.8973L296.787 42.0406C296.774 42.1477 296.825 42.2515 296.909 42.3169C297.001 42.381 297.115 42.3847 297.211 42.3352L298.239 41.8195L299.382 41.9443C299.407 41.9479 299.438 41.9422 299.469 41.9366C299.547 41.9226 299.612 41.8787 299.665 41.8127C299.729 41.7206 299.732 41.607 299.683 41.5111L299.161 40.4924Z" fill="#007AFF"/>
</g>
<rect x="1.19865" y="59.5654" width="328.151" height="64.0816" rx="19.0512" transform="rotate(-10.2061 1.19865 59.5654)" stroke="#D8D8D8" stroke-opacity="0.79" stroke-width="0.940798"/>
<defs>
<linearGradient id="paint0_linear_70_4999" x1="29.5554" y1="97.6032" x2="274.011" y2="53.5917" gradientUnits="userSpaceOnUse">
<stop stop-color="#D8D8D8"/>
<stop offset="1" stop-color="#727272" stop-opacity="0.5"/>
</linearGradient>
<clipPath id="clip0_70_4999">
<rect x="0.652344" y="59.1858" width="329.092" height="65.0224" rx="19.5216" transform="rotate(-10.2061 0.652344 59.1858)" fill="white"/>
</clipPath>
</defs>
</svg>
