<svg width="290" height="269" viewBox="0 0 290 269" fill="none" xmlns="http://www.w3.org/2000/svg">
<rect x="0.25" y="57.6392" width="243.602" height="222.769" rx="23.5262" transform="rotate(-13.5877 0.25 57.6392)" fill="white" fill-opacity="0.9"/>
<path d="M228.403 56.425L58.9168 58.8724C54.1092 58.9418 50.2682 62.8953 50.3376 67.7029L52.3863 209.578C52.4557 214.386 56.4093 218.227 61.2168 218.157L230.703 215.71C235.511 215.641 239.352 211.687 239.282 206.879L237.234 65.0042C237.164 60.1966 233.211 56.3556 228.403 56.425Z" fill="#E6F2FF"/>
<path d="M231.384 207.892L219.578 208.062C219.372 208.065 219.208 207.906 219.205 207.7C219.202 207.494 219.362 207.33 219.568 207.327L231.006 207.162L228.945 64.4464L58.6188 66.9059L60.6793 209.607L70.8239 209.46C71.0298 209.457 71.1938 209.617 71.1968 209.822C71.1998 210.028 71.0404 210.192 70.8346 210.195L60.3224 210.347C60.1166 210.35 59.9525 210.191 59.9495 209.985L57.8784 66.549C57.8754 66.3431 58.0348 66.1791 58.2406 66.1761L229.302 63.706C229.508 63.703 229.672 63.8624 229.675 64.0682L231.746 207.504C231.749 207.71 231.59 207.874 231.384 207.877L231.384 207.892Z" fill="white"/>
<path d="M129.767 123.141L63.1801 124.103C62.9743 124.106 62.8102 123.946 62.8072 123.741L62.683 115.14C62.6801 114.934 62.8395 114.77 63.0453 114.767L136.16 113.711C136.366 113.708 136.53 113.868 136.533 114.073C136.536 114.279 136.376 114.443 136.171 114.446L63.4235 115.497L63.537 123.362L129.756 122.406C129.962 122.403 130.126 122.563 130.129 122.769C130.132 122.974 129.973 123.138 129.767 123.141Z" fill="white"/>
<path d="M76.9981 115.301L71.3377 115.382C70.1762 115.399 69.2216 114.472 69.2049 113.31L68.6739 76.5397C68.6571 75.3782 69.5845 74.4237 70.746 74.4069L76.4064 74.3252C77.5679 74.3084 78.5224 75.2358 78.5392 76.3972L79.0701 113.168C79.0869 114.329 78.1596 115.284 76.9981 115.301ZM70.7564 75.1273C70.0066 75.1381 69.398 75.7645 69.4088 76.5144L69.9398 113.285C69.9508 114.049 70.577 114.643 71.3268 114.632L76.9873 114.551C77.7371 114.54 78.3456 113.913 78.3348 113.164L77.8039 76.3931C77.793 75.6433 77.1666 75.0347 76.4168 75.0456L70.7564 75.1273Z" fill="white"/>
<path d="M78.2632 82.6363L69.1331 82.7681C68.9272 82.7711 68.7632 82.6117 68.7602 82.4059C68.7572 82.2001 68.9166 82.036 69.1224 82.033L78.2526 81.9012C78.4584 81.8982 78.6225 82.0576 78.6255 82.2634C78.6284 82.4693 78.469 82.6333 78.2632 82.6363Z" fill="white"/>
<path d="M78.3013 85.2532L69.1711 85.3851C68.9653 85.3881 68.8012 85.2287 68.7983 85.0228C68.7953 84.817 68.9547 84.6529 69.1605 84.65L78.2907 84.5181C78.4965 84.5152 78.6606 84.6745 78.6635 84.8804C78.6665 85.0862 78.5071 85.2503 78.3013 85.2532Z" fill="white"/>
<path d="M78.6128 106.836L69.4827 106.968C69.2768 106.971 69.1128 106.812 69.1098 106.606C69.1068 106.4 69.2662 106.236 69.4721 106.233L78.6022 106.101C78.808 106.098 78.9721 106.258 78.9751 106.463C78.978 106.669 78.8187 106.833 78.6128 106.836Z" fill="white"/>
<path d="M78.649 109.439L69.5188 109.57C69.313 109.573 69.1489 109.414 69.1459 109.208C69.143 109.002 69.3024 108.838 69.5082 108.835L78.6383 108.703C78.8442 108.7 79.0082 108.86 79.0112 109.066C79.0142 109.272 78.8548 109.436 78.649 109.439Z" fill="white"/>
<path d="M90.258 115.109L80.4662 115.251C79.3047 115.267 78.3502 114.34 78.3334 113.178L77.88 81.7743C77.8632 80.6128 78.7905 79.6583 79.952 79.6415L89.7438 79.5001C90.9053 79.4834 91.8598 80.4107 91.8766 81.5722L92.3301 112.976C92.3468 114.138 91.4195 115.092 90.258 115.109ZM79.9626 80.3766C79.2128 80.3875 78.6043 81.0139 78.6151 81.7637L79.0686 113.168C79.0796 113.932 79.7058 114.526 80.4556 114.515L90.2474 114.374C90.9972 114.363 91.6058 113.737 91.5949 112.987L91.1415 81.5828C91.1306 80.833 90.5042 80.2244 89.7544 80.2352L79.9626 80.3766Z" fill="white"/>
<path d="M83.5348 114.927C83.329 114.93 83.1649 114.771 83.1619 114.565L82.6664 80.2496C82.6635 80.0438 82.8229 79.8797 83.0287 79.8768C83.2345 79.8738 83.3986 80.0332 83.4016 80.239L83.8971 114.554C83.9 114.76 83.7406 114.924 83.5348 114.927Z" fill="white"/>
<path d="M87.1657 114.874C86.9598 114.877 86.7958 114.718 86.7928 114.512L86.2973 80.1969C86.2943 79.9911 86.4537 79.827 86.6596 79.824C86.8654 79.8211 87.0294 79.9805 87.0324 80.1863L87.5279 114.502C87.5309 114.707 87.3715 114.871 87.1657 114.874Z" fill="white"/>
<path d="M124.867 100.331L93.536 100.783C92.3746 100.8 91.42 99.8724 91.4032 98.7109L91.3126 92.433C91.2958 91.2715 92.2232 90.317 93.3847 90.3002L124.715 89.8478C125.877 89.831 126.831 90.7584 126.848 91.9199L126.939 98.1978C126.956 99.3592 126.028 100.314 124.867 100.331ZM93.3953 91.0353C92.6455 91.0462 92.0369 91.6726 92.0477 92.4224L92.1384 98.7003C92.1492 99.4501 92.7756 100.059 93.5254 100.048L124.856 99.5954C125.606 99.5846 126.214 98.9582 126.204 98.2084L126.113 91.9305C126.102 91.1807 125.476 90.5721 124.726 90.5829L93.3953 91.0353Z" fill="white"/>
<path d="M126.57 98.1587L91.7696 98.6612C91.5638 98.6642 91.3998 98.5048 91.3968 98.299L91.3178 92.8297C91.3148 92.6239 91.4742 92.4598 91.6801 92.4569L126.48 91.9543C126.686 91.9514 126.85 92.1108 126.853 92.3166L126.932 97.7859C126.935 97.9917 126.776 98.1557 126.57 98.1587ZM92.1266 97.9208L126.192 97.4289L126.124 92.6948L92.0582 93.1867L92.1266 97.9208Z" fill="white"/>
<path d="M128.908 114.551L93.7399 115.059C92.5784 115.076 91.6239 114.148 91.6071 112.987L91.4513 102.195C91.4345 101.034 92.3619 100.079 93.5233 100.062L128.691 99.5546C129.853 99.5378 130.807 100.465 130.824 101.627L130.98 112.418C130.997 113.58 130.069 114.534 128.908 114.551ZM93.5337 100.783C92.7839 100.794 92.1753 101.42 92.1862 102.17L92.342 112.961C92.353 113.726 92.9792 114.32 93.7291 114.309L128.897 113.801C129.662 113.79 130.255 113.164 130.245 112.414L130.089 101.623C130.078 100.873 129.452 100.264 128.702 100.275L93.5337 100.783Z" fill="white"/>
<path d="M95.5511 115.033C95.3453 115.036 95.1812 114.876 95.1782 114.671L94.9721 100.395C94.9691 100.189 95.1285 100.025 95.3344 100.022C95.5402 100.019 95.7042 100.178 95.7072 100.384L95.9134 114.66C95.9163 114.866 95.7569 115.03 95.5511 115.033Z" fill="white"/>
<path d="M98.0081 114.997C97.8023 115 97.6383 114.841 97.6353 114.635L97.4291 100.359C97.4262 100.153 97.5856 99.9894 97.7914 99.9864C97.9972 99.9834 98.1613 100.143 98.1643 100.349L98.3704 114.625C98.3734 114.83 98.214 114.995 98.0081 114.997Z" fill="white"/>
<path d="M100.448 114.962C100.242 114.965 100.078 114.806 100.075 114.6L99.8686 100.324C99.8656 100.118 100.025 99.954 100.231 99.951C100.437 99.948 100.601 100.107 100.604 100.313L100.81 114.589C100.813 114.795 100.653 114.959 100.448 114.962Z" fill="white"/>
<path d="M121.924 114.652C121.718 114.655 121.554 114.496 121.551 114.29L121.345 100.014C121.342 99.8082 121.502 99.6441 121.707 99.6412C121.913 99.6382 122.077 99.7976 122.08 100.003L122.286 114.279C122.289 114.485 122.13 114.649 121.924 114.652Z" fill="white"/>
<path d="M124.365 114.617C124.159 114.62 123.995 114.461 123.992 114.255L123.786 99.9789C123.783 99.7731 123.942 99.609 124.148 99.606C124.354 99.603 124.518 99.7624 124.521 99.9683L124.727 114.244C124.73 114.45 124.57 114.614 124.365 114.617Z" fill="white"/>
<path d="M126.806 114.582C126.6 114.585 126.436 114.426 126.433 114.22L126.227 99.9437C126.224 99.7379 126.383 99.5738 126.589 99.5709C126.795 99.5679 126.959 99.7273 126.962 99.9331L127.168 114.209C127.171 114.415 127.012 114.579 126.806 114.582Z" fill="white"/>
<path d="M126.074 160.664C126.074 160.664 120.939 148.268 126.479 133.732C132.019 119.197 141.988 117.068 141.992 107.171C141.996 97.2742 157.242 83.7751 176.39 93.013C195.537 102.236 188.259 119.635 189.988 129.374C191.717 139.128 200.418 153.061 190.663 162.907C180.909 172.754 126.074 160.678 126.074 160.678L126.074 160.664Z" fill="#F7D394"/>
<path d="M167.338 133.142L152.974 133.35L153.207 149.537L167.572 149.329L167.338 133.142Z" fill="#E28E64"/>
<path d="M179.241 116.295C177.956 125.092 170.725 139.637 159.805 138.001C148.546 136.325 146.096 120.45 147.366 111.637C148.651 102.84 156.827 96.7366 165.624 98.0213C174.422 99.306 180.525 107.482 179.241 116.28L179.241 116.295Z" fill="#E28E64"/>
<path d="M161.795 138.428C157.428 138.491 154.247 136.067 154.083 135.937C153.919 135.807 153.901 135.586 154.017 135.423C154.147 135.259 154.382 135.241 154.53 135.357C154.575 135.4 159.393 139.066 165.1 137.116C165.29 137.054 165.497 137.154 165.573 137.344C165.635 137.535 165.535 137.742 165.345 137.803C164.101 138.218 162.912 138.397 161.795 138.413L161.795 138.428Z" fill="#262626"/>
<path d="M151.558 115.856C151.184 118.45 148.769 120.249 146.175 119.875C143.582 119.501 141.782 117.085 142.156 114.492C142.531 111.898 144.946 110.099 147.539 110.473C150.133 110.847 151.932 113.263 151.558 115.856Z" fill="#E28E64"/>
<path d="M183.432 120.499C183.058 123.092 180.643 124.892 178.049 124.517C175.456 124.143 173.656 121.728 174.03 119.134C174.405 116.541 176.82 114.741 179.413 115.116C182.007 115.49 183.806 117.905 183.432 120.499Z" fill="#E28E64"/>
<path d="M162.927 130.133C160.413 130.169 158.605 128.195 158.575 128.166C158.441 128.021 158.452 127.786 158.597 127.651C158.742 127.517 158.978 127.528 159.112 127.673C159.217 127.789 161.771 130.561 164.908 128.854C165.083 128.763 165.305 128.819 165.41 128.994C165.501 129.169 165.445 129.391 165.256 129.496C164.439 129.949 163.647 130.122 162.912 130.133L162.927 130.133Z" fill="#262626"/>
<path d="M171.212 93.882C171.212 93.882 161.169 82.7333 168.315 79.6596C174.044 77.1946 175.007 80.7541 180.784 82.6412C186.547 84.5432 193.549 88.7949 189.049 92.8157C184.548 96.8364 171.211 93.8673 171.211 93.8673L171.212 93.882Z" fill="#F7D394"/>
<path d="M147.162 113.758C147.162 113.758 150.463 105.078 154.872 102.838C159.28 100.598 183.17 100.18 167.046 92.56C153.632 86.2245 138.375 110.135 147.162 113.758Z" fill="#F7D394"/>
<path d="M169.844 96.8724C169.844 96.8724 167.763 101.461 172.401 105.938C177.04 110.43 178.734 119.817 178.734 119.817C178.734 119.817 194.392 101.268 169.844 96.8724Z" fill="#F7D394"/>
<path d="M189.42 153.132C168.79 147.15 156.682 145.752 156.667 145.737C156.667 145.737 144.59 147.5 124.142 154.074C100.122 161.788 102.294 217.549 102.294 217.549L213.076 215.95C213.076 215.95 213.638 160.149 189.405 153.132L189.42 153.132Z" fill="#CEDD81"/>
<path d="M151.951 152.114C151.951 152.114 147.376 141.783 148.747 140.028C150.104 138.273 151.994 141.82 151.994 141.82C151.994 141.82 154.141 138.818 156.331 141.757C156.331 141.757 160.038 137.792 162.187 143.04C162.187 143.04 163.057 138.057 165.304 142.995C165.304 142.995 168.829 137.621 169.233 142.159C169.233 142.159 173.237 137.307 172.347 142.893C171.457 148.465 170.638 151.844 170.638 151.844L151.951 152.114Z" fill="#CEDD81"/>
<path d="M205.281 170.005L185.93 178.225L185.939 178.828L189.818 216.3L213.092 215.964C213.092 215.964 213.361 188.814 205.296 170.005L205.281 170.005Z" fill="#E28E64"/>
<path d="M184.26 172.705C184.26 172.705 178.576 197.61 183.243 197.955C186.216 198.176 186.146 193.31 186.146 193.31C186.146 193.31 189.059 203.606 191.88 193.227C191.88 193.227 196.327 199.736 197.629 193.144C197.629 193.144 202.44 197.383 202.16 191.255C202.16 191.255 207.569 196.133 207.292 190.196C207.292 190.196 216.079 194.819 213.594 187.722C211.109 180.626 203.565 166.339 203.565 166.339L184.26 172.705Z" fill="#CEDD81"/>
<path d="M183.484 198.319C183.396 198.32 183.307 198.321 183.219 198.322C182.866 198.298 182.569 198.126 182.315 197.821C180.488 195.568 181.691 185.198 182.305 180.851C182.332 180.645 182.521 180.51 182.727 180.536C182.933 180.563 183.068 180.752 183.042 180.958C182.097 187.81 181.549 195.714 182.897 197.371C183.061 197.575 183.194 197.602 183.282 197.601C183.827 197.637 184.266 197.499 184.628 197.14C185.803 196.021 185.78 193.359 185.779 193.33C185.777 193.139 185.907 192.99 186.097 192.958C186.273 192.926 186.452 193.041 186.498 193.216C186.948 194.813 188.059 197.4 189.075 197.503C189.605 197.569 190.109 196.841 190.424 196.219C190.524 196.041 190.744 195.964 190.922 196.064C191.099 196.165 191.176 196.384 191.076 196.562C190.461 197.747 189.748 198.316 188.997 198.239C187.834 198.123 186.897 196.402 186.348 195.042C186.185 195.956 185.832 197.005 185.122 197.677C184.657 198.111 184.102 198.339 183.469 198.348L183.484 198.319Z" fill="#262626"/>
<path d="M123.823 165.579C123.838 166.637 122.998 167.502 121.939 167.517C120.881 167.533 120.016 166.692 120 165.634C119.985 164.575 120.825 163.71 121.884 163.695C122.943 163.68 123.808 164.52 123.823 165.579Z" fill="white"/>
<path d="M136.115 156.372C136.127 157.239 135.432 157.97 134.55 157.983C133.668 157.995 132.952 157.3 132.939 156.418C132.926 155.536 133.622 154.82 134.504 154.807C135.386 154.794 136.102 155.49 136.115 156.372Z" fill="white"/>
<path d="M154.546 151.577C154.556 152.238 154.034 152.775 153.373 152.785C152.711 152.794 152.174 152.273 152.165 151.611C152.155 150.949 152.677 150.413 153.338 150.403C154 150.393 154.537 150.915 154.546 151.577Z" fill="white"/>
<path d="M170.765 166.812C170.775 167.474 170.253 168.011 169.591 168.021C168.93 168.03 168.393 167.508 168.383 166.847C168.374 166.185 168.895 165.648 169.557 165.639C170.219 165.629 170.756 166.151 170.765 166.812Z" fill="white"/>
<path d="M146.591 167.823C146.596 168.191 146.306 168.489 145.939 168.494C145.571 168.5 145.273 168.21 145.267 167.842C145.262 167.475 145.552 167.176 145.919 167.171C146.287 167.166 146.585 167.456 146.591 167.823Z" fill="white"/>
<path d="M165.511 158.344C165.518 158.8 165.155 159.173 164.7 159.18C164.244 159.186 163.871 158.824 163.864 158.368C163.858 157.912 164.22 157.54 164.676 157.533C165.132 157.526 165.504 157.889 165.511 158.344Z" fill="white"/>
<path d="M161.761 146.031C161.772 146.766 161.178 147.363 160.457 147.374C159.737 147.384 159.125 146.805 159.115 146.07C159.104 145.334 159.684 144.738 160.419 144.727C161.154 144.717 161.751 145.296 161.761 146.031Z" fill="white"/>
<path d="M169.914 148.561C169.92 148.972 169.586 149.315 169.175 149.321C168.763 149.327 168.42 148.994 168.414 148.582C168.408 148.171 168.741 147.828 169.153 147.822C169.565 147.816 169.908 148.149 169.914 148.561Z" fill="white"/>
<path d="M192.813 170.185C192.82 170.656 192.444 171.043 191.973 171.05C191.503 171.057 191.115 170.68 191.108 170.21C191.101 169.739 191.478 169.351 191.948 169.345C192.419 169.338 192.807 169.715 192.813 170.185Z" fill="white"/>
<path d="M179.548 175.141C179.562 176.126 178.779 176.932 177.794 176.946C176.809 176.96 176.004 176.178 175.99 175.193C175.975 174.207 176.758 173.402 177.743 173.388C178.728 173.374 179.533 174.156 179.548 175.141Z" fill="white"/>
<path d="M183.625 158.083C183.639 159.068 182.856 159.874 181.871 159.888C180.886 159.902 180.081 159.119 180.067 158.134C180.052 157.149 180.835 156.344 181.82 156.33C182.805 156.316 183.61 157.098 183.625 158.083Z" fill="white"/>
<path d="M171.217 181.761C171.223 182.158 170.919 182.471 170.522 182.477C170.125 182.483 169.812 182.164 169.806 181.782C169.801 181.399 170.105 181.071 170.502 181.066C170.899 181.06 171.212 181.379 171.217 181.761Z" fill="white"/>
<path d="M177.213 191.719C177.217 191.983 177 192.222 176.72 192.226C176.441 192.23 176.217 192.012 176.213 191.733C176.209 191.454 176.427 191.23 176.706 191.226C176.985 191.222 177.209 191.439 177.213 191.719Z" fill="white"/>
<path d="M177.867 203.385C177.888 204.855 176.715 206.078 175.23 206.1C173.745 206.121 172.537 204.947 172.515 203.462C172.494 201.977 173.667 200.769 175.152 200.748C176.637 200.727 177.845 201.9 177.867 203.385Z" fill="white"/>
<path d="M194.765 186.318C194.776 187.024 194.211 187.62 193.505 187.63C192.799 187.641 192.203 187.076 192.193 186.355C192.182 185.635 192.747 185.053 193.468 185.043C194.188 185.032 194.755 185.598 194.765 186.318Z" fill="white"/>
<path d="M147.72 157.381C147.731 158.087 147.166 158.683 146.46 158.693C145.754 158.703 145.173 158.138 145.162 157.418C145.152 156.697 145.717 156.116 146.423 156.106C147.128 156.095 147.71 156.66 147.72 157.381Z" fill="white"/>
<path d="M203.163 178.168C203.176 179.035 202.481 179.766 201.599 179.779C200.716 179.791 200.001 179.096 199.988 178.214C199.975 177.331 200.671 176.616 201.553 176.603C202.435 176.59 203.151 177.286 203.163 178.168Z" fill="white"/>
<path d="M162.495 173.608L77.7509 174.832C76.8835 174.844 76.1733 175.56 76.186 176.442L76.7851 217.932L164.69 216.663L164.091 175.173C164.079 174.306 163.363 173.595 162.48 173.608L162.495 173.608Z" fill="#5D5D5D"/>
<path d="M98.679 190.352C98.5908 190.354 98.4875 190.326 98.4129 190.253C98.2638 190.108 98.2604 189.873 98.4055 189.739L101.782 186.264C101.927 186.114 102.162 186.111 102.296 186.256C102.445 186.401 102.449 186.636 102.304 186.771L98.9275 190.246C98.9275 190.246 98.7673 190.351 98.6643 190.353L98.679 190.352Z" fill="white"/>
<path d="M83.5814 205.893C83.4932 205.895 83.3898 205.867 83.3152 205.794C83.1661 205.649 83.1627 205.414 83.3078 205.28L95.0158 193.229C95.1607 193.079 95.3959 193.076 95.5303 193.221C95.6795 193.366 95.6829 193.601 95.5378 193.736L83.8298 205.787C83.8298 205.787 83.6696 205.892 83.5667 205.894L83.5814 205.893Z" fill="white"/>
<path d="M98.8477 201.967C98.7595 201.969 98.6562 201.941 98.5816 201.868C98.4324 201.723 98.429 201.488 98.5742 201.354L116.397 183.009C116.542 182.86 116.777 182.856 116.911 183.001C117.061 183.146 117.064 183.381 116.919 183.516L99.0962 201.861C99.0962 201.861 98.936 201.966 98.833 201.968L98.8477 201.967Z" fill="white"/>
<path d="M116.372 201.597C116.344 199.715 117.571 198.123 119.284 197.584C118.9 197.472 118.502 197.404 118.09 197.41C115.797 197.443 113.957 199.337 113.99 201.631C114.023 203.925 115.917 205.765 118.211 205.732C118.622 205.726 119.018 205.646 119.399 205.523C117.686 205.033 116.399 203.478 116.372 201.597Z" fill="#4D9699"/>
</svg>
