<svg width="259" height="252" viewBox="0 0 259 252" fill="none" xmlns="http://www.w3.org/2000/svg">
<rect x="0.614258" y="51.6201" width="215.525" height="205.411" rx="38.0635" transform="rotate(-13.5877 0.614258 51.6201)" fill="white" fill-opacity="0.9"/>
<path d="M197.52 44.5564L61.4597 44.5564C51.1849 44.5564 42.8555 52.8858 42.8555 63.1607L42.8555 189.107C42.8555 199.382 51.1849 207.711 61.4597 207.711L197.52 207.711C207.795 207.711 216.125 199.382 216.125 189.107L216.125 63.1606C216.125 52.8858 207.795 44.5564 197.52 44.5564Z" fill="#E6F2FF"/>
<path d="M209.092 199.971L181.109 199.971C180.918 199.971 180.768 199.805 180.768 199.594C180.768 199.383 180.918 199.218 181.109 199.218L208.751 199.218L208.751 53.035L50.8436 53.035L50.8436 199.218L61.5435 199.218C61.7343 199.218 61.8842 199.383 61.8842 199.594C61.8842 199.805 61.7343 199.971 61.5435 199.971L50.5029 199.971C50.312 199.971 50.1621 199.805 50.1621 199.594L50.1621 52.6585C50.1621 52.4476 50.312 52.282 50.5029 52.282L209.092 52.282C209.283 52.282 209.433 52.4476 209.433 52.6585L209.433 199.594C209.433 199.805 209.283 199.971 209.092 199.971Z" fill="white"/>
<path d="M168.363 143.663C168.172 143.663 168.022 143.497 168.022 143.287L168.022 63.6819C168.022 63.4711 168.172 63.3054 168.363 63.3054C168.554 63.3054 168.704 63.4711 168.704 63.6819L168.704 143.287C168.704 143.497 168.554 143.663 168.363 143.663Z" fill="white"/>
<path d="M148.367 69.4798C148.176 69.4798 148.026 69.3142 148.026 69.1033L148.026 63.6819C148.026 63.4711 148.176 63.3054 148.367 63.3054C148.558 63.3054 148.708 63.4711 148.708 63.6819L148.708 69.1033C148.708 69.3142 148.558 69.4798 148.367 69.4798Z" fill="white"/>
<path d="M128.372 69.4798C128.181 69.4798 128.031 69.3142 128.031 69.1033L128.031 63.6819C128.031 63.4711 128.181 63.3054 128.372 63.3054C128.563 63.3054 128.713 63.4711 128.713 63.6819L128.713 69.1033C128.713 69.3142 128.563 69.4798 128.372 69.4798Z" fill="white"/>
<path d="M108.377 74.9013C108.186 74.9013 108.036 74.7356 108.036 74.5248L108.036 63.6819C108.036 63.4711 108.186 63.3054 108.377 63.3054C108.568 63.3054 108.718 63.4711 108.718 63.6819L108.718 74.5248C108.718 74.7356 108.568 74.9013 108.377 74.9013Z" fill="white"/>
<path d="M88.3808 138.061C88.19 138.061 88.04 137.895 88.04 137.684L88.04 63.6819C88.04 63.4711 88.19 63.3054 88.3808 63.3054C88.5716 63.3054 88.7216 63.4711 88.7216 63.6819L88.7216 137.684C88.7216 137.895 88.5716 138.061 88.3808 138.061Z" fill="white"/>
<path d="M68.3847 167.322C68.1939 167.322 68.0439 167.156 68.0439 166.945L68.0439 63.6819C68.0439 63.4711 68.1939 63.3054 68.3847 63.3054C68.5755 63.3054 68.7255 63.4711 68.7255 63.6819L68.7255 166.945C68.7255 167.156 68.5755 167.322 68.3847 167.322Z" fill="white"/>
<path d="M188.359 191.131C188.168 191.131 188.019 190.965 188.019 190.754L188.019 63.6819C188.019 63.4711 188.168 63.3054 188.359 63.3054C188.55 63.3054 188.7 63.4711 188.7 63.6819L188.7 190.754C188.7 190.965 188.55 191.131 188.359 191.131Z" fill="white"/>
<path d="M125.62 77.9883C125.62 77.9883 116.883 73.0036 114.28 84.2681C114.28 84.2681 97.1325 82.1748 100.622 101.572C100.622 101.572 86.2827 114.462 100.158 120.26C100.158 120.26 99.8859 130.109 113.285 125.441C113.285 125.441 113.557 133.528 126.083 130.697C126.083 130.697 123.943 137.202 135.87 134.974C135.87 134.974 144.675 141.464 149.446 134.371C149.446 134.371 163.213 135.817 158.81 122.414C158.81 122.414 173.858 108.725 158.81 97.8217C158.81 97.8217 165.598 86.7077 153.48 84.4789C153.48 84.4789 152.008 71.7386 139.986 76.8889C139.986 76.8889 132.081 70.8952 125.62 77.9883Z" fill="#33201E"/>
<path d="M133.293 122.414L118.872 122.414L118.872 138.994L133.293 138.994L133.293 122.414Z" fill="#BA5725"/>
<path d="M144.168 105.848C142.478 114.764 136.658 129.989 124.95 126.826C114.522 124.01 113.255 108.017 114.931 99.1017C116.622 90.1865 124.527 84.4639 132.596 86.3313C140.666 88.1986 145.845 96.9332 144.155 105.848L144.168 105.848Z" fill="#BA5725"/>
<path d="M128.181 127.625C123.669 127.625 120.084 124.537 119.907 124.372C119.757 124.236 119.73 124.01 119.853 123.845C119.975 123.679 120.193 123.649 120.33 123.784C120.384 123.83 125.755 128.453 131.357 126.284C131.534 126.224 131.725 126.314 131.793 126.51C131.847 126.706 131.766 126.917 131.588 126.992C130.43 127.444 129.285 127.625 128.194 127.625L128.181 127.625Z" fill="#262626"/>
<path d="M118.588 103.68C118.083 106.315 115.752 108.002 113.367 107.445C110.982 106.888 109.455 104.312 109.96 101.677C110.464 99.0415 112.795 97.3549 115.166 97.9121C117.552 98.4693 119.078 101.044 118.588 103.665L118.588 103.68Z" fill="#BA5725"/>
<path d="M147.811 110.427C147.307 113.062 144.976 114.749 142.604 114.191C140.219 113.634 138.693 111.059 139.197 108.439C139.701 105.803 142.032 104.117 144.404 104.674C146.789 105.216 148.316 107.806 147.811 110.427Z" fill="#BA5725"/>
<path d="M128.459 121.05C126.199 121.654 124.166 120.095 124.133 120.073C123.982 119.959 123.944 119.722 124.048 119.555C124.151 119.388 124.366 119.346 124.517 119.461C124.635 119.553 127.505 121.738 129.985 119.329C130.124 119.199 130.335 119.205 130.466 119.355C130.584 119.509 130.579 119.743 130.429 119.891C129.785 120.526 129.107 120.877 128.446 121.054L128.459 121.05Z" fill="#262626"/>
<path d="M110.149 111.029C110.149 111.029 110.081 111.029 110.053 111.014C109.876 110.953 109.767 110.743 109.822 110.547L111.294 104.99C111.348 104.794 111.539 104.674 111.716 104.734C111.894 104.794 112.003 105.005 111.948 105.201L110.476 110.758C110.435 110.923 110.299 111.029 110.149 111.029Z" fill="white"/>
<path d="M111.989 110.652C111.989 111.767 111.171 112.685 110.149 112.685C109.126 112.685 108.309 111.782 108.309 110.652C108.309 109.523 109.126 108.619 110.149 108.619C111.171 108.619 111.989 109.523 111.989 110.652Z" fill="white"/>
<path d="M143.503 118.604C143.503 118.604 143.435 118.604 143.408 118.589C143.231 118.528 143.122 118.318 143.176 118.122L144.648 112.565C144.703 112.369 144.894 112.249 145.071 112.309C145.248 112.369 145.357 112.58 145.303 112.776L143.83 118.333C143.79 118.498 143.653 118.604 143.503 118.604Z" fill="white"/>
<path d="M145.33 118.227C145.33 119.342 144.512 120.26 143.49 120.26C142.467 120.26 141.649 119.357 141.649 118.227C141.649 117.098 142.467 116.194 143.49 116.194C144.512 116.194 145.33 117.098 145.33 118.227Z" fill="white"/>
<path d="M135.857 89.1324C135.857 89.1324 131.945 95.2164 127.201 92.581C127.201 92.581 130.854 99.1771 120.877 97.8066C120.877 97.8066 120.25 105.216 112.917 103.454C105.57 101.692 110.49 97.0386 114.28 92.3702C118.055 87.7017 137.642 75.0065 135.87 89.1324L135.857 89.1324Z" fill="#33201E"/>
<path d="M136.714 82.6719C136.714 82.6719 131.139 91.3763 138.54 94.4183C138.54 94.4183 137.259 99.5837 141.662 102.535C141.662 102.535 140.135 108.635 143.502 109.433C146.869 110.246 161.998 85.9398 136.714 82.6719Z" fill="#33201E"/>
<path d="M157.516 145.425C138.474 138.994 125.021 134.958 125.007 134.958C125.007 134.958 110.109 137.85 91.0677 144.28C68.7002 151.825 68.3867 207.696 68.3867 207.696L171.092 207.696C171.092 207.696 179.883 152.97 157.516 145.425Z" fill="#FFE489"/>
<path d="M126.399 151.117C125.868 151.117 125.336 151.087 124.805 151.042C116.354 150.184 110.684 142.609 110.629 142.533C110.506 142.368 110.534 142.142 110.684 142.006C110.833 141.871 111.052 141.901 111.161 142.066C111.215 142.142 116.722 149.476 124.873 150.304C129.902 150.816 134.918 148.783 139.757 144.25C139.907 144.115 140.111 144.13 140.234 144.295C140.357 144.461 140.343 144.687 140.193 144.822C135.709 149.024 131.075 151.132 126.386 151.132L126.399 151.117Z" fill="#262626"/>
<path d="M112.66 144.657C112.66 144.657 112.537 144.642 112.483 144.597C112.319 144.491 112.279 144.25 112.374 144.07L113.546 142.067C113.655 141.886 113.86 141.841 114.01 141.946C114.173 142.052 114.214 142.293 114.119 142.473L112.946 144.476C112.878 144.582 112.769 144.642 112.66 144.642L112.66 144.657Z" fill="#262626"/>
<path d="M116.68 147.654C116.68 147.654 116.612 147.654 116.571 147.638C116.394 147.578 116.299 147.367 116.353 147.157L116.898 145.304C116.953 145.108 117.144 145.003 117.335 145.063C117.512 145.124 117.607 145.334 117.553 145.545L117.007 147.398C116.967 147.563 116.83 147.654 116.68 147.654Z" fill="#262626"/>
<path d="M121.138 150.199C121.138 150.199 121.056 150.199 121.002 150.169C120.825 150.093 120.743 149.868 120.811 149.672L121.588 147.609C121.656 147.413 121.861 147.322 122.038 147.398C122.215 147.473 122.297 147.699 122.229 147.895L121.452 149.958C121.397 150.108 121.274 150.184 121.138 150.184L121.138 150.199Z" fill="#262626"/>
<path d="M127.871 151.042C127.694 151.042 127.544 150.892 127.53 150.711L127.258 147.804C127.244 147.593 127.38 147.413 127.558 147.398C127.748 147.398 127.912 147.533 127.939 147.729L128.212 150.636C128.226 150.846 128.089 151.027 127.912 151.042C127.912 151.042 127.885 151.042 127.871 151.042Z" fill="#262626"/>
<path d="M134.06 149.175C133.923 149.175 133.787 149.084 133.746 148.934L132.969 146.66C132.901 146.464 132.997 146.253 133.174 146.178C133.351 146.102 133.542 146.208 133.61 146.404L134.387 148.678C134.455 148.873 134.36 149.084 134.182 149.16C134.142 149.175 134.101 149.19 134.06 149.19L134.06 149.175Z" fill="#262626"/>
<path d="M137.835 146.735C137.726 146.735 137.603 146.675 137.549 146.554L137.045 145.621C136.949 145.44 137.004 145.214 137.154 145.109C137.317 145.003 137.522 145.063 137.617 145.229L138.135 146.163C138.23 146.343 138.176 146.569 138.026 146.675C137.971 146.705 137.903 146.735 137.849 146.735L137.835 146.735Z" fill="#262626"/>
<path d="M139.687 139.552C130.623 136.645 125.429 133.061 125.429 133.061C125.429 133.061 119.637 135.998 111.24 138.226C114.811 142.127 121.122 145.937 126.275 145.937C132.054 145.937 137.056 143.362 139.687 139.567L139.687 139.552Z" fill="#BA5725"/>
<path d="M155.308 207.696L171.092 207.696C171.092 207.696 172.018 201.883 172.509 193.796L155.308 193.796L155.308 207.696Z" fill="#BA5725"/>
<path d="M85.7382 190.754L69.5317 190.754C68.4276 200.407 68.3867 207.696 68.3867 207.696L85.7382 207.696L85.7382 190.754Z" fill="#BA5725"/>
<path d="M160.364 194.263C154.585 194.263 151.123 194.173 151.082 194.173C150.891 194.173 150.755 194.007 150.755 193.796L150.755 174.324C150.755 174.113 150.905 173.948 151.096 173.948C151.286 173.948 151.436 174.113 151.436 174.324L151.436 193.42C153.045 193.45 160.31 193.585 170.723 193.42C170.901 193.39 171.064 193.585 171.064 193.796C171.064 194.007 170.914 194.173 170.723 194.173C166.771 194.233 163.268 194.263 160.364 194.263Z" fill="#262626"/>
<path d="M145.344 168.647L98.7822 168.647L98.7822 207.696L145.344 207.696L145.344 168.647Z" fill="#00A3E1"/>
<path d="M136.715 203.946C136.524 203.946 136.374 203.781 136.374 203.57L136.374 187.17L106.674 187.17L106.674 203.57C106.674 203.781 106.524 203.946 106.333 203.946C106.142 203.946 105.992 203.781 105.992 203.57L105.992 186.793C105.992 186.583 106.142 186.417 106.333 186.417L136.715 186.417C136.906 186.417 137.056 186.583 137.056 186.793L137.056 203.57C137.056 203.781 136.906 203.946 136.715 203.946Z" fill="white"/>
<path d="M132.722 205.527L132.041 205.527C131.85 205.527 131.7 205.362 131.7 205.151C131.7 204.94 131.85 204.774 132.041 204.774L132.382 204.774L132.382 204.398C132.382 204.187 132.532 204.021 132.722 204.021C132.913 204.021 133.063 204.187 133.063 204.398L133.063 205.151C133.063 205.362 132.913 205.527 132.722 205.527Z" fill="white"/>
<path d="M130.692 205.527L129.342 205.527C129.151 205.527 129.001 205.362 129.001 205.151C129.001 204.94 129.151 204.774 129.342 204.774L130.692 204.774C130.882 204.774 131.032 204.94 131.032 205.151C131.032 205.362 130.882 205.527 130.692 205.527ZM127.993 205.527L126.643 205.527C126.453 205.527 126.303 205.362 126.303 205.151C126.303 204.94 126.453 204.774 126.643 204.774L127.993 204.774C128.184 204.774 128.334 204.94 128.334 205.151C128.334 205.362 128.184 205.527 127.993 205.527ZM125.294 205.527L123.945 205.527C123.754 205.527 123.604 205.362 123.604 205.151C123.604 204.94 123.754 204.774 123.945 204.774L125.294 204.774C125.485 204.774 125.635 204.94 125.635 205.151C125.635 205.362 125.485 205.527 125.294 205.527ZM122.595 205.527L121.246 205.527C121.055 205.527 120.905 205.362 120.905 205.151C120.905 204.94 121.055 204.774 121.246 204.774L122.595 204.774C122.786 204.774 122.936 204.94 122.936 205.151C122.936 205.362 122.786 205.527 122.595 205.527ZM119.896 205.527L118.547 205.527C118.356 205.527 118.206 205.362 118.206 205.151C118.206 204.94 118.356 204.774 118.547 204.774L119.896 204.774C120.087 204.774 120.237 204.94 120.237 205.151C120.237 205.362 120.087 205.527 119.896 205.527ZM117.198 205.527L115.848 205.527C115.657 205.527 115.507 205.362 115.507 205.151C115.507 204.94 115.657 204.774 115.848 204.774L117.198 204.774C117.388 204.774 117.538 204.94 117.538 205.151C117.538 205.362 117.388 205.527 117.198 205.527ZM114.499 205.527L113.149 205.527C112.959 205.527 112.809 205.362 112.809 205.151C112.809 204.94 112.959 204.774 113.149 204.774L114.499 204.774C114.69 204.774 114.84 204.94 114.84 205.151C114.84 205.362 114.69 205.527 114.499 205.527Z" fill="white"/>
<path d="M111.772 205.527L111.091 205.527C110.9 205.527 110.75 205.362 110.75 205.151L110.75 204.398C110.75 204.187 110.9 204.021 111.091 204.021C111.282 204.021 111.432 204.187 111.432 204.398L111.432 204.774L111.772 204.774C111.963 204.774 112.113 204.94 112.113 205.151C112.113 205.362 111.963 205.527 111.772 205.527Z" fill="white"/>
<path d="M111.091 203.223C110.9 203.223 110.75 203.058 110.75 202.847L110.75 201.296C110.75 201.085 110.9 200.919 111.091 200.919C111.282 200.919 111.432 201.085 111.432 201.296L111.432 202.847C111.432 203.058 111.282 203.223 111.091 203.223ZM111.091 200.121C110.9 200.121 110.75 199.955 110.75 199.744L110.75 198.193C110.75 197.983 110.9 197.817 111.091 197.817C111.282 197.817 111.432 197.983 111.432 198.193L111.432 199.744C111.432 199.955 111.282 200.121 111.091 200.121ZM111.091 197.019C110.9 197.019 110.75 196.853 110.75 196.642L110.75 195.091C110.75 194.88 110.9 194.715 111.091 194.715C111.282 194.715 111.432 194.88 111.432 195.091L111.432 196.642C111.432 196.853 111.282 197.019 111.091 197.019Z" fill="white"/>
<path d="M111.091 193.901C110.9 193.901 110.75 193.736 110.75 193.525L110.75 192.772C110.75 192.561 110.9 192.396 111.091 192.396L111.772 192.396C111.963 192.396 112.113 192.561 112.113 192.772C112.113 192.983 111.963 193.148 111.772 193.148L111.432 193.148L111.432 193.525C111.432 193.736 111.282 193.901 111.091 193.901Z" fill="white"/>
<path d="M130.692 193.148L129.342 193.148C129.151 193.148 129.001 192.983 129.001 192.772C129.001 192.561 129.151 192.396 129.342 192.396L130.692 192.396C130.882 192.396 131.032 192.561 131.032 192.772C131.032 192.983 130.882 193.148 130.692 193.148ZM127.993 193.148L126.643 193.148C126.453 193.148 126.303 192.983 126.303 192.772C126.303 192.561 126.453 192.396 126.643 192.396L127.993 192.396C128.184 192.396 128.334 192.561 128.334 192.772C128.334 192.983 128.184 193.148 127.993 193.148ZM125.294 193.148L123.945 193.148C123.754 193.148 123.604 192.983 123.604 192.772C123.604 192.561 123.754 192.396 123.945 192.396L125.294 192.396C125.485 192.396 125.635 192.561 125.635 192.772C125.635 192.983 125.485 193.148 125.294 193.148ZM122.595 193.148L121.246 193.148C121.055 193.148 120.905 192.983 120.905 192.772C120.905 192.561 121.055 192.396 121.246 192.396L122.595 192.396C122.786 192.396 122.936 192.561 122.936 192.772C122.936 192.983 122.786 193.148 122.595 193.148ZM119.896 193.148L118.547 193.148C118.356 193.148 118.206 192.983 118.206 192.772C118.206 192.561 118.356 192.396 118.547 192.396L119.896 192.396C120.087 192.396 120.237 192.561 120.237 192.772C120.237 192.983 120.087 193.148 119.896 193.148ZM117.198 193.148L115.848 193.148C115.657 193.148 115.507 192.983 115.507 192.772C115.507 192.561 115.657 192.396 115.848 192.396L117.198 192.396C117.388 192.396 117.538 192.561 117.538 192.772C117.538 192.983 117.388 193.148 117.198 193.148ZM114.499 193.148L113.149 193.148C112.959 193.148 112.809 192.983 112.809 192.772C112.809 192.561 112.959 192.396 113.149 192.396L114.499 192.396C114.69 192.396 114.84 192.561 114.84 192.772C114.84 192.983 114.69 193.148 114.499 193.148Z" fill="white"/>
<path d="M132.722 193.901C132.532 193.901 132.382 193.736 132.382 193.525L132.382 193.148L132.041 193.148C131.85 193.148 131.7 192.983 131.7 192.772C131.7 192.561 131.85 192.396 132.041 192.396L132.722 192.396C132.913 192.396 133.063 192.561 133.063 192.772L133.063 193.525C133.063 193.736 132.913 193.901 132.722 193.901Z" fill="white"/>
<path d="M132.723 203.223C132.532 203.223 132.382 203.058 132.382 202.847L132.382 201.296C132.382 201.085 132.532 200.919 132.723 200.919C132.913 200.919 133.063 201.085 133.063 201.296L133.063 202.847C133.063 203.058 132.913 203.223 132.723 203.223ZM132.723 200.121C132.532 200.121 132.382 199.955 132.382 199.744L132.382 198.193C132.382 197.983 132.532 197.817 132.723 197.817C132.913 197.817 133.063 197.983 133.063 198.193L133.063 199.744C133.063 199.955 132.913 200.121 132.723 200.121ZM132.723 197.019C132.532 197.019 132.382 196.853 132.382 196.642L132.382 195.091C132.382 194.88 132.532 194.715 132.723 194.715C132.913 194.715 133.063 194.88 133.063 195.091L133.063 196.642C133.063 196.853 132.913 197.019 132.723 197.019Z" fill="white"/>
<path d="M111.923 199.609L111.241 199.609C111.05 199.609 110.9 199.444 110.9 199.233C110.9 199.022 111.05 198.856 111.241 198.856L111.923 198.856C112.113 198.856 112.263 199.022 112.263 199.233C112.263 199.444 112.113 199.609 111.923 199.609Z" fill="white"/>
<path d="M130.692 199.609L129.356 199.609C129.165 199.609 129.015 199.444 129.015 199.233C129.015 199.022 129.165 198.856 129.356 198.856L130.692 198.856C130.883 198.856 131.033 199.022 131.033 199.233C131.033 199.444 130.883 199.609 130.692 199.609ZM128.007 199.609L126.671 199.609C126.48 199.609 126.33 199.444 126.33 199.233C126.33 199.022 126.48 198.856 126.671 198.856L128.007 198.856C128.198 198.856 128.347 199.022 128.347 199.233C128.347 199.444 128.198 199.609 128.007 199.609ZM125.322 199.609L123.986 199.609C123.795 199.609 123.645 199.444 123.645 199.233C123.645 199.022 123.795 198.856 123.986 198.856L125.322 198.856C125.512 198.856 125.662 199.022 125.662 199.233C125.662 199.444 125.512 199.609 125.322 199.609ZM122.636 199.609L121.301 199.609C121.11 199.609 120.96 199.444 120.96 199.233C120.96 199.022 121.11 198.856 121.301 198.856L122.636 198.856C122.827 198.856 122.977 199.022 122.977 199.233C122.977 199.444 122.827 199.609 122.636 199.609ZM119.951 199.609L118.615 199.609C118.425 199.609 118.275 199.444 118.275 199.233C118.275 199.022 118.425 198.856 118.615 198.856L119.951 198.856C120.142 198.856 120.292 199.022 120.292 199.233C120.292 199.444 120.142 199.609 119.951 199.609ZM117.266 199.609L115.93 199.609C115.739 199.609 115.589 199.444 115.589 199.233C115.589 199.022 115.739 198.856 115.93 198.856L117.266 198.856C117.457 198.856 117.607 199.022 117.607 199.233C117.607 199.444 117.457 199.609 117.266 199.609ZM114.581 199.609L113.245 199.609C113.054 199.609 112.904 199.444 112.904 199.233C112.904 199.022 113.054 198.856 113.245 198.856L114.581 198.856C114.772 198.856 114.922 199.022 114.922 199.233C114.922 199.444 114.772 199.609 114.581 199.609Z" fill="white"/>
<path d="M132.723 199.609L132.042 199.609C131.851 199.609 131.701 199.444 131.701 199.233C131.701 199.022 131.851 198.856 132.042 198.856L132.723 198.856C132.914 198.856 133.064 199.022 133.064 199.233C133.064 199.444 132.914 199.609 132.723 199.609Z" fill="white"/>
<path d="M137.313 177.366C143.692 177.336 148.067 142.277 148.067 142.277C146.091 141.63 144.21 141.012 142.451 140.44C142.451 140.44 131.084 177.381 137.313 177.351L137.313 177.366Z" fill="#00A3E1"/>
<path d="M137.314 177.743C136.769 177.743 136.305 177.502 135.951 177.035C134.819 175.529 134.833 171.568 135.992 164.957C136.032 164.746 136.196 164.626 136.387 164.656C136.564 164.701 136.687 164.897 136.659 165.093C135.283 172.924 135.801 175.649 136.482 176.553C136.7 176.854 136.973 176.96 137.327 176.99C138.718 176.99 140.912 174.896 143.516 165.002C143.57 164.807 143.747 164.686 143.938 164.746C144.115 164.807 144.224 165.017 144.17 165.213C141.962 173.631 139.726 177.728 137.327 177.743L137.314 177.743Z" fill="#262626"/>
<path d="M139.671 171.96C139.671 172.698 139.126 173.3 138.445 173.3C137.763 173.3 137.231 172.698 137.231 171.96C137.231 171.222 137.777 170.604 138.445 170.604C139.112 170.604 139.671 171.207 139.671 171.96Z" fill="#EAE7E0"/>
<path d="M105.31 177.065C111.239 174.911 91.066 144.295 91.066 144.295C88.8988 145.033 86.936 146.223 85.1641 147.759C86.3772 150.44 99.5305 179.158 105.31 177.065Z" fill="#00A3E1"/>
<path d="M101.519 172.758C101.737 173.466 102.419 173.842 103.059 173.616C103.7 173.375 104.041 172.622 103.836 171.915C103.618 171.207 102.937 170.83 102.296 171.056C101.656 171.297 101.315 172.05 101.519 172.758Z" fill="#EAE7E0"/>
<path d="M97.6254 170.424C97.6254 170.424 100.174 166.839 98.9611 164.505C97.7344 162.171 91.0146 173.119 91.0146 173.119L97.6254 170.409L97.6254 170.424Z" fill="#BA5725"/>
<path d="M96.1801 147.759L108.897 147.759C109.715 147.759 110.369 148.482 110.369 149.385L110.369 178.992C110.369 179.896 109.715 180.619 108.897 180.619L96.1801 180.619C95.3759 180.619 94.708 179.896 94.708 178.992L94.708 149.385C94.708 148.482 95.3623 147.759 96.1801 147.759Z" fill="white"/>
<path d="M103.894 151.418C103.894 152.247 103.294 152.909 102.545 152.909C101.809 152.909 101.195 152.247 101.195 151.418C101.195 150.59 101.809 149.927 102.545 149.927C103.294 149.927 103.894 150.59 103.894 151.418Z" fill="#B2CEFF"/>
<path d="M103.076 151.418C103.076 151.75 102.844 152.006 102.544 152.006C102.258 152.006 102.013 151.735 102.013 151.418C102.013 151.102 102.258 150.831 102.544 150.831C102.844 150.831 103.076 151.087 103.076 151.418Z" fill="#262626"/>
<path d="M103.894 155.334C103.894 156.162 103.294 156.825 102.545 156.825C101.809 156.825 101.195 156.162 101.195 155.334C101.195 154.506 101.809 153.843 102.545 153.843C103.294 153.843 103.894 154.506 103.894 155.334Z" fill="#B2CEFF"/>
<path d="M103.076 155.334C103.076 155.665 102.844 155.921 102.544 155.921C102.258 155.921 102.013 155.65 102.013 155.334C102.013 155.003 102.258 154.747 102.544 154.747C102.844 154.747 103.076 155.003 103.076 155.334Z" fill="#262626"/>
<path d="M73.1582 207.606C73.1582 207.606 83.8035 181.673 89.2829 174.475C91.491 171.583 99.4375 165.695 101.278 167.171C103.118 168.647 95.144 173.677 95.144 173.677C95.144 173.677 103.772 168.044 105.121 170.213C106.266 172.05 96.3434 177.17 96.3434 177.17C96.3434 177.17 104.699 172.427 106.403 174.324C108.12 176.222 98.129 180.604 98.129 180.604C98.129 180.604 103.54 178.842 104.917 180.604C105.626 181.523 95.2121 186.055 95.2121 186.055L88.6695 207.606L73.1445 207.606L73.1582 207.606Z" fill="#BA5725"/>
<path d="M74.8483 203.946C74.8483 203.946 74.7529 203.946 74.712 203.916C74.5348 203.826 74.4666 203.615 74.5348 203.419C74.6029 203.269 80.8048 187.878 84.8802 181.101C84.9893 180.935 85.1937 180.875 85.3573 180.995C85.5209 181.116 85.5618 181.342 85.4527 181.523C81.4045 188.254 75.2163 203.57 75.1618 203.735C75.1073 203.871 74.9846 203.961 74.8483 203.961L74.8483 203.946Z" fill="white"/>
</svg>
