<svg width="25" height="24" viewBox="0 0 25 24" fill="none" xmlns="http://www.w3.org/2000/svg">
<path opacity="0.4" d="M10.0093 4.23013L18.5693 8.51013C22.4093 10.4301 22.4093 13.5701 18.5693 15.4901L10.0093 19.7701C4.24929 22.6501 1.89929 20.2901 4.77929 14.5401L5.64929 12.8101C5.89929 12.3001 5.89929 11.7101 5.64929 11.2001L4.77929 9.46013C1.89929 3.71013 4.25929 1.35013 10.0093 4.23013Z" fill="#007AFF"/>
<path d="M15.3395 12.75H9.93945C9.52945 12.75 9.18945 12.41 9.18945 12C9.18945 11.59 9.52945 11.25 9.93945 11.25H15.3395C15.7495 11.25 16.0895 11.59 16.0895 12C16.0895 12.41 15.7495 12.75 15.3395 12.75Z" fill="#007AFF"/>
</svg>
