<svg width="16" height="16" viewBox="0 0 16 16" fill="none" xmlns="http://www.w3.org/2000/svg">
<path d="M13.9793 5.33341H12.0193C11.1727 5.33341 10.666 4.82675 10.666 3.98008V2.02008C10.666 1.17341 11.1727 0.666748 12.0193 0.666748H13.9793C14.826 0.666748 15.3327 1.17341 15.3327 2.02008V3.98008C15.3327 4.82675 14.826 5.33341 13.9793 5.33341ZM14.126 3.12675C14.046 3.04675 13.9393 3.00675 13.8327 3.00675C13.726 3.00675 13.6193 3.04675 13.5393 3.12675L13.4193 3.24675V1.75341C13.4193 1.52008 13.2327 1.33341 12.9993 1.33341C12.766 1.33341 12.5793 1.52008 12.5793 1.75341V3.24675L12.4593 3.12675C12.2993 2.96675 12.0327 2.96675 11.8727 3.12675C11.7127 3.28675 11.7127 3.55341 11.8727 3.71341L12.706 4.54675C12.7393 4.58008 12.786 4.60675 12.8327 4.62675C12.846 4.63341 12.8593 4.63341 12.8727 4.64008C12.906 4.65341 12.9393 4.66008 12.9793 4.66008C12.9927 4.66008 13.006 4.66008 13.0193 4.66008C13.066 4.66008 13.106 4.65341 13.1527 4.63341C13.1593 4.63341 13.1593 4.63341 13.166 4.63341C13.2127 4.61341 13.2527 4.58675 13.286 4.55341C13.2927 4.54675 13.2927 4.54675 13.2993 4.54675L14.1327 3.71341C14.2927 3.55341 14.2927 3.28675 14.126 3.12675Z" fill="#635BFF"/>
<path opacity="0.4" d="M14.6673 5.17993V5.99993H1.33398V5.0266C1.33398 3.49993 2.57398 2.2666 4.10065 2.2666H10.6673V3.97993C10.6673 4.8266 11.174 5.33327 12.0207 5.33327H13.9807C14.2473 5.33327 14.474 5.2866 14.6673 5.17993Z" fill="#635BFF"/>
<path d="M1.33398 6V10.9733C1.33398 12.5 2.57398 13.7333 4.10065 13.7333H11.9007C13.4273 13.7333 14.6673 12.5 14.6673 10.9733V6H1.33398ZM5.33398 11.5H4.00065C3.72732 11.5 3.50065 11.2733 3.50065 11C3.50065 10.7267 3.72732 10.5 4.00065 10.5H5.33398C5.60732 10.5 5.83398 10.7267 5.83398 11C5.83398 11.2733 5.60732 11.5 5.33398 11.5ZM9.66732 11.5H7.00065C6.72732 11.5 6.50065 11.2733 6.50065 11C6.50065 10.7267 6.72732 10.5 7.00065 10.5H9.66732C9.94065 10.5 10.1673 10.7267 10.1673 11C10.1673 11.2733 9.94065 11.5 9.66732 11.5Z" fill="#635BFF"/>
</svg>
