<svg width="17" height="16" viewBox="0 0 17 16" fill="none" xmlns="http://www.w3.org/2000/svg">
<path opacity="0.4" d="M15.1663 7.99984V11.3332C15.1663 13.3332 13.833 14.6665 11.833 14.6665H5.16634C3.16634 14.6665 1.83301 13.3332 1.83301 11.3332V7.99984C1.83301 6.1865 2.92634 4.91984 4.62634 4.7065C4.79967 4.67984 4.97967 4.6665 5.16634 4.6665H11.833C12.0063 4.6665 12.173 4.67316 12.333 4.69983C14.053 4.89983 15.1663 6.17317 15.1663 7.99984Z" fill="#007AFF"/>
<path d="M12.3336 4.70016C12.1736 4.6735 12.007 4.66684 11.8336 4.66684H5.16695C4.98029 4.66684 4.80029 4.68017 4.62695 4.70683C4.72029 4.52017 4.85362 4.34684 5.01362 4.18684L7.18029 2.0135C8.09362 1.10683 9.57362 1.10683 10.487 2.0135L11.6536 3.19351C12.0803 3.61351 12.307 4.14683 12.3336 4.70016Z" fill="#007AFF"/>
<path d="M15.1663 8.3335H13.1663C12.433 8.3335 11.833 8.9335 11.833 9.66683C11.833 10.4002 12.433 11.0002 13.1663 11.0002H15.1663" fill="#007AFF"/>
</svg>
